<svg width="615" height="247" viewBox="0 0 615 247" fill="none" xmlns="http://www.w3.org/2000/svg">
<path fill-rule="evenodd" clip-rule="evenodd" d="M131.136 46.8951H131.184L204.148 89.1055C210.209 92.5951 215.267 97.5189 218.751 103.59C222.234 109.709 224 116.497 224 123.524C224 130.551 222.282 137.339 218.751 143.458C215.219 149.529 210.209 154.405 204.148 157.895L203.48 158.325H203.432L131.852 199.722L59.5552 241.55C53.4469 245.088 46.7183 247 39.7034 247C32.9271 247 26.4371 245.231 20.5675 241.933H20.5198L19.8517 241.55C13.7912 238.061 8.78057 233.137 5.24926 227.066C1.76566 220.995 0 214.159 0 207.132V204.216H0.0477089V126.44H0V39.868C0 32.8409 1.71794 26.005 5.24926 19.934C8.73285 13.863 13.7912 8.98704 19.8517 5.4496C25.9122 1.95995 32.6885 0 39.7034 0C46.7183 0 53.4947 1.95995 59.5552 5.4496L131.136 46.8951ZM23.5739 126.44V204.216V207.18C23.5739 210 24.1943 212.821 25.6259 215.259L26.0077 215.928C27.4393 218.127 29.3958 219.848 31.6387 221.138C34.0724 222.572 36.8402 223.385 39.6557 223.385C42.519 223.385 45.239 222.572 47.7205 221.138L120.685 178.928H120.733L192.361 137.53C194.604 136.192 196.561 134.471 197.945 132.272L198.326 131.603C199.758 129.165 200.378 126.344 200.378 123.524C200.378 120.656 199.758 117.835 198.326 115.397C197.038 113.151 195.177 111.334 193.029 109.948L120.017 67.7374L48.4363 26.2919H48.3885L47.7205 25.9094C45.239 24.4753 42.519 23.6627 39.6557 23.6627C36.8402 23.6627 34.0724 24.4753 31.6387 25.9094L30.9706 26.2919C28.7754 27.6781 26.9143 29.4947 25.6259 31.7892C24.1943 34.2272 23.5739 37.0476 23.5739 39.868V126.44ZM92.196 128.065C104.508 128.065 115.531 120.512 119.969 109.039L120.685 107.175H144.975L144.116 110.808C138.342 134.758 116.867 151.728 92.196 151.728C67.5722 151.728 46.0503 134.758 40.3238 110.808L39.4171 107.175H63.7069L64.4704 109.039C68.9084 120.512 79.9318 128.065 92.196 128.065Z" fill="url(#paint0_linear_8_257)"/>
<path d="M275.152 175.871V122.619H265.269V104.77H275.152V98.4269C275.152 91.9363 276.234 86.3308 278.397 81.6104C280.659 76.89 283.806 73.2513 287.838 70.6944C291.969 68.0392 296.738 66.7116 302.147 66.7116C305.491 66.7116 308.834 67.105 312.178 67.8917C315.521 68.6784 318.914 69.8094 322.356 71.2845L318.078 88.986C316.603 88.2976 314.882 87.7568 312.915 87.3634C310.949 86.8717 309.129 86.6258 307.457 86.6258C304.606 86.6258 302.442 87.5601 300.967 89.4286C299.492 91.1987 298.754 93.9031 298.754 97.5418V104.77H316.751V122.619H298.754V175.871H275.152ZM395.636 175.871H372.033V132.355C372.033 127.339 371.001 123.652 368.936 121.291C366.969 118.931 364.314 117.751 360.97 117.751C359.2 117.751 357.184 118.341 354.922 119.521C352.758 120.603 350.742 122.176 348.874 124.242C347.005 126.307 345.58 128.716 344.596 131.47V175.871H320.994V68.1867H344.596V111.408C347.448 106.786 351.185 103.246 355.807 100.787C360.527 98.2302 365.69 96.9517 371.296 96.9517C376.606 96.9517 380.835 97.8368 383.982 99.607C387.227 101.377 389.686 103.737 391.358 106.688C393.029 109.539 394.16 112.686 394.75 116.128C395.341 119.57 395.636 122.963 395.636 126.307V175.871ZM527.852 175.871H504.25V132.355C504.25 127.339 503.316 123.652 501.447 121.291C499.579 118.931 497.169 117.751 494.219 117.751C491.072 117.751 487.974 119.029 484.926 121.586C481.877 124.143 479.714 127.438 478.435 131.47V175.871H454.833V132.355C454.833 127.241 453.899 123.553 452.03 121.291C450.162 118.931 447.753 117.751 444.802 117.751C441.754 117.751 438.705 119.029 435.656 121.586C432.608 124.143 430.395 127.438 429.018 131.47V175.871H405.416V98.4269H426.658V111.408C429.51 106.786 433.345 103.246 438.164 100.787C443.081 98.2302 448.785 96.9517 455.276 96.9517C461.668 96.9517 466.585 98.476 470.027 101.525C473.469 104.475 475.682 107.966 476.665 111.998C479.615 107.179 483.5 103.491 488.319 100.935C493.236 98.2793 498.743 96.9517 504.84 96.9517C509.757 96.9517 513.74 97.886 516.789 99.7545C519.837 101.525 522.148 103.885 523.722 106.835C525.295 109.785 526.377 112.981 526.967 116.423C527.557 119.767 527.852 123.062 527.852 126.307V175.871ZM574.403 177.346C567.814 177.346 561.962 176.264 556.849 174.101C551.735 171.937 547.359 168.987 543.72 165.25C540.18 161.513 537.475 157.235 535.607 152.417C533.738 147.598 532.804 142.484 532.804 137.075C532.804 129.995 534.427 123.406 537.672 117.309C541.016 111.211 545.785 106.294 551.981 102.557C558.176 98.8202 565.65 96.9517 574.403 96.9517C583.253 96.9517 590.727 98.8694 596.825 102.705C603.02 106.442 607.642 111.359 610.691 117.456L587.679 124.389C586.204 122.029 584.286 120.21 581.926 118.931C579.664 117.653 577.107 117.013 574.255 117.013C571.01 117.013 568.06 117.849 565.404 119.521C562.847 121.193 560.782 123.504 559.209 126.454C557.734 129.405 556.996 132.945 556.996 137.075C556.996 141.107 557.783 144.648 559.356 147.696C560.93 150.745 562.995 153.154 565.552 154.924C568.109 156.596 571.01 157.432 574.255 157.432C576.222 157.432 578.041 157.137 579.713 156.547C581.483 155.859 583.057 154.924 584.433 153.744C585.909 152.564 587.04 151.236 587.826 149.761L610.838 156.842C608.97 160.776 606.265 164.316 602.725 167.463C599.283 170.511 595.202 172.921 590.482 174.691C585.761 176.461 580.401 177.346 574.403 177.346Z" fill="#3B3685"/>
<defs>
<linearGradient id="paint0_linear_8_257" x1="224.652" y1="0.00095606" x2="223.354" y2="247.014" gradientUnits="userSpaceOnUse">
<stop stop-color="#00A5FE"/>
<stop offset="1" stop-color="#0153F1"/>
</linearGradient>
</defs>
</svg>
