<svg xmlns="http://www.w3.org/2000/svg" xmlns:xlink="http://www.w3.org/1999/xlink" width="616" zoomAndPan="magnify" viewBox="0 0 462 185.249993" height="247" preserveAspectRatio="xMidYMid meet" version="1.0"><defs><g/><clipPath id="c3e7bbbe8d"><path d="M 25.894531 32.804688 L 144.664062 32.804688 L 144.664062 151.574219 L 25.894531 151.574219 Z M 25.894531 32.804688 " clip-rule="nonzero"/></clipPath></defs><g fill="#0b3d2e" fill-opacity="1"><g transform="translate(161.583271, 84.80192)"><g><path d="M 20.421875 0.59375 C 16.929688 0.59375 13.773438 -0.160156 10.953125 -1.671875 C 8.140625 -3.191406 5.925781 -5.296875 4.3125 -7.984375 C 2.707031 -10.671875 1.90625 -13.707031 1.90625 -17.09375 C 1.90625 -20.476562 2.707031 -23.515625 4.3125 -26.203125 C 5.925781 -28.890625 8.140625 -30.988281 10.953125 -32.5 C 13.773438 -34.019531 16.945312 -34.78125 20.46875 -34.78125 C 23.425781 -34.78125 26.101562 -34.257812 28.5 -33.21875 C 30.894531 -32.175781 32.90625 -30.675781 34.53125 -28.71875 L 29.453125 -24.03125 C 27.140625 -26.695312 24.273438 -28.03125 20.859375 -28.03125 C 18.742188 -28.03125 16.851562 -27.566406 15.1875 -26.640625 C 13.53125 -25.710938 12.238281 -24.414062 11.3125 -22.75 C 10.382812 -21.09375 9.921875 -19.207031 9.921875 -17.09375 C 9.921875 -14.976562 10.382812 -13.085938 11.3125 -11.421875 C 12.238281 -9.765625 13.53125 -8.472656 15.1875 -7.546875 C 16.851562 -6.617188 18.742188 -6.15625 20.859375 -6.15625 C 24.273438 -6.15625 27.140625 -7.503906 29.453125 -10.203125 L 34.53125 -5.515625 C 32.90625 -3.535156 30.882812 -2.019531 28.46875 -0.96875 C 26.0625 0.0703125 23.378906 0.59375 20.421875 0.59375 Z M 20.421875 0.59375 "/></g></g></g><g fill="#0b3d2e" fill-opacity="1"><g transform="translate(197.386697, 84.80192)"><g><path d="M 3.515625 -36.234375 L 11.140625 -36.234375 L 11.140625 0 L 3.515625 0 Z M 3.515625 -36.234375 "/></g></g></g><g fill="#0b3d2e" fill-opacity="1"><g transform="translate(212.089058, 84.80192)"><g><path d="M 16.015625 0.390625 C 13.253906 0.390625 10.773438 -0.1875 8.578125 -1.34375 C 6.378906 -2.5 4.660156 -4.101562 3.421875 -6.15625 C 2.179688 -8.207031 1.5625 -10.535156 1.5625 -13.140625 C 1.5625 -15.742188 2.179688 -18.070312 3.421875 -20.125 C 4.660156 -22.175781 6.378906 -23.78125 8.578125 -24.9375 C 10.773438 -26.09375 13.253906 -26.671875 16.015625 -26.671875 C 18.785156 -26.671875 21.257812 -26.09375 23.4375 -24.9375 C 25.625 -23.78125 27.335938 -22.175781 28.578125 -20.125 C 29.816406 -18.070312 30.4375 -15.742188 30.4375 -13.140625 C 30.4375 -10.535156 29.816406 -8.207031 28.578125 -6.15625 C 27.335938 -4.101562 25.625 -2.5 23.4375 -1.34375 C 21.257812 -0.1875 18.785156 0.390625 16.015625 0.390625 Z M 16.015625 -5.859375 C 17.972656 -5.859375 19.578125 -6.515625 20.828125 -7.828125 C 22.085938 -9.148438 22.71875 -10.921875 22.71875 -13.140625 C 22.71875 -15.347656 22.085938 -17.113281 20.828125 -18.4375 C 19.578125 -19.757812 17.972656 -20.421875 16.015625 -20.421875 C 14.066406 -20.421875 12.457031 -19.757812 11.1875 -18.4375 C 9.914062 -17.113281 9.28125 -15.347656 9.28125 -13.140625 C 9.28125 -10.921875 9.914062 -9.148438 11.1875 -7.828125 C 12.457031 -6.515625 14.066406 -5.859375 16.015625 -5.859375 Z M 16.015625 -5.859375 "/></g></g></g><g fill="#0b3d2e" fill-opacity="1"><g transform="translate(244.082569, 84.80192)"><g><path d="M 29.984375 -26.28125 L 29.984375 0 L 22.765625 0 L 22.765625 -3.125 C 21.753906 -1.988281 20.546875 -1.117188 19.140625 -0.515625 C 17.742188 0.0859375 16.234375 0.390625 14.609375 0.390625 C 11.148438 0.390625 8.410156 -0.597656 6.390625 -2.578125 C 4.378906 -4.566406 3.375 -7.515625 3.375 -11.421875 L 3.375 -26.28125 L 10.984375 -26.28125 L 10.984375 -12.546875 C 10.984375 -8.316406 12.757812 -6.203125 16.3125 -6.203125 C 18.132812 -6.203125 19.597656 -6.796875 20.703125 -7.984375 C 21.816406 -9.171875 22.375 -10.9375 22.375 -13.28125 L 22.375 -26.28125 Z M 29.984375 -26.28125 "/></g></g></g><g fill="#0b3d2e" fill-opacity="1"><g transform="translate(277.639119, 84.80192)"><g><path d="M 30.28125 -36.234375 L 30.28125 0 L 23 0 L 23 -3.03125 C 21.113281 -0.75 18.378906 0.390625 14.796875 0.390625 C 12.328125 0.390625 10.085938 -0.160156 8.078125 -1.265625 C 6.078125 -2.378906 4.503906 -3.957031 3.359375 -6 C 2.222656 -8.050781 1.65625 -10.429688 1.65625 -13.140625 C 1.65625 -15.835938 2.222656 -18.210938 3.359375 -20.265625 C 4.503906 -22.316406 6.078125 -23.894531 8.078125 -25 C 10.085938 -26.113281 12.328125 -26.671875 14.796875 -26.671875 C 18.148438 -26.671875 20.769531 -25.613281 22.65625 -23.5 L 22.65625 -36.234375 Z M 16.125 -5.859375 C 18.039062 -5.859375 19.632812 -6.515625 20.90625 -7.828125 C 22.175781 -9.148438 22.8125 -10.921875 22.8125 -13.140625 C 22.8125 -15.347656 22.175781 -17.113281 20.90625 -18.4375 C 19.632812 -19.757812 18.039062 -20.421875 16.125 -20.421875 C 14.164062 -20.421875 12.550781 -19.757812 11.28125 -18.4375 C 10.007812 -17.113281 9.375 -15.347656 9.375 -13.140625 C 9.375 -10.921875 10.007812 -9.148438 11.28125 -7.828125 C 12.550781 -6.515625 14.164062 -5.859375 16.125 -5.859375 Z M 16.125 -5.859375 "/></g></g></g><g fill="#0b3d2e" fill-opacity="1"><g transform="translate(311.444896, 84.80192)"><g/></g></g><g fill="#0b3d2e" fill-opacity="1"><g transform="translate(161.583271, 133.812344)"><g><path d="M 26.578125 -7.328125 L 10.703125 -7.328125 L 7.671875 0 L -0.4375 0 L 14.796875 -34.1875 L 22.609375 -34.1875 L 37.90625 0 L 29.59375 0 Z M 24.078125 -13.328125 L 18.65625 -26.421875 L 13.234375 -13.328125 Z M 24.078125 -13.328125 "/></g></g></g><g fill="#0b3d2e" fill-opacity="1"><g transform="translate(198.998584, 133.812344)"><g><path d="M 10.796875 -22.8125 C 11.703125 -24.082031 12.925781 -25.039062 14.46875 -25.6875 C 16.019531 -26.34375 17.804688 -26.671875 19.828125 -26.671875 L 19.828125 -19.640625 C 18.984375 -19.703125 18.414062 -19.734375 18.125 -19.734375 C 15.9375 -19.734375 14.222656 -19.117188 12.984375 -17.890625 C 11.753906 -16.671875 11.140625 -14.84375 11.140625 -12.40625 L 11.140625 0 L 3.515625 0 L 3.515625 -26.28125 L 10.796875 -26.28125 Z M 10.796875 -22.8125 "/></g></g></g><g fill="#0b3d2e" fill-opacity="1"><g transform="translate(220.050805, 133.812344)"><g><path d="M 19.046875 -26.671875 C 21.492188 -26.671875 23.71875 -26.109375 25.71875 -24.984375 C 27.71875 -23.859375 29.285156 -22.273438 30.421875 -20.234375 C 31.566406 -18.203125 32.140625 -15.835938 32.140625 -13.140625 C 32.140625 -10.429688 31.566406 -8.0625 30.421875 -6.03125 C 29.285156 -4 27.71875 -2.421875 25.71875 -1.296875 C 23.71875 -0.171875 21.492188 0.390625 19.046875 0.390625 C 15.429688 0.390625 12.679688 -0.75 10.796875 -3.03125 L 10.796875 0 L 3.515625 0 L 3.515625 -36.234375 L 11.140625 -36.234375 L 11.140625 -23.5 C 13.054688 -25.613281 15.691406 -26.671875 19.046875 -26.671875 Z M 17.734375 -5.859375 C 19.679688 -5.859375 21.28125 -6.515625 22.53125 -7.828125 C 23.789062 -9.148438 24.421875 -10.921875 24.421875 -13.140625 C 24.421875 -15.347656 23.789062 -17.113281 22.53125 -18.4375 C 21.28125 -19.757812 19.679688 -20.421875 17.734375 -20.421875 C 15.773438 -20.421875 14.164062 -19.757812 12.90625 -18.4375 C 11.65625 -17.113281 11.03125 -15.347656 11.03125 -13.140625 C 11.03125 -10.921875 11.65625 -9.148438 12.90625 -7.828125 C 14.164062 -6.515625 15.773438 -5.859375 17.734375 -5.859375 Z M 17.734375 -5.859375 "/></g></g></g><g fill="#0b3d2e" fill-opacity="1"><g transform="translate(253.753895, 133.812344)"><g><path d="M 3.515625 -26.28125 L 11.140625 -26.28125 L 11.140625 0 L 3.515625 0 Z M 7.328125 -29.9375 C 5.929688 -29.9375 4.789062 -30.34375 3.90625 -31.15625 C 3.03125 -31.976562 2.59375 -32.988281 2.59375 -34.1875 C 2.59375 -35.394531 3.03125 -36.40625 3.90625 -37.21875 C 4.789062 -38.03125 5.929688 -38.4375 7.328125 -38.4375 C 8.734375 -38.4375 9.875 -38.046875 10.75 -37.265625 C 11.625 -36.484375 12.0625 -35.507812 12.0625 -34.34375 C 12.0625 -33.070312 11.625 -32.019531 10.75 -31.1875 C 9.875 -30.351562 8.734375 -29.9375 7.328125 -29.9375 Z M 7.328125 -29.9375 "/></g></g></g><g fill="#0b3d2e" fill-opacity="1"><g transform="translate(268.456257, 133.812344)"><g><path d="M 20.46875 -1.265625 C 19.71875 -0.710938 18.796875 -0.296875 17.703125 -0.015625 C 16.609375 0.253906 15.460938 0.390625 14.265625 0.390625 C 11.140625 0.390625 8.71875 -0.40625 7 -2 C 5.289062 -3.59375 4.4375 -5.9375 4.4375 -9.03125 L 4.4375 -19.828125 L 0.390625 -19.828125 L 0.390625 -25.6875 L 4.4375 -25.6875 L 4.4375 -32.09375 L 12.0625 -32.09375 L 12.0625 -25.6875 L 18.609375 -25.6875 L 18.609375 -19.828125 L 12.0625 -19.828125 L 12.0625 -9.140625 C 12.0625 -8.023438 12.347656 -7.164062 12.921875 -6.5625 C 13.492188 -5.96875 14.300781 -5.671875 15.34375 -5.671875 C 16.539062 -5.671875 17.566406 -5.992188 18.421875 -6.640625 Z M 20.46875 -1.265625 "/></g></g></g><g fill="#0b3d2e" fill-opacity="1"><g transform="translate(289.703855, 133.812344)"><g><path d="M 10.796875 -22.8125 C 11.703125 -24.082031 12.925781 -25.039062 14.46875 -25.6875 C 16.019531 -26.34375 17.804688 -26.671875 19.828125 -26.671875 L 19.828125 -19.640625 C 18.984375 -19.703125 18.414062 -19.734375 18.125 -19.734375 C 15.9375 -19.734375 14.222656 -19.117188 12.984375 -17.890625 C 11.753906 -16.671875 11.140625 -14.84375 11.140625 -12.40625 L 11.140625 0 L 3.515625 0 L 3.515625 -26.28125 L 10.796875 -26.28125 Z M 10.796875 -22.8125 "/></g></g></g><g fill="#0b3d2e" fill-opacity="1"><g transform="translate(310.75607, 133.812344)"><g><path d="M 14.109375 -26.671875 C 18.179688 -26.671875 21.304688 -25.703125 23.484375 -23.765625 C 25.671875 -21.828125 26.765625 -18.90625 26.765625 -15 L 26.765625 0 L 19.640625 0 L 19.640625 -3.265625 C 18.203125 -0.828125 15.53125 0.390625 11.625 0.390625 C 9.601562 0.390625 7.851562 0.0507812 6.375 -0.625 C 4.894531 -1.3125 3.765625 -2.257812 2.984375 -3.46875 C 2.203125 -4.675781 1.8125 -6.046875 1.8125 -7.578125 C 1.8125 -10.015625 2.726562 -11.929688 4.5625 -13.328125 C 6.40625 -14.734375 9.25 -15.4375 13.09375 -15.4375 L 19.140625 -15.4375 C 19.140625 -17.09375 18.632812 -18.367188 17.625 -19.265625 C 16.625 -20.160156 15.113281 -20.609375 13.09375 -20.609375 C 11.6875 -20.609375 10.304688 -20.390625 8.953125 -19.953125 C 7.609375 -19.515625 6.460938 -18.921875 5.515625 -18.171875 L 2.78125 -23.5 C 4.21875 -24.507812 5.9375 -25.289062 7.9375 -25.84375 C 9.9375 -26.394531 11.992188 -26.671875 14.109375 -26.671875 Z M 13.53125 -4.734375 C 14.832031 -4.734375 15.988281 -5.035156 17 -5.640625 C 18.007812 -6.242188 18.722656 -7.128906 19.140625 -8.296875 L 19.140625 -10.984375 L 13.921875 -10.984375 C 10.796875 -10.984375 9.234375 -9.957031 9.234375 -7.90625 C 9.234375 -6.9375 9.613281 -6.164062 10.375 -5.59375 C 11.144531 -5.019531 12.195312 -4.734375 13.53125 -4.734375 Z M 13.53125 -4.734375 "/></g></g></g><g fill="#0b3d2e" fill-opacity="1"><g transform="translate(340.893472, 133.812344)"><g><path d="M 20.46875 -1.265625 C 19.71875 -0.710938 18.796875 -0.296875 17.703125 -0.015625 C 16.609375 0.253906 15.460938 0.390625 14.265625 0.390625 C 11.140625 0.390625 8.71875 -0.40625 7 -2 C 5.289062 -3.59375 4.4375 -5.9375 4.4375 -9.03125 L 4.4375 -19.828125 L 0.390625 -19.828125 L 0.390625 -25.6875 L 4.4375 -25.6875 L 4.4375 -32.09375 L 12.0625 -32.09375 L 12.0625 -25.6875 L 18.609375 -25.6875 L 18.609375 -19.828125 L 12.0625 -19.828125 L 12.0625 -9.140625 C 12.0625 -8.023438 12.347656 -7.164062 12.921875 -6.5625 C 13.492188 -5.96875 14.300781 -5.671875 15.34375 -5.671875 C 16.539062 -5.671875 17.566406 -5.992188 18.421875 -6.640625 Z M 20.46875 -1.265625 "/></g></g></g><g fill="#0b3d2e" fill-opacity="1"><g transform="translate(362.141071, 133.812344)"><g><path d="M 3.515625 -26.28125 L 11.140625 -26.28125 L 11.140625 0 L 3.515625 0 Z M 7.328125 -29.9375 C 5.929688 -29.9375 4.789062 -30.34375 3.90625 -31.15625 C 3.03125 -31.976562 2.59375 -32.988281 2.59375 -34.1875 C 2.59375 -35.394531 3.03125 -36.40625 3.90625 -37.21875 C 4.789062 -38.03125 5.929688 -38.4375 7.328125 -38.4375 C 8.734375 -38.4375 9.875 -38.046875 10.75 -37.265625 C 11.625 -36.484375 12.0625 -35.507812 12.0625 -34.34375 C 12.0625 -33.070312 11.625 -32.019531 10.75 -31.1875 C 9.875 -30.351562 8.734375 -29.9375 7.328125 -29.9375 Z M 7.328125 -29.9375 "/></g></g></g><g fill="#0b3d2e" fill-opacity="1"><g transform="translate(376.84342, 133.812344)"><g><path d="M 16.015625 0.390625 C 13.253906 0.390625 10.773438 -0.1875 8.578125 -1.34375 C 6.378906 -2.5 4.660156 -4.101562 3.421875 -6.15625 C 2.179688 -8.207031 1.5625 -10.535156 1.5625 -13.140625 C 1.5625 -15.742188 2.179688 -18.070312 3.421875 -20.125 C 4.660156 -22.175781 6.378906 -23.78125 8.578125 -24.9375 C 10.773438 -26.09375 13.253906 -26.671875 16.015625 -26.671875 C 18.785156 -26.671875 21.257812 -26.09375 23.4375 -24.9375 C 25.625 -23.78125 27.335938 -22.175781 28.578125 -20.125 C 29.816406 -18.070312 30.4375 -15.742188 30.4375 -13.140625 C 30.4375 -10.535156 29.816406 -8.207031 28.578125 -6.15625 C 27.335938 -4.101562 25.625 -2.5 23.4375 -1.34375 C 21.257812 -0.1875 18.785156 0.390625 16.015625 0.390625 Z M 16.015625 -5.859375 C 17.972656 -5.859375 19.578125 -6.515625 20.828125 -7.828125 C 22.085938 -9.148438 22.71875 -10.921875 22.71875 -13.140625 C 22.71875 -15.347656 22.085938 -17.113281 20.828125 -18.4375 C 19.578125 -19.757812 17.972656 -20.421875 16.015625 -20.421875 C 14.066406 -20.421875 12.457031 -19.757812 11.1875 -18.4375 C 9.914062 -17.113281 9.28125 -15.347656 9.28125 -13.140625 C 9.28125 -10.921875 9.914062 -9.148438 11.1875 -7.828125 C 12.457031 -6.515625 14.066406 -5.859375 16.015625 -5.859375 Z M 16.015625 -5.859375 "/></g></g></g><g fill="#0b3d2e" fill-opacity="1"><g transform="translate(408.836937, 133.812344)"><g><path d="M 19.484375 -26.671875 C 22.742188 -26.671875 25.375 -25.691406 27.375 -23.734375 C 29.375 -21.785156 30.375 -18.890625 30.375 -15.046875 L 30.375 0 L 22.765625 0 L 22.765625 -13.875 C 22.765625 -15.957031 22.304688 -17.507812 21.390625 -18.53125 C 20.484375 -19.5625 19.164062 -20.078125 17.4375 -20.078125 C 15.519531 -20.078125 13.988281 -19.484375 12.84375 -18.296875 C 11.707031 -17.109375 11.140625 -15.34375 11.140625 -13 L 11.140625 0 L 3.515625 0 L 3.515625 -26.28125 L 10.796875 -26.28125 L 10.796875 -23.203125 C 11.804688 -24.304688 13.054688 -25.160156 14.546875 -25.765625 C 16.046875 -26.367188 17.691406 -26.671875 19.484375 -26.671875 Z M 19.484375 -26.671875 "/></g></g></g><g clip-path="url(#c3e7bbbe8d)"><path fill="#0b3d2e" d="M 85.304688 151.667969 L 84.980469 151.667969 L 84.894531 151.664062 L 84.601562 151.664062 L 84.503906 151.660156 L 84.410156 151.660156 L 84.316406 151.65625 L 84.125 151.65625 L 84.03125 151.652344 L 83.972656 151.652344 C 83.917969 151.648438 83.859375 151.648438 83.800781 151.648438 L 83.78125 151.644531 C 83.714844 151.644531 83.660156 151.644531 83.59375 151.640625 C 65.3125 151.105469 49.097656 142.300781 38.558594 128.84375 C 38.550781 128.832031 38.539062 128.824219 38.539062 128.8125 C 32.433594 121.019531 28.238281 111.667969 26.640625 101.457031 L 26.640625 101.453125 C 26.621094 101.300781 26.59375 101.148438 26.574219 100.996094 L 26.566406 100.949219 L 26.554688 100.898438 C 26.539062 100.777344 26.527344 100.660156 26.507812 100.535156 L 26.5 100.484375 L 26.488281 100.40625 L 26.480469 100.34375 C 26.46875 100.253906 26.453125 100.164062 26.441406 100.074219 L 26.433594 100.015625 L 26.421875 99.9375 L 26.414062 99.859375 L 26.402344 99.789062 C 26.394531 99.730469 26.394531 99.671875 26.386719 99.609375 L 26.375 99.546875 L 26.367188 99.46875 L 26.355469 99.390625 L 26.347656 99.320312 C 26.335938 99.261719 26.335938 99.203125 26.328125 99.144531 L 26.320312 99.078125 L 26.308594 98.996094 L 26.300781 98.917969 L 26.289062 98.851562 C 26.289062 98.792969 26.28125 98.734375 26.28125 98.675781 L 26.261719 98.578125 L 26.25 98.484375 L 26.242188 98.367188 L 26.234375 98.296875 L 26.222656 98.203125 L 26.214844 98.109375 L 26.203125 98.015625 L 26.195312 97.894531 L 26.183594 97.824219 L 26.183594 97.726562 L 26.175781 97.640625 L 26.167969 97.546875 L 26.15625 97.453125 L 26.148438 97.34375 L 26.136719 97.265625 L 26.128906 97.171875 L 26.128906 97.078125 L 26.117188 96.984375 L 26.109375 96.867188 L 26.101562 96.792969 L 26.089844 96.699219 L 26.089844 96.605469 L 26.082031 96.511719 L 26.070312 96.394531 L 26.070312 96.316406 L 26.0625 96.226562 L 26.050781 96.132812 L 26.050781 96.039062 L 26.042969 95.945312 L 26.03125 95.835938 L 26.03125 95.746094 L 26.023438 95.660156 L 26.023438 95.566406 L 26.015625 95.472656 L 26.015625 95.355469 L 26.003906 95.277344 L 26.003906 95.1875 L 25.996094 95.089844 L 25.996094 94.996094 L 25.984375 94.878906 L 25.984375 94.800781 L 25.976562 94.710938 L 25.976562 94.519531 L 25.964844 94.425781 L 25.964844 94.222656 L 25.957031 94.140625 L 25.957031 93.949219 L 25.949219 93.835938 L 25.949219 93.566406 L 25.9375 93.472656 L 25.9375 92.992188 L 25.929688 92.871094 L 25.929688 92.3125 C 25.929688 92.285156 25.929688 92.253906 25.929688 92.222656 L 25.929688 91.550781 L 25.9375 91.457031 L 25.9375 90.976562 L 25.949219 90.882812 L 25.949219 90.59375 L 25.957031 90.5 L 25.957031 90.289062 L 25.964844 90.210938 L 25.964844 90.023438 L 25.976562 89.929688 L 25.976562 89.734375 L 25.984375 89.640625 L 25.984375 89.546875 L 25.996094 89.453125 L 25.996094 89.355469 L 26.003906 89.253906 L 26.003906 89.15625 L 26.015625 89.070312 L 26.015625 88.976562 L 26.023438 88.882812 L 26.023438 88.769531 L 26.03125 88.691406 L 26.042969 88.597656 L 26.042969 88.503906 L 26.050781 88.410156 L 26.050781 88.292969 L 26.0625 88.214844 L 26.070312 88.125 L 26.070312 88.03125 L 26.082031 87.9375 L 26.089844 87.84375 L 26.089844 87.742188 L 26.101562 87.652344 L 26.117188 87.464844 L 26.128906 87.371094 L 26.128906 87.257812 L 26.136719 87.179688 L 26.148438 87.089844 L 26.15625 86.992188 L 26.167969 86.898438 L 26.175781 86.785156 L 26.183594 86.707031 L 26.195312 86.617188 L 26.195312 86.523438 L 26.203125 86.429688 L 26.222656 86.3125 L 26.222656 86.238281 L 26.234375 86.136719 L 26.242188 86.054688 L 26.25 85.964844 L 26.261719 85.867188 L 26.28125 85.757812 L 26.289062 85.683594 L 26.300781 85.589844 L 26.308594 85.496094 L 26.320312 85.402344 L 26.328125 85.289062 L 26.335938 85.214844 L 26.347656 85.121094 L 26.355469 85.03125 L 26.375 84.9375 L 26.386719 84.816406 L 26.394531 84.746094 L 26.402344 84.65625 L 26.421875 84.566406 L 26.433594 84.472656 L 26.453125 84.347656 L 26.453125 84.28125 C 26.460938 84.222656 26.46875 84.164062 26.480469 84.105469 L 26.488281 84.007812 L 26.507812 83.882812 L 26.519531 83.816406 C 26.527344 83.757812 26.539062 83.699219 26.546875 83.636719 L 26.554688 83.535156 L 26.574219 83.414062 L 26.585938 83.335938 L 26.605469 83.269531 C 26.605469 83.207031 26.621094 83.148438 26.632812 83.089844 L 26.640625 83.027344 L 26.652344 82.949219 L 26.660156 82.871094 L 26.671875 82.808594 C 26.679688 82.746094 26.6875 82.6875 26.699219 82.625 L 26.707031 82.5625 L 26.726562 82.484375 L 26.738281 82.40625 L 26.746094 82.347656 C 26.765625 82.257812 26.773438 82.167969 26.792969 82.074219 L 26.804688 82.019531 L 26.8125 81.945312 L 26.824219 81.890625 C 26.839844 81.769531 26.871094 81.648438 26.890625 81.523438 C 28.648438 71.875 32.738281 63.035156 38.550781 55.613281 C 38.558594 55.601562 38.570312 55.59375 38.578125 55.582031 C 49.457031 41.703125 66.378906 32.78125 85.371094 32.78125 C 104.363281 32.78125 121.285156 41.703125 132.164062 55.582031 C 132.175781 55.59375 132.183594 55.601562 132.191406 55.613281 C 138.003906 63.035156 142.09375 71.875 143.855469 81.523438 C 143.871094 81.648438 143.902344 81.769531 143.921875 81.890625 L 143.929688 81.945312 L 143.9375 82.019531 L 143.949219 82.074219 C 143.96875 82.167969 143.976562 82.257812 143.996094 82.347656 L 144.007812 82.40625 L 144.015625 82.484375 L 144.035156 82.5625 L 144.042969 82.625 C 144.054688 82.6875 144.0625 82.746094 144.074219 82.808594 L 144.082031 82.871094 L 144.089844 82.949219 L 144.109375 83.027344 L 144.121094 83.089844 C 144.128906 83.148438 144.128906 83.207031 144.140625 83.269531 L 144.15625 83.371094 L 144.175781 83.492188 L 144.1875 83.570312 L 144.195312 83.636719 C 144.207031 83.699219 144.214844 83.757812 144.226562 83.816406 L 144.234375 83.882812 L 144.242188 83.960938 L 144.253906 84.039062 L 144.261719 84.105469 C 144.273438 84.164062 144.28125 84.222656 144.292969 84.28125 L 144.300781 84.378906 L 144.320312 84.503906 L 144.328125 84.582031 L 144.339844 84.660156 L 144.347656 84.75 L 144.359375 84.84375 L 144.367188 84.9375 L 144.386719 85.054688 L 144.394531 85.125 L 144.40625 85.226562 L 144.414062 85.308594 L 144.425781 85.402344 L 144.445312 85.523438 L 144.453125 85.59375 L 144.460938 85.683594 L 144.472656 85.777344 L 144.480469 85.867188 L 144.492188 85.964844 L 144.5 86.074219 L 144.511719 86.152344 L 144.519531 86.242188 L 144.527344 86.335938 L 144.539062 86.429688 L 144.546875 86.546875 L 144.558594 86.621094 L 144.558594 86.710938 L 144.566406 86.808594 L 144.578125 86.898438 L 144.585938 86.992188 L 144.59375 87.09375 L 144.605469 87.183594 L 144.613281 87.277344 L 144.613281 87.371094 L 144.625 87.464844 L 144.632812 87.574219 L 144.644531 87.65625 L 144.652344 87.746094 L 144.652344 87.84375 L 144.660156 87.9375 L 144.671875 88.050781 L 144.671875 88.128906 L 144.679688 88.21875 L 144.691406 88.3125 L 144.691406 88.410156 L 144.699219 88.503906 L 144.710938 88.605469 L 144.710938 88.691406 L 144.71875 88.789062 L 144.71875 88.882812 L 144.730469 88.976562 L 144.730469 89.089844 L 144.738281 89.167969 L 144.738281 89.261719 L 144.746094 89.355469 L 144.746094 89.453125 L 144.757812 89.570312 L 144.757812 89.644531 L 144.765625 89.738281 L 144.765625 89.929688 L 144.777344 90.023438 L 144.777344 90.125 L 144.785156 90.214844 L 144.785156 90.5 L 144.796875 90.609375 L 144.796875 90.882812 L 144.804688 90.976562 L 144.804688 91.359375 L 144.8125 91.457031 L 144.8125 92.132812 C 144.8125 92.164062 144.8125 92.195312 144.8125 92.222656 L 144.8125 92.992188 L 144.804688 93.113281 L 144.804688 93.472656 L 144.796875 93.566406 L 144.796875 93.851562 L 144.785156 93.949219 L 144.785156 94.234375 L 144.777344 94.328125 L 144.777344 94.425781 L 144.765625 94.519531 L 144.765625 94.714844 L 144.757812 94.804688 L 144.757812 94.902344 L 144.746094 94.996094 L 144.746094 95.089844 L 144.738281 95.191406 L 144.738281 95.28125 L 144.730469 95.375 L 144.730469 95.472656 L 144.71875 95.566406 L 144.71875 95.675781 L 144.710938 95.757812 L 144.699219 95.851562 L 144.699219 95.945312 L 144.691406 96.039062 L 144.691406 96.152344 L 144.679688 96.230469 L 144.671875 96.324219 L 144.671875 96.417969 L 144.660156 96.511719 L 144.652344 96.628906 L 144.652344 96.703125 L 144.644531 96.796875 L 144.632812 96.890625 L 144.625 96.984375 L 144.613281 97.078125 L 144.613281 97.175781 L 144.605469 97.269531 L 144.59375 97.359375 L 144.578125 97.546875 L 144.566406 97.660156 L 144.558594 97.738281 L 144.558594 97.828125 L 144.546875 97.921875 L 144.539062 98.015625 L 144.519531 98.132812 L 144.519531 98.207031 L 144.511719 98.308594 L 144.5 98.390625 L 144.492188 98.484375 L 144.472656 98.605469 L 144.460938 98.675781 C 144.460938 98.734375 144.453125 98.792969 144.453125 98.851562 L 144.445312 98.917969 L 144.433594 98.996094 L 144.425781 99.078125 L 144.414062 99.144531 C 144.40625 99.203125 144.40625 99.261719 144.394531 99.320312 L 144.386719 99.390625 L 144.375 99.46875 L 144.367188 99.546875 L 144.359375 99.609375 C 144.347656 99.667969 144.347656 99.730469 144.339844 99.789062 L 144.320312 99.894531 L 144.308594 100.015625 L 144.300781 100.074219 C 144.292969 100.164062 144.273438 100.253906 144.261719 100.34375 L 144.253906 100.40625 L 144.242188 100.484375 L 144.234375 100.535156 C 144.226562 100.65625 144.207031 100.777344 144.1875 100.898438 L 144.175781 100.949219 L 144.167969 100.996094 C 144.148438 101.152344 144.121094 101.304688 144.101562 101.453125 L 144.101562 101.457031 C 142.503906 111.667969 138.308594 121.019531 132.210938 128.8125 C 132.203125 128.824219 132.191406 128.832031 132.183594 128.84375 C 121.636719 142.300781 105.421875 151.101562 87.148438 151.640625 C 87.082031 151.640625 87.027344 151.644531 86.960938 151.644531 L 86.941406 151.648438 C 86.882812 151.648438 86.828125 151.648438 86.777344 151.652344 L 86.695312 151.652344 L 86.617188 151.65625 L 86.425781 151.65625 L 86.332031 151.660156 L 86.226562 151.660156 L 86.140625 151.664062 L 85.847656 151.664062 L 85.75 151.667969 Z M 84.050781 124.515625 C 75.546875 124.558594 67.511719 125.050781 60.328125 125.898438 C 62.230469 130.023438 64.476562 133.6875 66.996094 136.765625 C 71.828125 142.675781 77.675781 146.410156 84.050781 146.863281 Z M 88.804688 124.535156 L 88.804688 146.589844 C 94.359375 145.546875 99.457031 142.015625 103.746094 136.765625 C 106.265625 133.6875 108.511719 130.023438 110.414062 125.898438 C 103.832031 125.121094 96.527344 124.644531 88.804688 124.535156 Z M 115.3125 126.550781 C 113.113281 131.617188 110.453125 136.085938 107.425781 139.777344 C 106.246094 141.222656 105.011719 142.550781 103.726562 143.75 C 112.421875 140.648438 120.105469 135.40625 126.144531 128.660156 C 122.921875 127.851562 119.289062 127.144531 115.3125 126.550781 Z M 55.429688 126.550781 C 51.457031 127.144531 47.824219 127.851562 44.597656 128.660156 C 50.636719 135.40625 58.324219 140.648438 67.015625 143.75 C 65.730469 142.550781 64.496094 141.222656 63.316406 139.777344 C 60.292969 136.085938 57.628906 131.617188 55.429688 126.550781 Z M 48.78125 94.601562 L 30.730469 94.601562 L 30.742188 94.6875 L 30.742188 94.785156 L 30.75 94.875 L 30.75 94.957031 L 30.761719 95.039062 L 30.761719 95.128906 L 30.769531 95.222656 L 30.769531 95.304688 L 30.777344 95.386719 L 30.777344 95.472656 L 30.789062 95.570312 L 30.789062 95.65625 L 30.796875 95.738281 L 30.796875 95.820312 L 30.808594 95.917969 L 30.808594 96.003906 L 30.816406 96.082031 L 30.828125 96.167969 L 30.828125 96.261719 L 30.835938 96.347656 L 30.84375 96.429688 L 30.84375 96.515625 L 30.855469 96.605469 L 30.863281 96.695312 L 30.875 96.777344 L 30.875 96.863281 L 30.882812 96.949219 L 30.894531 97.039062 C 30.902344 97.152344 30.914062 97.269531 30.921875 97.378906 L 30.921875 97.382812 C 31.664062 105.238281 34.058594 112.613281 37.769531 119.148438 L 37.816406 119.222656 L 37.855469 119.292969 L 37.882812 119.355469 L 37.921875 119.417969 L 37.960938 119.476562 C 38.976562 121.253906 40.101562 122.964844 41.308594 124.609375 C 44.882812 123.617188 49.039062 122.742188 53.652344 122.019531 C 50.769531 113.917969 49.019531 104.578125 48.78125 94.601562 Z M 139.964844 95.386719 L 139.972656 95.285156 L 139.984375 95.203125 L 139.984375 95.121094 L 139.992188 95.027344 L 139.992188 94.851562 L 140 94.773438 L 140 94.675781 L 140.011719 94.601562 L 121.960938 94.601562 C 121.722656 104.578125 119.972656 113.917969 117.089844 122.019531 C 121.703125 122.742188 125.859375 123.617188 129.433594 124.609375 C 130.644531 122.964844 131.765625 121.253906 132.78125 119.476562 L 132.820312 119.417969 L 132.859375 119.355469 L 132.886719 119.292969 L 132.933594 119.214844 L 132.972656 119.148438 C 136.683594 112.609375 139.078125 105.238281 139.820312 97.382812 L 139.820312 97.378906 C 139.832031 97.265625 139.839844 97.152344 139.851562 97.039062 L 139.859375 96.949219 L 139.867188 96.863281 L 139.867188 96.773438 L 139.878906 96.683594 L 139.886719 96.601562 L 139.898438 96.515625 L 139.898438 96.425781 L 139.90625 96.335938 L 139.917969 96.253906 L 139.917969 96.167969 L 139.925781 96.074219 L 139.933594 95.988281 L 139.933594 95.902344 L 139.945312 95.820312 L 139.945312 95.726562 L 139.953125 95.636719 L 139.953125 95.554688 L 139.964844 95.472656 Z M 84.050781 119.757812 L 84.050781 94.601562 L 53.539062 94.601562 C 53.785156 104.382812 55.546875 113.515625 58.445312 121.34375 C 66.132812 120.378906 74.824219 119.808594 84.050781 119.757812 Z M 117.203125 94.601562 L 88.804688 94.601562 L 88.804688 119.777344 C 97.25 119.898438 105.203125 120.453125 112.296875 121.34375 C 115.199219 113.515625 116.957031 104.382812 117.203125 94.601562 Z M 112.289062 63.078125 C 105.203125 63.96875 97.242188 64.523438 88.804688 64.640625 L 88.804688 89.847656 L 117.203125 89.847656 C 116.957031 80.054688 115.199219 70.914062 112.289062 63.078125 Z M 133.039062 65.421875 C 131.945312 63.476562 130.730469 61.605469 129.417969 59.816406 C 125.839844 60.808594 121.691406 61.683594 117.082031 62.402344 C 119.960938 70.511719 121.722656 79.855469 121.960938 89.847656 L 140.011719 89.847656 L 140 89.757812 L 140 89.667969 L 139.992188 89.574219 L 139.992188 89.488281 L 139.984375 89.40625 L 139.984375 89.324219 L 139.972656 89.222656 L 139.972656 89.140625 L 139.964844 89.058594 L 139.964844 88.976562 L 139.953125 88.878906 L 139.953125 88.792969 L 139.945312 88.710938 L 139.945312 88.628906 L 139.933594 88.53125 L 139.933594 88.445312 L 139.925781 88.363281 L 139.917969 88.277344 L 139.917969 88.1875 L 139.90625 88.097656 L 139.898438 88.015625 L 139.898438 87.933594 L 139.886719 87.84375 L 139.878906 87.753906 L 139.867188 87.671875 L 139.867188 87.585938 C 139.859375 87.558594 139.859375 87.527344 139.859375 87.5 L 139.851562 87.40625 L 139.839844 87.324219 L 139.832031 87.238281 C 139.832031 87.210938 139.832031 87.183594 139.832031 87.152344 L 139.820312 87.066406 L 139.8125 86.980469 L 139.800781 86.894531 C 139.800781 86.867188 139.792969 86.835938 139.792969 86.808594 L 139.78125 86.722656 C 139.03125 79.199219 136.75 72.121094 133.257812 65.804688 L 133.210938 65.726562 L 133.171875 65.660156 L 133.136719 65.59375 L 133.105469 65.53125 L 133.070312 65.46875 Z M 58.457031 63.078125 C 55.546875 70.914062 53.785156 80.054688 53.539062 89.847656 L 84.050781 89.847656 L 84.050781 64.664062 C 74.824219 64.613281 66.132812 64.046875 58.457031 63.078125 Z M 53.664062 62.402344 C 49.050781 61.683594 44.902344 60.808594 41.328125 59.816406 C 40.015625 61.605469 38.796875 63.476562 37.703125 65.421875 L 37.664062 65.492188 L 37.617188 65.5625 L 37.609375 65.59375 L 37.570312 65.664062 L 37.523438 65.738281 L 37.484375 65.804688 C 33.992188 72.121094 31.710938 79.199219 30.960938 86.722656 L 30.949219 86.808594 C 30.949219 86.835938 30.941406 86.867188 30.941406 86.894531 L 30.929688 86.980469 L 30.921875 87.070312 L 30.914062 87.152344 C 30.914062 87.183594 30.914062 87.210938 30.914062 87.238281 L 30.902344 87.328125 L 30.894531 87.417969 L 30.882812 87.5 C 30.882812 87.527344 30.882812 87.558594 30.875 87.585938 L 30.875 87.675781 L 30.863281 87.765625 L 30.855469 87.847656 L 30.84375 87.933594 L 30.84375 88.023438 L 30.835938 88.113281 L 30.828125 88.195312 L 30.828125 88.277344 L 30.816406 88.375 L 30.808594 88.460938 L 30.808594 88.542969 L 30.796875 88.628906 L 30.796875 88.722656 L 30.789062 88.8125 L 30.789062 88.894531 L 30.777344 88.976562 L 30.769531 89.074219 L 30.769531 89.160156 L 30.761719 89.242188 L 30.761719 89.324219 L 30.75 89.421875 L 30.75 89.59375 L 30.742188 89.675781 L 30.742188 89.773438 L 30.730469 89.847656 L 48.78125 89.847656 C 49.019531 79.859375 50.78125 70.511719 53.664062 62.402344 Z M 84.050781 37.582031 C 77.675781 38.039062 71.828125 41.773438 66.996094 47.679688 C 64.476562 50.753906 62.242188 54.410156 60.347656 58.523438 C 67.511719 59.371094 75.546875 59.859375 84.050781 59.90625 Z M 88.804688 37.855469 L 88.804688 59.886719 C 96.527344 59.777344 103.824219 59.300781 110.394531 58.523438 C 108.5 54.410156 106.265625 50.753906 103.746094 47.679688 C 99.457031 42.433594 94.359375 38.898438 88.804688 37.855469 Z M 67.015625 40.699219 C 58.332031 43.796875 50.65625 49.03125 44.617188 55.769531 C 47.839844 56.574219 51.476562 57.28125 55.441406 57.871094 C 57.636719 52.816406 60.300781 48.355469 63.316406 44.667969 C 64.496094 43.226562 65.730469 41.898438 67.015625 40.699219 Z M 103.726562 40.699219 C 105.011719 41.898438 106.246094 43.226562 107.425781 44.667969 C 110.441406 48.355469 113.105469 52.816406 115.300781 57.871094 C 119.269531 57.28125 122.902344 56.574219 126.125 55.769531 C 120.09375 49.03125 112.410156 43.796875 103.726562 40.699219 Z M 103.726562 40.699219 " fill-opacity="1" fill-rule="evenodd"/></g></svg>