<svg xmlns="http://www.w3.org/2000/svg" xmlns:xlink="http://www.w3.org/1999/xlink" width="616" zoomAndPan="magnify" viewBox="0 0 462 185.249993" height="247" preserveAspectRatio="xMidYMid meet" version="1.0"><defs><g/><clipPath id="ae9c216f42"><path d="M 25.289062 29.085938 L 151.527344 29.085938 L 151.527344 155.324219 L 25.289062 155.324219 Z M 25.289062 29.085938 " clip-rule="nonzero"/></clipPath></defs><g fill="#ffffff" fill-opacity="1"><g transform="translate(180.397752, 81.474068)"><g><path d="M 20.046875 0.765625 C 16.503906 0.765625 13.078125 0.285156 9.765625 -0.671875 C 6.460938 -1.628906 3.804688 -2.878906 1.796875 -4.421875 L 5.3125 -12.234375 C 7.238281 -10.828125 9.523438 -9.695312 12.171875 -8.84375 C 14.816406 -7.988281 17.460938 -7.5625 20.109375 -7.5625 C 23.054688 -7.5625 25.234375 -8 26.640625 -8.875 C 28.054688 -9.75 28.765625 -10.910156 28.765625 -12.359375 C 28.765625 -13.429688 28.347656 -14.316406 27.515625 -15.015625 C 26.679688 -15.722656 25.613281 -16.289062 24.3125 -16.71875 C 23.007812 -17.144531 21.25 -17.613281 19.03125 -18.125 C 15.613281 -18.9375 12.816406 -19.75 10.640625 -20.5625 C 8.460938 -21.375 6.59375 -22.675781 5.03125 -24.46875 C 3.46875 -26.257812 2.6875 -28.648438 2.6875 -31.640625 C 2.6875 -34.253906 3.390625 -36.613281 4.796875 -38.71875 C 6.210938 -40.832031 8.335938 -42.507812 11.171875 -43.75 C 14.015625 -44.988281 17.488281 -45.609375 21.59375 -45.609375 C 24.445312 -45.609375 27.238281 -45.265625 29.96875 -44.578125 C 32.707031 -43.898438 35.101562 -42.921875 37.15625 -41.640625 L 33.953125 -33.765625 C 29.804688 -36.109375 25.664062 -37.28125 21.53125 -37.28125 C 18.625 -37.28125 16.472656 -36.8125 15.078125 -35.875 C 13.691406 -34.9375 13 -33.695312 13 -32.15625 C 13 -30.625 13.800781 -29.484375 15.40625 -28.734375 C 17.007812 -27.984375 19.457031 -27.242188 22.75 -26.515625 C 26.164062 -25.710938 28.960938 -24.90625 31.140625 -24.09375 C 33.316406 -23.28125 35.179688 -22 36.734375 -20.25 C 38.296875 -18.5 39.078125 -16.128906 39.078125 -13.140625 C 39.078125 -10.578125 38.359375 -8.238281 36.921875 -6.125 C 35.492188 -4.007812 33.347656 -2.332031 30.484375 -1.09375 C 27.628906 0.144531 24.148438 0.765625 20.046875 0.765625 Z M 20.046875 0.765625 "/></g></g></g><g fill="#ffffff" fill-opacity="1"><g transform="translate(221.26315, 81.474068)"><g><path d="M 18.515625 -34.984375 C 23.847656 -34.984375 27.945312 -33.710938 30.8125 -31.171875 C 33.675781 -28.628906 35.109375 -24.796875 35.109375 -19.671875 L 35.109375 0 L 25.75 0 L 25.75 -4.296875 C 23.875 -1.085938 20.375 0.515625 15.25 0.515625 C 12.601562 0.515625 10.304688 0.0664062 8.359375 -0.828125 C 6.421875 -1.722656 4.9375 -2.960938 3.90625 -4.546875 C 2.882812 -6.128906 2.375 -7.925781 2.375 -9.9375 C 2.375 -13.132812 3.578125 -15.648438 5.984375 -17.484375 C 8.398438 -19.328125 12.128906 -20.25 17.171875 -20.25 L 25.109375 -20.25 C 25.109375 -22.425781 24.445312 -24.097656 23.125 -25.265625 C 21.800781 -26.441406 19.816406 -27.03125 17.171875 -27.03125 C 15.335938 -27.03125 13.53125 -26.742188 11.75 -26.171875 C 9.976562 -25.597656 8.472656 -24.816406 7.234375 -23.828125 L 3.65625 -30.8125 C 5.53125 -32.132812 7.78125 -33.160156 10.40625 -33.890625 C 13.03125 -34.617188 15.734375 -34.984375 18.515625 -34.984375 Z M 17.75 -6.21875 C 19.457031 -6.21875 20.972656 -6.609375 22.296875 -7.390625 C 23.617188 -8.179688 24.554688 -9.347656 25.109375 -10.890625 L 25.109375 -14.421875 L 18.265625 -14.421875 C 14.160156 -14.421875 12.109375 -13.070312 12.109375 -10.375 C 12.109375 -9.09375 12.609375 -8.078125 13.609375 -7.328125 C 14.617188 -6.585938 16 -6.21875 17.75 -6.21875 Z M 17.75 -6.21875 "/></g></g></g><g fill="#ffffff" fill-opacity="1"><g transform="translate(260.783446, 81.474068)"><g><path d="M 15.5625 -33.703125 L 24.40625 -33.703125 L 24.40625 -26.015625 L 15.828125 -26.015625 L 15.828125 0 L 5.828125 0 L 5.828125 -26.015625 L 0.515625 -26.015625 L 0.515625 -33.703125 L 5.828125 -33.703125 L 5.828125 -35.234375 C 5.828125 -39.160156 6.988281 -42.273438 9.3125 -44.578125 C 11.644531 -46.890625 14.925781 -48.046875 19.15625 -48.046875 C 20.644531 -48.046875 22.0625 -47.882812 23.40625 -47.5625 C 24.757812 -47.25 25.882812 -46.789062 26.78125 -46.1875 L 24.15625 -38.953125 C 23 -39.765625 21.648438 -40.171875 20.109375 -40.171875 C 17.078125 -40.171875 15.5625 -38.503906 15.5625 -35.171875 Z M 15.5625 -33.703125 "/></g></g></g><g fill="#ffffff" fill-opacity="1"><g transform="translate(285.571702, 81.474068)"><g><path d="M 18.515625 -34.984375 C 23.847656 -34.984375 27.945312 -33.710938 30.8125 -31.171875 C 33.675781 -28.628906 35.109375 -24.796875 35.109375 -19.671875 L 35.109375 0 L 25.75 0 L 25.75 -4.296875 C 23.875 -1.085938 20.375 0.515625 15.25 0.515625 C 12.601562 0.515625 10.304688 0.0664062 8.359375 -0.828125 C 6.421875 -1.722656 4.9375 -2.960938 3.90625 -4.546875 C 2.882812 -6.128906 2.375 -7.925781 2.375 -9.9375 C 2.375 -13.132812 3.578125 -15.648438 5.984375 -17.484375 C 8.398438 -19.328125 12.128906 -20.25 17.171875 -20.25 L 25.109375 -20.25 C 25.109375 -22.425781 24.445312 -24.097656 23.125 -25.265625 C 21.800781 -26.441406 19.816406 -27.03125 17.171875 -27.03125 C 15.335938 -27.03125 13.53125 -26.742188 11.75 -26.171875 C 9.976562 -25.597656 8.472656 -24.816406 7.234375 -23.828125 L 3.65625 -30.8125 C 5.53125 -32.132812 7.78125 -33.160156 10.40625 -33.890625 C 13.03125 -34.617188 15.734375 -34.984375 18.515625 -34.984375 Z M 17.75 -6.21875 C 19.457031 -6.21875 20.972656 -6.609375 22.296875 -7.390625 C 23.617188 -8.179688 24.554688 -9.347656 25.109375 -10.890625 L 25.109375 -14.421875 L 18.265625 -14.421875 C 14.160156 -14.421875 12.109375 -13.070312 12.109375 -10.375 C 12.109375 -9.09375 12.609375 -8.078125 13.609375 -7.328125 C 14.617188 -6.585938 16 -6.21875 17.75 -6.21875 Z M 17.75 -6.21875 "/></g></g></g><g fill="#ffffff" fill-opacity="1"><g transform="translate(325.091998, 81.474068)"><g><path d="M 14.15625 -29.921875 C 15.351562 -31.585938 16.960938 -32.847656 18.984375 -33.703125 C 21.015625 -34.554688 23.359375 -34.984375 26.015625 -34.984375 L 26.015625 -25.75 C 24.898438 -25.832031 24.148438 -25.875 23.765625 -25.875 C 20.898438 -25.875 18.65625 -25.070312 17.03125 -23.46875 C 15.414062 -21.875 14.609375 -19.472656 14.609375 -16.265625 L 14.609375 0 L 4.609375 0 L 4.609375 -34.46875 L 14.15625 -34.46875 Z M 14.15625 -29.921875 "/></g></g></g><g fill="#ffffff" fill-opacity="1"><g transform="translate(352.698563, 81.474068)"><g><path d="M 4.609375 -34.46875 L 14.609375 -34.46875 L 14.609375 0 L 4.609375 0 Z M 9.609375 -39.265625 C 7.773438 -39.265625 6.28125 -39.796875 5.125 -40.859375 C 3.96875 -41.929688 3.390625 -43.257812 3.390625 -44.84375 C 3.390625 -46.425781 3.96875 -47.75 5.125 -48.8125 C 6.28125 -49.882812 7.773438 -50.421875 9.609375 -50.421875 C 11.441406 -50.421875 12.9375 -49.90625 14.09375 -48.875 C 15.25 -47.851562 15.828125 -46.570312 15.828125 -45.03125 C 15.828125 -43.363281 15.25 -41.984375 14.09375 -40.890625 C 12.9375 -39.804688 11.441406 -39.265625 9.609375 -39.265625 Z M 9.609375 -39.265625 "/></g></g></g><g fill="#ffffff" fill-opacity="1"><g transform="translate(180.397752, 146.138685)"><g><path d="M 46.125 0 L 46.0625 -26.90625 L 32.859375 -4.734375 L 28.1875 -4.734375 L 15.0625 -26.328125 L 15.0625 0 L 5.3125 0 L 5.3125 -44.84375 L 13.90625 -44.84375 L 30.6875 -16.984375 L 47.21875 -44.84375 L 55.734375 -44.84375 L 55.859375 0 Z M 46.125 0 "/></g></g></g><g fill="#ffffff" fill-opacity="1"><g transform="translate(241.567748, 146.138685)"><g><path d="M 38.375 -17.109375 C 38.375 -16.972656 38.3125 -16.078125 38.1875 -14.421875 L 12.109375 -14.421875 C 12.578125 -12.285156 13.6875 -10.597656 15.4375 -9.359375 C 17.1875 -8.117188 19.363281 -7.5 21.96875 -7.5 C 23.769531 -7.5 25.363281 -7.765625 26.75 -8.296875 C 28.132812 -8.828125 29.425781 -9.671875 30.625 -10.828125 L 35.9375 -5.0625 C 32.695312 -1.34375 27.957031 0.515625 21.71875 0.515625 C 17.832031 0.515625 14.394531 -0.238281 11.40625 -1.75 C 8.414062 -3.269531 6.109375 -5.375 4.484375 -8.0625 C 2.859375 -10.757812 2.046875 -13.816406 2.046875 -17.234375 C 2.046875 -20.609375 2.847656 -23.648438 4.453125 -26.359375 C 6.054688 -29.078125 8.253906 -31.191406 11.046875 -32.703125 C 13.847656 -34.222656 16.976562 -34.984375 20.4375 -34.984375 C 23.8125 -34.984375 26.863281 -34.253906 29.59375 -32.796875 C 32.332031 -31.347656 34.476562 -29.265625 36.03125 -26.546875 C 37.59375 -23.835938 38.375 -20.691406 38.375 -17.109375 Z M 20.5 -27.421875 C 18.238281 -27.421875 16.335938 -26.78125 14.796875 -25.5 C 13.265625 -24.21875 12.328125 -22.46875 11.984375 -20.25 L 28.953125 -20.25 C 28.609375 -22.425781 27.664062 -24.164062 26.125 -25.46875 C 24.59375 -26.769531 22.71875 -27.421875 20.5 -27.421875 Z M 20.5 -27.421875 "/></g></g></g><g fill="#ffffff" fill-opacity="1"><g transform="translate(281.984778, 146.138685)"><g><path d="M 39.71875 -47.53125 L 39.71875 0 L 30.171875 0 L 30.171875 -3.96875 C 27.691406 -0.976562 24.101562 0.515625 19.40625 0.515625 C 16.164062 0.515625 13.226562 -0.207031 10.59375 -1.65625 C 7.96875 -3.113281 5.90625 -5.1875 4.40625 -7.875 C 2.914062 -10.570312 2.171875 -13.691406 2.171875 -17.234375 C 2.171875 -20.773438 2.914062 -23.890625 4.40625 -26.578125 C 5.90625 -29.273438 7.96875 -31.347656 10.59375 -32.796875 C 13.226562 -34.253906 16.164062 -34.984375 19.40625 -34.984375 C 23.8125 -34.984375 27.25 -33.59375 29.71875 -30.8125 L 29.71875 -47.53125 Z M 21.140625 -7.6875 C 23.660156 -7.6875 25.753906 -8.550781 27.421875 -10.28125 C 29.085938 -12.007812 29.921875 -14.328125 29.921875 -17.234375 C 29.921875 -20.140625 29.085938 -22.457031 27.421875 -24.1875 C 25.753906 -25.914062 23.660156 -26.78125 21.140625 -26.78125 C 18.578125 -26.78125 16.460938 -25.914062 14.796875 -24.1875 C 13.128906 -22.457031 12.296875 -20.140625 12.296875 -17.234375 C 12.296875 -14.328125 13.128906 -12.007812 14.796875 -10.28125 C 16.460938 -8.550781 18.578125 -7.6875 21.140625 -7.6875 Z M 21.140625 -7.6875 "/></g></g></g><g fill="#ffffff" fill-opacity="1"><g transform="translate(326.309006, 146.138685)"><g><path d="M 4.609375 -34.46875 L 14.609375 -34.46875 L 14.609375 0 L 4.609375 0 Z M 9.609375 -39.265625 C 7.773438 -39.265625 6.28125 -39.796875 5.125 -40.859375 C 3.96875 -41.929688 3.390625 -43.257812 3.390625 -44.84375 C 3.390625 -46.425781 3.96875 -47.75 5.125 -48.8125 C 6.28125 -49.882812 7.773438 -50.421875 9.609375 -50.421875 C 11.441406 -50.421875 12.9375 -49.90625 14.09375 -48.875 C 15.25 -47.851562 15.828125 -46.570312 15.828125 -45.03125 C 15.828125 -43.363281 15.25 -41.984375 14.09375 -40.890625 C 12.9375 -39.804688 11.441406 -39.265625 9.609375 -39.265625 Z M 9.609375 -39.265625 "/></g></g></g><g fill="#ffffff" fill-opacity="1"><g transform="translate(345.588763, 146.138685)"><g><path d="M 18.515625 -34.984375 C 23.847656 -34.984375 27.945312 -33.710938 30.8125 -31.171875 C 33.675781 -28.628906 35.109375 -24.796875 35.109375 -19.671875 L 35.109375 0 L 25.75 0 L 25.75 -4.296875 C 23.875 -1.085938 20.375 0.515625 15.25 0.515625 C 12.601562 0.515625 10.304688 0.0664062 8.359375 -0.828125 C 6.421875 -1.722656 4.9375 -2.960938 3.90625 -4.546875 C 2.882812 -6.128906 2.375 -7.925781 2.375 -9.9375 C 2.375 -13.132812 3.578125 -15.648438 5.984375 -17.484375 C 8.398438 -19.328125 12.128906 -20.25 17.171875 -20.25 L 25.109375 -20.25 C 25.109375 -22.425781 24.445312 -24.097656 23.125 -25.265625 C 21.800781 -26.441406 19.816406 -27.03125 17.171875 -27.03125 C 15.335938 -27.03125 13.53125 -26.742188 11.75 -26.171875 C 9.976562 -25.597656 8.472656 -24.816406 7.234375 -23.828125 L 3.65625 -30.8125 C 5.53125 -32.132812 7.78125 -33.160156 10.40625 -33.890625 C 13.03125 -34.617188 15.734375 -34.984375 18.515625 -34.984375 Z M 17.75 -6.21875 C 19.457031 -6.21875 20.972656 -6.609375 22.296875 -7.390625 C 23.617188 -8.179688 24.554688 -9.347656 25.109375 -10.890625 L 25.109375 -14.421875 L 18.265625 -14.421875 C 14.160156 -14.421875 12.109375 -13.070312 12.109375 -10.375 C 12.109375 -9.09375 12.609375 -8.078125 13.609375 -7.328125 C 14.617188 -6.585938 16 -6.21875 17.75 -6.21875 Z M 17.75 -6.21875 "/></g></g></g><g clip-path="url(#ae9c216f42)"><path fill="#ffffff" d="M 88.414062 155.382812 L 87.980469 155.382812 L 87.855469 155.378906 L 87.664062 155.378906 L 87.5625 155.375 L 87.464844 155.375 L 87.363281 155.371094 L 87.160156 155.371094 L 87.058594 155.367188 L 87 155.367188 C 86.9375 155.363281 86.878906 155.363281 86.816406 155.363281 L 86.796875 155.359375 C 86.726562 155.359375 86.664062 155.359375 86.59375 155.355469 C 67.171875 154.785156 49.941406 145.429688 38.742188 131.128906 C 38.734375 131.121094 38.722656 131.109375 38.722656 131.101562 C 32.234375 122.820312 27.78125 112.882812 26.082031 102.035156 L 26.082031 102.03125 C 26.0625 101.867188 26.03125 101.707031 26.011719 101.546875 L 26 101.496094 L 25.992188 101.441406 C 25.96875 101.3125 25.960938 101.183594 25.941406 101.054688 L 25.929688 101 L 25.917969 100.914062 L 25.910156 100.851562 C 25.898438 100.753906 25.878906 100.660156 25.871094 100.5625 L 25.859375 100.5 L 25.847656 100.417969 L 25.839844 100.335938 L 25.828125 100.261719 C 25.820312 100.199219 25.820312 100.132812 25.808594 100.070312 L 25.796875 100.003906 L 25.789062 99.921875 L 25.777344 99.835938 L 25.769531 99.765625 C 25.757812 99.703125 25.757812 99.636719 25.75 99.574219 L 25.738281 99.503906 L 25.726562 99.417969 L 25.71875 99.335938 L 25.707031 99.265625 C 25.707031 99.203125 25.699219 99.140625 25.699219 99.078125 L 25.675781 98.976562 L 25.667969 98.875 L 25.65625 98.75 L 25.648438 98.675781 L 25.636719 98.578125 L 25.625 98.476562 L 25.617188 98.378906 L 25.605469 98.25 L 25.597656 98.175781 L 25.597656 98.070312 L 25.585938 97.980469 L 25.578125 97.878906 L 25.566406 97.78125 L 25.554688 97.664062 L 25.546875 97.578125 L 25.535156 97.480469 L 25.535156 97.378906 L 25.527344 97.28125 L 25.515625 97.15625 L 25.503906 97.078125 L 25.496094 96.980469 L 25.496094 96.878906 L 25.484375 96.777344 L 25.476562 96.652344 L 25.476562 96.570312 L 25.464844 96.476562 L 25.453125 96.378906 L 25.453125 96.277344 L 25.445312 96.175781 L 25.433594 96.058594 L 25.433594 95.96875 L 25.425781 95.875 L 25.425781 95.773438 L 25.414062 95.671875 L 25.414062 95.550781 L 25.40625 95.46875 L 25.40625 95.371094 L 25.394531 95.269531 L 25.394531 95.167969 L 25.382812 95.042969 L 25.382812 94.960938 L 25.375 94.867188 L 25.375 94.664062 L 25.363281 94.5625 L 25.363281 94.347656 L 25.355469 94.257812 L 25.355469 94.054688 L 25.34375 93.9375 L 25.34375 93.648438 L 25.332031 93.546875 L 25.332031 93.039062 L 25.324219 92.910156 L 25.324219 92.316406 C 25.324219 92.289062 25.324219 92.253906 25.324219 92.222656 L 25.324219 91.507812 L 25.332031 91.40625 L 25.332031 90.898438 L 25.34375 90.796875 L 25.34375 90.492188 L 25.355469 90.390625 L 25.355469 90.167969 L 25.363281 90.085938 L 25.363281 89.882812 L 25.375 89.78125 L 25.375 89.574219 L 25.382812 89.480469 L 25.382812 89.378906 L 25.394531 89.277344 L 25.394531 89.175781 L 25.40625 89.070312 L 25.40625 88.960938 L 25.414062 88.875 L 25.414062 88.773438 L 25.425781 88.671875 L 25.425781 88.550781 L 25.433594 88.46875 L 25.445312 88.371094 L 25.445312 88.269531 L 25.453125 88.167969 L 25.453125 88.042969 L 25.464844 87.964844 L 25.476562 87.867188 L 25.476562 87.765625 L 25.484375 87.667969 L 25.496094 87.566406 L 25.496094 87.460938 L 25.503906 87.367188 L 25.527344 87.164062 L 25.535156 87.066406 L 25.535156 86.949219 L 25.546875 86.863281 L 25.554688 86.765625 L 25.566406 86.664062 L 25.578125 86.566406 L 25.585938 86.441406 L 25.597656 86.363281 L 25.605469 86.265625 L 25.605469 86.167969 L 25.617188 86.066406 L 25.636719 85.941406 L 25.636719 85.863281 L 25.648438 85.757812 L 25.65625 85.667969 L 25.667969 85.570312 L 25.675781 85.46875 L 25.699219 85.355469 L 25.707031 85.273438 L 25.71875 85.171875 L 25.726562 85.074219 L 25.738281 84.976562 L 25.75 84.855469 L 25.757812 84.773438 L 25.769531 84.675781 L 25.777344 84.578125 L 25.796875 84.480469 L 25.808594 84.351562 L 25.820312 84.277344 L 25.828125 84.179688 L 25.847656 84.085938 L 25.859375 83.984375 L 25.878906 83.855469 L 25.878906 83.785156 C 25.890625 83.722656 25.898438 83.65625 25.910156 83.59375 L 25.917969 83.492188 L 25.941406 83.359375 L 25.949219 83.289062 C 25.960938 83.226562 25.96875 83.164062 25.980469 83.101562 L 25.992188 82.988281 L 26.011719 82.863281 L 26.019531 82.78125 L 26.042969 82.707031 C 26.042969 82.644531 26.0625 82.578125 26.070312 82.515625 L 26.082031 82.449219 L 26.089844 82.367188 L 26.101562 82.285156 L 26.113281 82.21875 C 26.121094 82.152344 26.132812 82.085938 26.140625 82.023438 L 26.152344 81.957031 L 26.171875 81.875 L 26.183594 81.792969 L 26.191406 81.730469 C 26.210938 81.632812 26.222656 81.535156 26.242188 81.4375 L 26.253906 81.382812 L 26.261719 81.300781 L 26.273438 81.242188 C 26.292969 81.113281 26.324219 80.984375 26.34375 80.855469 C 28.214844 70.597656 32.558594 61.207031 38.734375 53.320312 C 38.742188 53.3125 38.753906 53.300781 38.765625 53.289062 C 50.324219 38.542969 68.304688 29.0625 88.484375 29.0625 C 108.664062 29.0625 126.644531 38.542969 138.203125 53.289062 C 138.214844 53.300781 138.222656 53.3125 138.234375 53.320312 C 144.410156 61.207031 148.753906 70.597656 150.625 80.855469 C 150.644531 80.984375 150.675781 81.113281 150.695312 81.242188 L 150.703125 81.300781 L 150.722656 81.4375 C 150.746094 81.535156 150.753906 81.632812 150.773438 81.730469 L 150.785156 81.792969 L 150.796875 81.875 L 150.816406 81.957031 L 150.824219 82.023438 C 150.835938 82.085938 150.847656 82.152344 150.855469 82.21875 L 150.867188 82.285156 L 150.875 82.367188 L 150.894531 82.449219 L 150.90625 82.515625 C 150.917969 82.578125 150.917969 82.640625 150.925781 82.707031 L 150.945312 82.816406 L 150.96875 82.945312 L 150.976562 83.027344 L 150.988281 83.101562 C 150.996094 83.164062 151.007812 83.226562 151.019531 83.289062 L 151.027344 83.359375 L 151.039062 83.441406 L 151.046875 83.523438 L 151.058594 83.59375 C 151.066406 83.65625 151.078125 83.722656 151.089844 83.785156 L 151.097656 83.886719 L 151.117188 84.019531 L 151.128906 84.105469 L 151.140625 84.183594 L 151.148438 84.28125 L 151.160156 84.378906 L 151.167969 84.480469 L 151.191406 84.601562 L 151.199219 84.679688 L 151.210938 84.789062 L 151.21875 84.875 L 151.230469 84.976562 L 151.25 85.101562 L 151.261719 85.179688 L 151.269531 85.273438 L 151.28125 85.371094 L 151.289062 85.46875 L 151.300781 85.570312 L 151.3125 85.6875 L 151.320312 85.769531 L 151.332031 85.867188 L 151.339844 85.96875 L 151.351562 86.066406 L 151.359375 86.191406 L 151.371094 86.269531 L 151.371094 86.367188 L 151.382812 86.464844 L 151.390625 86.566406 L 151.402344 86.664062 L 151.410156 86.773438 L 151.421875 86.867188 L 151.433594 86.964844 L 151.433594 87.066406 L 151.441406 87.164062 L 151.453125 87.285156 L 151.460938 87.367188 L 151.472656 87.464844 L 151.472656 87.566406 L 151.484375 87.667969 L 151.492188 87.789062 L 151.492188 87.871094 L 151.503906 87.96875 L 151.511719 88.066406 L 151.511719 88.167969 L 151.523438 88.269531 L 151.53125 88.375 L 151.53125 88.46875 L 151.542969 88.570312 L 151.542969 88.671875 L 151.554688 88.773438 L 151.554688 88.890625 L 151.5625 88.976562 L 151.5625 89.074219 L 151.574219 89.175781 L 151.574219 89.277344 L 151.582031 89.402344 L 151.582031 89.484375 L 151.59375 89.578125 L 151.59375 89.78125 L 151.605469 89.882812 L 151.605469 89.992188 L 151.613281 90.085938 L 151.613281 90.390625 L 151.625 90.507812 L 151.625 90.796875 L 151.632812 90.898438 L 151.632812 91.304688 L 151.644531 91.40625 L 151.644531 92.128906 C 151.644531 92.15625 151.644531 92.191406 151.644531 92.222656 L 151.644531 93.039062 L 151.632812 93.164062 L 151.632812 93.546875 L 151.625 93.648438 L 151.625 93.953125 L 151.613281 94.054688 L 151.613281 94.359375 L 151.605469 94.460938 L 151.605469 94.5625 L 151.59375 94.664062 L 151.59375 94.867188 L 151.582031 94.964844 L 151.582031 95.066406 L 151.574219 95.167969 L 151.574219 95.269531 L 151.5625 95.375 L 151.5625 95.46875 L 151.554688 95.570312 L 151.554688 95.671875 L 151.542969 95.773438 L 151.542969 95.890625 L 151.53125 95.976562 L 151.523438 96.074219 L 151.523438 96.175781 L 151.511719 96.277344 L 151.511719 96.398438 L 151.503906 96.480469 L 151.492188 96.578125 L 151.492188 96.679688 L 151.484375 96.777344 L 151.472656 96.90625 L 151.472656 96.984375 L 151.460938 97.078125 L 151.453125 97.179688 L 151.441406 97.28125 L 151.433594 97.378906 L 151.433594 97.484375 L 151.421875 97.585938 L 151.410156 97.679688 L 151.402344 97.78125 L 151.390625 97.878906 L 151.382812 97.996094 L 151.371094 98.078125 L 151.371094 98.179688 L 151.359375 98.277344 L 151.351562 98.378906 L 151.332031 98.5 L 151.332031 98.578125 L 151.320312 98.6875 L 151.3125 98.777344 L 151.300781 98.875 L 151.28125 99.003906 L 151.269531 99.078125 C 151.269531 99.140625 151.261719 99.203125 151.261719 99.265625 L 151.25 99.335938 L 151.238281 99.417969 L 151.230469 99.503906 L 151.21875 99.574219 C 151.210938 99.636719 151.210938 99.703125 151.199219 99.765625 L 151.191406 99.835938 L 151.179688 99.921875 L 151.167969 100.003906 L 151.160156 100.070312 C 151.148438 100.132812 151.148438 100.199219 151.140625 100.261719 L 151.117188 100.371094 L 151.109375 100.5 L 151.097656 100.5625 C 151.089844 100.660156 151.066406 100.757812 151.058594 100.851562 L 151.046875 100.914062 L 151.039062 101 L 151.027344 101.054688 C 151.019531 101.183594 150.996094 101.3125 150.976562 101.441406 L 150.96875 101.496094 L 150.957031 101.546875 C 150.9375 101.707031 150.90625 101.871094 150.886719 102.03125 L 150.886719 102.035156 C 149.1875 112.882812 144.730469 122.820312 138.253906 131.101562 C 138.242188 131.109375 138.234375 131.121094 138.222656 131.128906 C 127.015625 145.429688 109.785156 154.785156 90.375 155.355469 C 90.304688 155.355469 90.242188 155.359375 90.171875 155.359375 L 90.152344 155.363281 C 90.089844 155.363281 90.03125 155.363281 89.980469 155.367188 L 89.886719 155.367188 L 89.808594 155.371094 L 89.605469 155.371094 L 89.503906 155.375 L 89.394531 155.375 L 89.300781 155.378906 L 89.101562 155.378906 L 88.988281 155.382812 Z M 87.078125 126.53125 C 78.042969 126.582031 69.503906 127.101562 61.875 128 C 63.898438 132.382812 66.28125 136.277344 68.960938 139.550781 C 74.09375 145.828125 80.308594 149.796875 87.078125 150.28125 Z M 92.132812 126.554688 L 92.132812 149.988281 C 98.035156 148.882812 103.449219 145.128906 108.007812 139.550781 C 110.6875 136.277344 113.070312 132.382812 115.09375 128 C 108.097656 127.179688 100.335938 126.671875 92.132812 126.554688 Z M 120.296875 128.695312 C 117.960938 134.082031 115.132812 138.828125 111.917969 142.75 C 110.664062 144.285156 109.351562 145.695312 107.988281 146.972656 C 117.222656 143.675781 125.390625 138.101562 131.808594 130.933594 C 128.382812 130.078125 124.519531 129.324219 120.296875 128.695312 Z M 56.671875 128.695312 C 52.445312 129.328125 48.585938 130.078125 45.160156 130.933594 C 51.578125 138.105469 59.742188 143.675781 68.980469 146.972656 C 67.617188 145.695312 66.300781 144.285156 65.050781 142.75 C 61.835938 138.828125 59.003906 134.082031 56.671875 128.695312 Z M 49.609375 94.75 L 30.425781 94.75 L 30.4375 94.84375 L 30.4375 94.941406 L 30.445312 95.039062 L 30.445312 95.128906 L 30.457031 95.214844 L 30.457031 95.308594 L 30.46875 95.410156 L 30.46875 95.496094 L 30.476562 95.585938 L 30.476562 95.675781 L 30.488281 95.777344 L 30.488281 95.867188 L 30.496094 95.953125 L 30.496094 96.042969 L 30.507812 96.148438 L 30.507812 96.238281 L 30.519531 96.324219 L 30.527344 96.414062 L 30.527344 96.511719 L 30.539062 96.605469 L 30.546875 96.691406 L 30.546875 96.785156 L 30.558594 96.878906 L 30.566406 96.972656 L 30.578125 97.058594 L 30.578125 97.152344 L 30.589844 97.246094 L 30.597656 97.339844 C 30.609375 97.460938 30.617188 97.582031 30.628906 97.699219 L 30.628906 97.703125 C 31.417969 106.050781 33.964844 113.886719 37.90625 120.828125 L 37.957031 120.910156 L 37.996094 120.984375 L 38.027344 121.050781 L 38.066406 121.117188 L 38.105469 121.179688 C 39.1875 123.066406 40.382812 124.886719 41.664062 126.632812 C 45.464844 125.578125 49.878906 124.648438 54.78125 123.878906 C 51.71875 115.273438 49.859375 105.351562 49.609375 94.75 Z M 146.492188 95.585938 L 146.5 95.476562 L 146.511719 95.390625 L 146.511719 95.304688 L 146.519531 95.199219 L 146.519531 95.015625 L 146.53125 94.929688 L 146.53125 94.828125 L 146.539062 94.75 L 127.359375 94.75 C 127.109375 105.351562 125.25 115.273438 122.1875 123.878906 C 127.085938 124.648438 131.503906 125.578125 135.304688 126.632812 C 136.585938 124.886719 137.777344 123.066406 138.859375 121.179688 L 138.902344 121.117188 L 138.941406 121.050781 L 138.972656 120.984375 L 139.023438 120.902344 L 139.0625 120.828125 C 143.003906 113.882812 145.550781 106.050781 146.339844 97.703125 L 146.339844 97.699219 C 146.347656 97.578125 146.359375 97.460938 146.367188 97.339844 L 146.378906 97.242188 L 146.390625 97.152344 L 146.390625 97.058594 L 146.398438 96.960938 L 146.410156 96.875 L 146.417969 96.785156 L 146.417969 96.6875 L 146.429688 96.589844 L 146.441406 96.503906 L 146.441406 96.414062 L 146.449219 96.316406 L 146.460938 96.21875 L 146.460938 96.132812 L 146.46875 96.042969 L 146.46875 95.945312 L 146.480469 95.847656 L 146.480469 95.761719 L 146.492188 95.675781 Z M 87.078125 121.480469 L 87.078125 94.75 L 54.660156 94.75 C 54.921875 105.144531 56.792969 114.847656 59.875 123.164062 C 68.039062 122.136719 77.277344 121.53125 87.078125 121.480469 Z M 122.308594 94.75 L 92.132812 94.75 L 92.132812 121.5 C 101.105469 121.628906 109.554688 122.214844 117.09375 123.164062 C 120.175781 114.847656 122.042969 105.144531 122.308594 94.75 Z M 117.082031 61.253906 C 109.554688 62.203125 101.097656 62.789062 92.132812 62.914062 L 92.132812 89.695312 L 122.308594 89.695312 C 122.042969 79.289062 120.175781 69.578125 117.082031 61.253906 Z M 139.132812 63.742188 C 137.972656 61.675781 136.675781 59.6875 135.28125 57.789062 C 131.484375 58.84375 127.078125 59.769531 122.175781 60.539062 C 125.238281 69.152344 127.109375 79.082031 127.359375 89.695312 L 146.539062 89.695312 L 146.53125 89.601562 L 146.53125 89.503906 L 146.519531 89.40625 L 146.519531 89.316406 L 146.511719 89.230469 L 146.511719 89.140625 L 146.5 89.035156 L 146.5 88.945312 L 146.492188 88.859375 L 146.492188 88.769531 L 146.480469 88.667969 L 146.480469 88.574219 L 146.46875 88.488281 L 146.46875 88.402344 L 146.460938 88.296875 L 146.460938 88.207031 L 146.449219 88.121094 L 146.441406 88.03125 L 146.441406 87.933594 L 146.429688 87.839844 L 146.417969 87.75 L 146.417969 87.660156 L 146.410156 87.566406 L 146.398438 87.472656 L 146.390625 87.382812 L 146.390625 87.292969 C 146.378906 87.265625 146.378906 87.234375 146.378906 87.203125 L 146.367188 87.105469 L 146.359375 87.015625 L 146.347656 86.925781 C 146.347656 86.894531 146.347656 86.867188 146.347656 86.835938 L 146.339844 86.742188 L 146.328125 86.652344 L 146.320312 86.558594 C 146.320312 86.527344 146.308594 86.5 146.308594 86.46875 L 146.296875 86.375 C 145.5 78.382812 143.074219 70.863281 139.367188 64.152344 L 139.316406 64.066406 L 139.273438 63.996094 L 139.234375 63.925781 L 139.203125 63.859375 L 139.164062 63.796875 Z M 59.886719 61.253906 C 56.792969 69.578125 54.921875 79.292969 54.660156 89.695312 L 87.078125 89.695312 L 87.078125 62.9375 C 77.277344 62.886719 68.039062 62.28125 59.886719 61.253906 Z M 54.792969 60.539062 C 49.890625 59.769531 45.484375 58.84375 41.683594 57.789062 C 40.289062 59.6875 38.996094 61.675781 37.835938 63.742188 L 37.792969 63.820312 L 37.742188 63.894531 L 37.734375 63.925781 L 37.691406 64 L 37.640625 64.082031 L 37.601562 64.152344 C 33.894531 70.863281 31.46875 78.382812 30.667969 86.375 L 30.660156 86.46875 C 30.660156 86.5 30.648438 86.527344 30.648438 86.558594 L 30.640625 86.652344 L 30.628906 86.746094 L 30.617188 86.835938 C 30.617188 86.867188 30.617188 86.894531 30.617188 86.925781 L 30.609375 87.019531 L 30.597656 87.113281 L 30.589844 87.203125 C 30.589844 87.234375 30.589844 87.265625 30.578125 87.292969 L 30.578125 87.390625 L 30.566406 87.484375 L 30.558594 87.570312 L 30.546875 87.660156 L 30.546875 87.761719 L 30.539062 87.855469 L 30.527344 87.941406 L 30.527344 88.03125 L 30.519531 88.132812 L 30.507812 88.226562 L 30.507812 88.3125 L 30.496094 88.402344 L 30.496094 88.503906 L 30.488281 88.597656 L 30.488281 88.683594 L 30.476562 88.769531 L 30.46875 88.875 L 30.46875 88.96875 L 30.457031 89.054688 L 30.457031 89.140625 L 30.445312 89.246094 L 30.445312 89.429688 L 30.4375 89.515625 L 30.4375 89.617188 L 30.425781 89.695312 L 49.609375 89.695312 C 49.859375 79.085938 51.730469 69.152344 54.792969 60.539062 Z M 87.078125 34.164062 C 80.308594 34.648438 74.09375 38.617188 68.960938 44.894531 C 66.28125 48.160156 63.90625 52.042969 61.894531 56.417969 C 69.503906 57.3125 78.042969 57.835938 87.078125 57.882812 Z M 92.132812 34.457031 L 92.132812 57.863281 C 100.335938 57.746094 108.089844 57.238281 115.070312 56.417969 C 113.0625 52.042969 110.6875 48.160156 108.007812 44.894531 C 103.449219 39.316406 98.035156 35.5625 92.132812 34.457031 Z M 68.980469 37.472656 C 59.753906 40.765625 51.597656 46.328125 45.179688 53.488281 C 48.605469 54.339844 52.46875 55.09375 56.679688 55.722656 C 59.015625 50.347656 61.84375 45.609375 65.050781 41.695312 C 66.300781 40.160156 67.617188 38.75 68.980469 37.472656 Z M 107.988281 37.472656 C 109.351562 38.75 110.664062 40.160156 111.917969 41.695312 C 115.121094 45.609375 117.953125 50.347656 120.285156 55.722656 C 124.5 55.09375 128.359375 54.339844 131.785156 53.488281 C 125.378906 46.328125 117.214844 40.765625 107.988281 37.472656 Z M 107.988281 37.472656 " fill-opacity="1" fill-rule="evenodd"/></g></svg>