<svg width="616" height="247" viewBox="0 0 616 247" fill="none" xmlns="http://www.w3.org/2000/svg">
<path fill-rule="evenodd" clip-rule="evenodd" d="M131.136 46.8951H131.184L204.148 89.1055C210.209 92.5951 215.267 97.5189 218.751 103.59C222.234 109.709 224 116.497 224 123.524C224 130.551 222.282 137.339 218.751 143.458C215.219 149.529 210.209 154.405 204.148 157.895L203.48 158.325H203.432L131.852 199.722L59.5552 241.55C53.4469 245.088 46.7183 247 39.7034 247C32.9271 247 26.4371 245.231 20.5675 241.933H20.5198L19.8517 241.55C13.7912 238.061 8.78057 233.137 5.24926 227.066C1.76566 220.995 0 214.159 0 207.132V204.216H0.0477089V126.44H0V39.868C0 32.8409 1.71794 26.005 5.24926 19.934C8.73285 13.863 13.7912 8.98704 19.8517 5.4496C25.9122 1.95995 32.6885 0 39.7034 0C46.7183 0 53.4947 1.95995 59.5552 5.4496L131.136 46.8951ZM23.5739 126.44V204.216V207.18C23.5739 210 24.1943 212.821 25.6259 215.259L26.0077 215.928C27.4393 218.127 29.3958 219.848 31.6387 221.138C34.0724 222.572 36.8402 223.385 39.6557 223.385C42.519 223.385 45.239 222.572 47.7205 221.138L120.685 178.928H120.733L192.361 137.53C194.604 136.192 196.561 134.471 197.945 132.272L198.326 131.603C199.758 129.165 200.378 126.344 200.378 123.524C200.378 120.656 199.758 117.835 198.326 115.397C197.038 113.151 195.177 111.334 193.029 109.948L120.017 67.7374L48.4363 26.2919H48.3885L47.7205 25.9094C45.239 24.4753 42.519 23.6627 39.6557 23.6627C36.8402 23.6627 34.0724 24.4753 31.6387 25.9094L30.9706 26.2919C28.7754 27.6781 26.9143 29.4947 25.6259 31.7892C24.1943 34.2272 23.5739 37.0476 23.5739 39.868V126.44ZM92.196 128.065C104.508 128.065 115.531 120.512 119.969 109.039L120.685 107.175H144.975L144.116 110.808C138.342 134.758 116.867 151.728 92.196 151.728C67.5722 151.728 46.0503 134.758 40.3238 110.808L39.4171 107.175H63.7069L64.4704 109.039C68.9084 120.512 79.9318 128.065 92.196 128.065Z" fill="url(#paint0_linear_8_265)"/>
<path d="M277.129 176V122.748H267.245V104.899H277.129V98.5558C277.129 92.0652 278.21 86.4597 280.374 81.7393C282.636 77.0189 285.783 73.3802 289.815 70.8234C293.945 68.1681 298.715 66.8405 304.123 66.8405C307.467 66.8405 310.811 67.2339 314.154 68.0206C317.498 68.8073 320.891 69.9383 324.333 71.4134L320.055 89.1149C318.58 88.4266 316.859 87.8857 314.892 87.4923C312.925 87.0006 311.106 86.7547 309.434 86.7547C306.582 86.7547 304.419 87.689 302.943 89.5575C301.468 91.3276 300.731 94.032 300.731 97.6707V104.899H318.727V122.748H300.731V176H277.129ZM397.612 176H374.01V132.484C374.01 127.468 372.977 123.78 370.912 121.42C368.945 119.06 366.29 117.88 362.947 117.88C361.176 117.88 359.16 118.47 356.899 119.65C354.735 120.732 352.719 122.305 350.85 124.371C348.982 126.436 347.556 128.845 346.573 131.599V176H322.971V68.3156H346.573V111.537C349.425 106.915 353.162 103.375 357.784 100.916C362.504 98.3591 367.667 97.0806 373.272 97.0806C378.583 97.0806 382.812 97.9657 385.959 99.7359C389.204 101.506 391.662 103.866 393.334 106.816C395.006 109.668 396.137 112.815 396.727 116.257C397.317 119.699 397.612 123.092 397.612 126.436V176ZM529.828 176H506.226V132.484C506.226 127.468 505.292 123.78 503.424 121.42C501.555 119.06 499.146 117.88 496.196 117.88C493.049 117.88 489.951 119.158 486.902 121.715C483.854 124.272 481.69 127.567 480.412 131.599V176H456.81V132.484C456.81 127.37 455.875 123.682 454.007 121.42C452.138 119.06 449.729 117.88 446.779 117.88C443.73 117.88 440.682 119.158 437.633 121.715C434.584 124.272 432.372 127.567 430.995 131.599V176H407.393V98.5558H428.635V111.537C431.487 106.915 435.322 103.375 440.141 100.916C445.058 98.3591 450.762 97.0806 457.252 97.0806C463.644 97.0806 468.561 98.6049 472.003 101.654C475.445 104.604 477.658 108.095 478.642 112.127C481.592 107.308 485.476 103.62 490.295 101.063C495.212 98.4083 500.719 97.0806 506.816 97.0806C511.734 97.0806 515.716 98.0149 518.765 99.8834C521.814 101.654 524.125 104.014 525.698 106.964C527.272 109.914 528.353 113.11 528.943 116.552C529.533 119.896 529.828 123.19 529.828 126.436V176ZM576.379 177.475C569.79 177.475 563.939 176.393 558.825 174.23C553.711 172.066 549.335 169.116 545.696 165.379C542.156 161.642 539.452 157.364 537.583 152.545C535.715 147.727 534.781 142.613 534.781 137.204C534.781 130.124 536.403 123.535 539.648 117.437C542.992 111.34 547.762 106.423 553.957 102.686C560.153 98.9491 567.627 97.0806 576.379 97.0806C585.23 97.0806 592.704 98.9983 598.801 102.834C604.997 106.571 609.619 111.488 612.667 117.585L589.655 124.518C588.18 122.158 586.262 120.338 583.902 119.06C581.64 117.782 579.084 117.142 576.232 117.142C572.986 117.142 570.036 117.978 567.381 119.65C564.824 121.322 562.759 123.633 561.185 126.583C559.71 129.533 558.973 133.074 558.973 137.204C558.973 141.236 559.759 144.776 561.333 147.825C562.906 150.874 564.971 153.283 567.528 155.053C570.085 156.725 572.986 157.561 576.232 157.561C578.198 157.561 580.018 157.266 581.69 156.676C583.46 155.987 585.033 155.053 586.41 153.873C587.885 152.693 589.016 151.365 589.803 149.89L612.815 156.971C610.946 160.905 608.242 164.445 604.702 167.592C601.26 170.64 597.178 173.05 592.458 174.82C587.738 176.59 582.378 177.475 576.379 177.475Z" fill="white"/>
<defs>
<linearGradient id="paint0_linear_8_265" x1="224.652" y1="0.00095606" x2="223.354" y2="247.014" gradientUnits="userSpaceOnUse">
<stop stop-color="#00A5FE"/>
<stop offset="1" stop-color="#0153F1"/>
</linearGradient>
</defs>
</svg>
