<svg xmlns="http://www.w3.org/2000/svg" xmlns:xlink="http://www.w3.org/1999/xlink" width="1080" zoomAndPan="magnify" viewBox="0 0 810 809.999993" height="1080" preserveAspectRatio="xMidYMid meet" version="1.0"><defs><g/><clipPath id="aeec9ef484"><path d="M 362.757812 510.566406 L 447.507812 510.566406 L 447.507812 595.316406 L 362.757812 595.316406 Z M 362.757812 510.566406 " clip-rule="nonzero"/></clipPath></defs><g fill="#0b3d2e" fill-opacity="1"><g transform="translate(31.493524, 348.15661)"><g><path d="M 54.28125 1.5625 C 45.007812 1.5625 36.628906 -0.445312 29.140625 -4.46875 C 21.660156 -8.5 15.773438 -14.082031 11.484375 -21.21875 C 7.203125 -28.363281 5.0625 -36.4375 5.0625 -45.4375 C 5.0625 -54.445312 7.203125 -62.519531 11.484375 -69.65625 C 15.773438 -76.800781 21.660156 -82.382812 29.140625 -86.40625 C 36.628906 -90.4375 45.050781 -92.453125 54.40625 -92.453125 C 62.28125 -92.453125 69.398438 -91.066406 75.765625 -88.296875 C 82.128906 -85.523438 87.472656 -81.539062 91.796875 -76.34375 L 78.296875 -63.890625 C 72.148438 -70.984375 64.53125 -74.53125 55.4375 -74.53125 C 49.8125 -74.53125 44.789062 -73.296875 40.375 -70.828125 C 35.96875 -68.359375 32.53125 -64.914062 30.0625 -60.5 C 27.59375 -56.09375 26.359375 -51.070312 26.359375 -45.4375 C 26.359375 -39.8125 27.59375 -34.789062 30.0625 -30.375 C 32.53125 -25.96875 35.96875 -22.53125 40.375 -20.0625 C 44.789062 -17.59375 49.8125 -16.359375 55.4375 -16.359375 C 64.53125 -16.359375 72.148438 -19.953125 78.296875 -27.140625 L 91.796875 -14.671875 C 87.472656 -9.390625 82.109375 -5.363281 75.703125 -2.59375 C 69.296875 0.175781 62.15625 1.5625 54.28125 1.5625 Z M 54.28125 1.5625 "/></g></g></g><g fill="#0b3d2e" fill-opacity="1"><g transform="translate(126.661829, 348.15661)"><g><path d="M 9.34375 -96.34375 L 29.609375 -96.34375 L 29.609375 0 L 9.34375 0 Z M 9.34375 -96.34375 "/></g></g></g><g fill="#0b3d2e" fill-opacity="1"><g transform="translate(165.741856, 348.15661)"><g><path d="M 42.59375 1.03125 C 35.226562 1.03125 28.625 -0.503906 22.78125 -3.578125 C 16.9375 -6.648438 12.367188 -10.910156 9.078125 -16.359375 C 5.796875 -21.816406 4.15625 -28.003906 4.15625 -34.921875 C 4.15625 -41.847656 5.796875 -48.035156 9.078125 -53.484375 C 12.367188 -58.941406 16.9375 -63.207031 22.78125 -66.28125 C 28.625 -69.351562 35.226562 -70.890625 42.59375 -70.890625 C 49.945312 -70.890625 56.523438 -69.351562 62.328125 -66.28125 C 68.128906 -63.207031 72.671875 -58.941406 75.953125 -53.484375 C 79.242188 -48.035156 80.890625 -41.847656 80.890625 -34.921875 C 80.890625 -28.003906 79.242188 -21.816406 75.953125 -16.359375 C 72.671875 -10.910156 68.128906 -6.648438 62.328125 -3.578125 C 56.523438 -0.503906 49.945312 1.03125 42.59375 1.03125 Z M 42.59375 -15.578125 C 47.78125 -15.578125 52.039062 -17.328125 55.375 -20.828125 C 58.707031 -24.335938 60.375 -29.035156 60.375 -34.921875 C 60.375 -40.804688 58.707031 -45.503906 55.375 -49.015625 C 52.039062 -52.523438 47.78125 -54.28125 42.59375 -54.28125 C 37.394531 -54.28125 33.109375 -52.523438 29.734375 -49.015625 C 26.359375 -45.503906 24.671875 -40.804688 24.671875 -34.921875 C 24.671875 -29.035156 26.359375 -24.335938 29.734375 -20.828125 C 33.109375 -17.328125 37.394531 -15.578125 42.59375 -15.578125 Z M 42.59375 -15.578125 "/></g></g></g><g fill="#0b3d2e" fill-opacity="1"><g transform="translate(250.78311, 348.15661)"><g><path d="M 79.71875 -69.859375 L 79.71875 0 L 60.5 0 L 60.5 -8.3125 C 57.820312 -5.28125 54.617188 -2.960938 50.890625 -1.359375 C 47.171875 0.234375 43.148438 1.03125 38.828125 1.03125 C 29.648438 1.03125 22.375 -1.601562 17 -6.875 C 11.632812 -12.15625 8.953125 -19.992188 8.953125 -30.390625 L 8.953125 -69.859375 L 29.21875 -69.859375 L 29.21875 -33.375 C 29.21875 -22.113281 33.9375 -16.484375 43.375 -16.484375 C 48.21875 -16.484375 52.109375 -18.0625 55.046875 -21.21875 C 57.992188 -24.382812 59.46875 -29.082031 59.46875 -35.3125 L 59.46875 -69.859375 Z M 79.71875 -69.859375 "/></g></g></g><g fill="#0b3d2e" fill-opacity="1"><g transform="translate(339.979045, 348.15661)"><g><path d="M 80.5 -96.34375 L 80.5 0 L 61.15625 0 L 61.15625 -8.046875 C 56.132812 -1.992188 48.863281 1.03125 39.34375 1.03125 C 32.757812 1.03125 26.804688 -0.4375 21.484375 -3.375 C 16.160156 -6.320312 11.984375 -10.519531 8.953125 -15.96875 C 5.929688 -21.425781 4.421875 -27.742188 4.421875 -34.921875 C 4.421875 -42.109375 5.929688 -48.425781 8.953125 -53.875 C 11.984375 -59.332031 16.160156 -63.53125 21.484375 -66.46875 C 26.804688 -69.414062 32.757812 -70.890625 39.34375 -70.890625 C 48.257812 -70.890625 55.226562 -68.078125 60.25 -62.453125 L 60.25 -96.34375 Z M 42.84375 -15.578125 C 47.957031 -15.578125 52.203125 -17.328125 55.578125 -20.828125 C 58.953125 -24.335938 60.640625 -29.035156 60.640625 -34.921875 C 60.640625 -40.804688 58.953125 -45.503906 55.578125 -49.015625 C 52.203125 -52.523438 47.957031 -54.28125 42.84375 -54.28125 C 37.65625 -54.28125 33.375 -52.523438 30 -49.015625 C 26.625 -45.503906 24.9375 -40.804688 24.9375 -34.921875 C 24.9375 -29.035156 26.625 -24.335938 30 -20.828125 C 33.375 -17.328125 37.65625 -15.578125 42.84375 -15.578125 Z M 42.84375 -15.578125 "/></g></g></g><g fill="#0b3d2e" fill-opacity="1"><g transform="translate(429.837445, 348.15661)"><g/></g></g><g fill="#0b3d2e" fill-opacity="1"><g transform="translate(31.493524, 478.430151)"><g><path d="M 70.640625 -19.46875 L 28.4375 -19.46875 L 20.390625 0 L -1.171875 0 L 39.34375 -90.890625 L 60.125 -90.890625 L 100.765625 0 L 78.6875 0 Z M 64.015625 -35.453125 L 49.59375 -70.25 L 35.1875 -35.453125 Z M 64.015625 -35.453125 "/></g></g></g><g fill="#0b3d2e" fill-opacity="1"><g transform="translate(130.946352, 478.430151)"><g><path d="M 28.703125 -60.640625 C 31.117188 -64.015625 34.382812 -66.566406 38.5 -68.296875 C 42.613281 -70.023438 47.351562 -70.890625 52.71875 -70.890625 L 52.71875 -52.203125 C 50.46875 -52.367188 48.953125 -52.453125 48.171875 -52.453125 C 42.367188 -52.453125 37.820312 -50.828125 34.53125 -47.578125 C 31.25 -44.335938 29.609375 -39.472656 29.609375 -32.984375 L 29.609375 0 L 9.34375 0 L 9.34375 -69.859375 L 28.703125 -69.859375 Z M 28.703125 -60.640625 "/></g></g></g><g fill="#0b3d2e" fill-opacity="1"><g transform="translate(186.904802, 478.430151)"><g><path d="M 50.640625 -70.890625 C 57.128906 -70.890625 63.035156 -69.394531 68.359375 -66.40625 C 73.679688 -63.425781 77.859375 -59.226562 80.890625 -53.8125 C 83.921875 -48.40625 85.4375 -42.109375 85.4375 -34.921875 C 85.4375 -27.742188 83.921875 -21.445312 80.890625 -16.03125 C 77.859375 -10.625 73.679688 -6.425781 68.359375 -3.4375 C 63.035156 -0.457031 57.128906 1.03125 50.640625 1.03125 C 41.023438 1.03125 33.710938 -1.992188 28.703125 -8.046875 L 28.703125 0 L 9.34375 0 L 9.34375 -96.34375 L 29.609375 -96.34375 L 29.609375 -62.453125 C 34.710938 -68.078125 41.722656 -70.890625 50.640625 -70.890625 Z M 47.140625 -15.578125 C 52.328125 -15.578125 56.585938 -17.328125 59.921875 -20.828125 C 63.253906 -24.335938 64.921875 -29.035156 64.921875 -34.921875 C 64.921875 -40.804688 63.253906 -45.503906 59.921875 -49.015625 C 56.585938 -52.523438 52.328125 -54.28125 47.140625 -54.28125 C 41.941406 -54.28125 37.675781 -52.523438 34.34375 -49.015625 C 31.007812 -45.503906 29.34375 -40.804688 29.34375 -34.921875 C 29.34375 -29.035156 31.007812 -24.335938 34.34375 -20.828125 C 37.675781 -17.328125 41.941406 -15.578125 47.140625 -15.578125 Z M 47.140625 -15.578125 "/></g></g></g><g fill="#0b3d2e" fill-opacity="1"><g transform="translate(276.490252, 478.430151)"><g><path d="M 9.34375 -69.859375 L 29.609375 -69.859375 L 29.609375 0 L 9.34375 0 Z M 19.46875 -79.59375 C 15.75 -79.59375 12.71875 -80.675781 10.375 -82.84375 C 8.039062 -85.007812 6.875 -87.691406 6.875 -90.890625 C 6.875 -94.085938 8.039062 -96.769531 10.375 -98.9375 C 12.71875 -101.101562 15.75 -102.1875 19.46875 -102.1875 C 23.1875 -102.1875 26.210938 -101.144531 28.546875 -99.0625 C 30.890625 -96.988281 32.0625 -94.394531 32.0625 -91.28125 C 32.0625 -87.90625 30.890625 -85.113281 28.546875 -82.90625 C 26.210938 -80.695312 23.1875 -79.59375 19.46875 -79.59375 Z M 19.46875 -79.59375 "/></g></g></g><g fill="#0b3d2e" fill-opacity="1"><g transform="translate(315.570279, 478.430151)"><g><path d="M 54.40625 -3.375 C 52.414062 -1.90625 49.96875 -0.800781 47.0625 -0.0625 C 44.164062 0.664062 41.117188 1.03125 37.921875 1.03125 C 29.609375 1.03125 23.175781 -1.085938 18.625 -5.328125 C 14.082031 -9.566406 11.8125 -15.796875 11.8125 -24.015625 L 11.8125 -52.71875 L 1.03125 -52.71875 L 1.03125 -68.296875 L 11.8125 -68.296875 L 11.8125 -85.3125 L 32.078125 -85.3125 L 32.078125 -68.296875 L 49.46875 -68.296875 L 49.46875 -52.71875 L 32.078125 -52.71875 L 32.078125 -24.28125 C 32.078125 -21.332031 32.832031 -19.054688 34.34375 -17.453125 C 35.851562 -15.859375 37.992188 -15.0625 40.765625 -15.0625 C 43.972656 -15.0625 46.703125 -15.925781 48.953125 -17.65625 Z M 54.40625 -3.375 "/></g></g></g><g fill="#0b3d2e" fill-opacity="1"><g transform="translate(372.048057, 478.430151)"><g><path d="M 28.703125 -60.640625 C 31.117188 -64.015625 34.382812 -66.566406 38.5 -68.296875 C 42.613281 -70.023438 47.351562 -70.890625 52.71875 -70.890625 L 52.71875 -52.203125 C 50.46875 -52.367188 48.953125 -52.453125 48.171875 -52.453125 C 42.367188 -52.453125 37.820312 -50.828125 34.53125 -47.578125 C 31.25 -44.335938 29.609375 -39.472656 29.609375 -32.984375 L 29.609375 0 L 9.34375 0 L 9.34375 -69.859375 L 28.703125 -69.859375 Z M 28.703125 -60.640625 "/></g></g></g><g fill="#0b3d2e" fill-opacity="1"><g transform="translate(428.006491, 478.430151)"><g><path d="M 37.53125 -70.890625 C 48.34375 -70.890625 56.648438 -68.3125 62.453125 -63.15625 C 68.253906 -58.007812 71.15625 -50.242188 71.15625 -39.859375 L 71.15625 0 L 52.203125 0 L 52.203125 -8.703125 C 48.390625 -2.210938 41.289062 1.03125 30.90625 1.03125 C 25.539062 1.03125 20.882812 0.125 16.9375 -1.6875 C 13 -3.507812 9.988281 -6.019531 7.90625 -9.21875 C 5.832031 -12.414062 4.796875 -16.050781 4.796875 -20.125 C 4.796875 -26.613281 7.238281 -31.71875 12.125 -35.4375 C 17.019531 -39.164062 24.578125 -41.03125 34.796875 -41.03125 L 50.90625 -41.03125 C 50.90625 -45.445312 49.5625 -48.84375 46.875 -51.21875 C 44.1875 -53.601562 40.160156 -54.796875 34.796875 -54.796875 C 31.078125 -54.796875 27.421875 -54.207031 23.828125 -53.03125 C 20.234375 -51.863281 17.179688 -50.285156 14.671875 -48.296875 L 7.40625 -62.453125 C 11.207031 -65.140625 15.769531 -67.21875 21.09375 -68.6875 C 26.414062 -70.15625 31.894531 -70.890625 37.53125 -70.890625 Z M 35.96875 -12.59375 C 39.425781 -12.59375 42.492188 -13.394531 45.171875 -15 C 47.859375 -16.601562 49.769531 -18.960938 50.90625 -22.078125 L 50.90625 -29.21875 L 37 -29.21875 C 28.695312 -29.21875 24.546875 -26.488281 24.546875 -21.03125 C 24.546875 -18.4375 25.5625 -16.378906 27.59375 -14.859375 C 29.625 -13.347656 32.414062 -12.59375 35.96875 -12.59375 Z M 35.96875 -12.59375 "/></g></g></g><g fill="#0b3d2e" fill-opacity="1"><g transform="translate(508.114065, 478.430151)"><g><path d="M 54.40625 -3.375 C 52.414062 -1.90625 49.96875 -0.800781 47.0625 -0.0625 C 44.164062 0.664062 41.117188 1.03125 37.921875 1.03125 C 29.609375 1.03125 23.175781 -1.085938 18.625 -5.328125 C 14.082031 -9.566406 11.8125 -15.796875 11.8125 -24.015625 L 11.8125 -52.71875 L 1.03125 -52.71875 L 1.03125 -68.296875 L 11.8125 -68.296875 L 11.8125 -85.3125 L 32.078125 -85.3125 L 32.078125 -68.296875 L 49.46875 -68.296875 L 49.46875 -52.71875 L 32.078125 -52.71875 L 32.078125 -24.28125 C 32.078125 -21.332031 32.832031 -19.054688 34.34375 -17.453125 C 35.851562 -15.859375 37.992188 -15.0625 40.765625 -15.0625 C 43.972656 -15.0625 46.703125 -15.925781 48.953125 -17.65625 Z M 54.40625 -3.375 "/></g></g></g><g fill="#0b3d2e" fill-opacity="1"><g transform="translate(564.591843, 478.430151)"><g><path d="M 9.34375 -69.859375 L 29.609375 -69.859375 L 29.609375 0 L 9.34375 0 Z M 19.46875 -79.59375 C 15.75 -79.59375 12.71875 -80.675781 10.375 -82.84375 C 8.039062 -85.007812 6.875 -87.691406 6.875 -90.890625 C 6.875 -94.085938 8.039062 -96.769531 10.375 -98.9375 C 12.71875 -101.101562 15.75 -102.1875 19.46875 -102.1875 C 23.1875 -102.1875 26.210938 -101.144531 28.546875 -99.0625 C 30.890625 -96.988281 32.0625 -94.394531 32.0625 -91.28125 C 32.0625 -87.90625 30.890625 -85.113281 28.546875 -82.90625 C 26.210938 -80.695312 23.1875 -79.59375 19.46875 -79.59375 Z M 19.46875 -79.59375 "/></g></g></g><g fill="#0b3d2e" fill-opacity="1"><g transform="translate(603.671838, 478.430151)"><g><path d="M 42.59375 1.03125 C 35.226562 1.03125 28.625 -0.503906 22.78125 -3.578125 C 16.9375 -6.648438 12.367188 -10.910156 9.078125 -16.359375 C 5.796875 -21.816406 4.15625 -28.003906 4.15625 -34.921875 C 4.15625 -41.847656 5.796875 -48.035156 9.078125 -53.484375 C 12.367188 -58.941406 16.9375 -63.207031 22.78125 -66.28125 C 28.625 -69.351562 35.226562 -70.890625 42.59375 -70.890625 C 49.945312 -70.890625 56.523438 -69.351562 62.328125 -66.28125 C 68.128906 -63.207031 72.671875 -58.941406 75.953125 -53.484375 C 79.242188 -48.035156 80.890625 -41.847656 80.890625 -34.921875 C 80.890625 -28.003906 79.242188 -21.816406 75.953125 -16.359375 C 72.671875 -10.910156 68.128906 -6.648438 62.328125 -3.578125 C 56.523438 -0.503906 49.945312 1.03125 42.59375 1.03125 Z M 42.59375 -15.578125 C 47.78125 -15.578125 52.039062 -17.328125 55.375 -20.828125 C 58.707031 -24.335938 60.375 -29.035156 60.375 -34.921875 C 60.375 -40.804688 58.707031 -45.503906 55.375 -49.015625 C 52.039062 -52.523438 47.78125 -54.28125 42.59375 -54.28125 C 37.394531 -54.28125 33.109375 -52.523438 29.734375 -49.015625 C 26.359375 -45.503906 24.671875 -40.804688 24.671875 -34.921875 C 24.671875 -29.035156 26.359375 -24.335938 29.734375 -20.828125 C 33.109375 -17.328125 37.394531 -15.578125 42.59375 -15.578125 Z M 42.59375 -15.578125 "/></g></g></g><g fill="#0b3d2e" fill-opacity="1"><g transform="translate(688.713108, 478.430151)"><g><path d="M 51.8125 -70.890625 C 60.46875 -70.890625 67.457031 -68.289062 72.78125 -63.09375 C 78.101562 -57.90625 80.765625 -50.203125 80.765625 -39.984375 L 80.765625 0 L 60.5 0 L 60.5 -36.875 C 60.5 -42.414062 59.285156 -46.546875 56.859375 -49.265625 C 54.441406 -51.992188 50.941406 -53.359375 46.359375 -53.359375 C 41.242188 -53.359375 37.171875 -51.78125 34.140625 -48.625 C 31.117188 -45.46875 29.609375 -40.769531 29.609375 -34.53125 L 29.609375 0 L 9.34375 0 L 9.34375 -69.859375 L 28.703125 -69.859375 L 28.703125 -61.671875 C 31.378906 -64.617188 34.707031 -66.890625 38.6875 -68.484375 C 42.675781 -70.085938 47.050781 -70.890625 51.8125 -70.890625 Z M 51.8125 -70.890625 "/></g></g></g><g clip-path="url(#aeec9ef484)"><path fill="#0b3d2e" d="M 404.976562 595.03125 L 404.601562 595.03125 L 404.542969 595.027344 L 404.339844 595.027344 L 404.273438 595.023438 L 404.136719 595.023438 L 404.070312 595.019531 L 404.027344 595.019531 C 403.988281 595.019531 403.949219 595.019531 403.90625 595.015625 L 403.894531 595.015625 C 403.847656 595.015625 403.804688 595.015625 403.757812 595.011719 C 390.769531 594.632812 379.246094 588.375 371.757812 578.8125 C 371.75 578.804688 371.742188 578.800781 371.742188 578.792969 C 367.40625 573.253906 364.425781 566.609375 363.289062 559.351562 C 363.277344 559.242188 363.253906 559.132812 363.242188 559.027344 L 363.226562 558.957031 C 363.214844 558.871094 363.207031 558.785156 363.195312 558.699219 L 363.1875 558.660156 L 363.179688 558.605469 L 363.175781 558.5625 C 363.167969 558.496094 363.152344 558.433594 363.148438 558.371094 L 363.140625 558.328125 L 363.125 558.21875 L 363.121094 558.167969 C 363.113281 558.125 363.113281 558.082031 363.105469 558.039062 L 363.101562 557.996094 L 363.09375 557.9375 L 363.085938 557.882812 L 363.078125 557.835938 C 363.074219 557.792969 363.074219 557.75 363.066406 557.707031 L 363.058594 557.660156 L 363.050781 557.605469 L 363.046875 557.550781 L 363.039062 557.5 C 363.039062 557.460938 363.03125 557.417969 363.03125 557.375 L 363.019531 557.308594 L 363.011719 557.242188 L 363.003906 557.15625 L 363 557.105469 L 362.976562 556.90625 L 362.972656 556.820312 L 362.964844 556.769531 L 362.964844 556.703125 L 362.957031 556.640625 L 362.953125 556.574219 L 362.945312 556.507812 L 362.9375 556.429688 L 362.929688 556.375 L 362.925781 556.308594 L 362.925781 556.238281 L 362.917969 556.171875 L 362.910156 556.089844 L 362.902344 556.039062 L 362.898438 555.972656 L 362.898438 555.90625 L 362.890625 555.839844 L 362.882812 555.753906 L 362.882812 555.699219 L 362.875 555.636719 L 362.871094 555.570312 L 362.871094 555.503906 L 362.863281 555.433594 L 362.855469 555.359375 L 362.855469 555.296875 L 362.851562 555.234375 L 362.851562 555.164062 L 362.84375 555.097656 L 362.84375 555.015625 L 362.835938 554.960938 L 362.835938 554.894531 L 362.828125 554.828125 L 362.828125 554.761719 L 362.824219 554.675781 L 362.824219 554.621094 L 362.816406 554.558594 L 362.816406 554.421875 L 362.808594 554.355469 L 362.808594 554.210938 L 362.800781 554.152344 L 362.800781 554.015625 L 362.796875 553.9375 L 362.796875 553.746094 L 362.789062 553.675781 L 362.789062 553.335938 L 362.78125 553.25 L 362.78125 552.855469 C 362.78125 552.835938 362.78125 552.8125 362.78125 552.792969 L 362.78125 552.3125 L 362.789062 552.246094 L 362.789062 551.90625 L 362.796875 551.835938 L 362.796875 551.632812 L 362.800781 551.566406 L 362.800781 551.417969 L 362.808594 551.359375 L 362.808594 551.226562 L 362.816406 551.160156 L 362.816406 551.019531 L 362.824219 550.957031 L 362.824219 550.890625 L 362.828125 550.820312 L 362.828125 550.753906 L 362.835938 550.683594 L 362.835938 550.609375 L 362.84375 550.550781 L 362.84375 550.484375 L 362.851562 550.417969 L 362.851562 550.335938 L 362.855469 550.28125 L 362.863281 550.214844 L 362.863281 550.148438 L 362.871094 550.082031 L 362.871094 549.996094 L 362.875 549.941406 L 362.882812 549.878906 L 362.882812 549.8125 L 362.890625 549.746094 L 362.898438 549.675781 L 362.898438 549.605469 L 362.902344 549.542969 L 362.925781 549.34375 L 362.925781 549.261719 L 362.929688 549.207031 L 362.953125 549.007812 L 362.957031 548.925781 L 362.964844 548.871094 L 362.972656 548.808594 L 362.972656 548.742188 L 362.976562 548.675781 L 362.992188 548.589844 L 362.992188 548.539062 L 363 548.464844 L 363.003906 548.410156 L 363.011719 548.34375 L 363.019531 548.273438 L 363.03125 548.199219 L 363.039062 548.144531 L 363.046875 548.078125 L 363.050781 548.011719 L 363.058594 547.945312 L 363.066406 547.863281 L 363.074219 547.808594 L 363.078125 547.746094 L 363.085938 547.679688 L 363.101562 547.613281 L 363.105469 547.527344 L 363.113281 547.476562 L 363.121094 547.414062 L 363.132812 547.347656 L 363.140625 547.28125 L 363.152344 547.195312 L 363.152344 547.148438 C 363.160156 547.105469 363.167969 547.0625 363.175781 547.023438 L 363.179688 546.953125 L 363.195312 546.863281 L 363.203125 546.816406 C 363.207031 546.773438 363.214844 546.730469 363.222656 546.691406 L 363.226562 546.617188 L 363.242188 546.53125 L 363.25 546.476562 L 363.261719 546.425781 C 363.261719 546.386719 363.277344 546.34375 363.28125 546.300781 L 363.289062 546.253906 L 363.296875 546.199219 L 363.300781 546.144531 L 363.308594 546.101562 C 363.316406 546.054688 363.324219 546.011719 363.328125 545.96875 L 363.335938 545.925781 L 363.351562 545.871094 L 363.355469 545.816406 L 363.363281 545.773438 C 363.378906 545.710938 363.382812 545.644531 363.398438 545.578125 L 363.402344 545.539062 L 363.410156 545.484375 L 363.417969 545.449219 C 363.429688 545.363281 363.453125 545.273438 363.464844 545.1875 C 364.714844 538.332031 367.621094 532.050781 371.75 526.773438 C 371.757812 526.769531 371.765625 526.761719 371.769531 526.753906 C 379.503906 516.890625 391.527344 510.550781 405.023438 510.550781 C 418.519531 510.550781 430.542969 516.890625 438.273438 526.753906 C 438.28125 526.761719 438.289062 526.769531 438.292969 526.773438 C 442.421875 532.050781 445.328125 538.332031 446.582031 545.1875 C 446.59375 545.273438 446.613281 545.359375 446.628906 545.449219 L 446.632812 545.484375 L 446.640625 545.539062 L 446.648438 545.578125 C 446.660156 545.644531 446.667969 545.707031 446.679688 545.773438 L 446.6875 545.816406 L 446.695312 545.871094 L 446.707031 545.925781 L 446.714844 545.96875 C 446.722656 546.011719 446.730469 546.054688 446.734375 546.101562 L 446.742188 546.144531 L 446.75 546.199219 L 446.761719 546.253906 L 446.769531 546.300781 C 446.777344 546.339844 446.777344 546.382812 446.78125 546.425781 L 446.796875 546.5 L 446.808594 546.585938 L 446.816406 546.640625 L 446.824219 546.691406 C 446.832031 546.734375 446.835938 546.777344 446.84375 546.816406 L 446.851562 546.863281 L 446.855469 546.917969 L 446.863281 546.972656 L 446.871094 547.023438 C 446.878906 547.0625 446.882812 547.105469 446.890625 547.148438 L 446.898438 547.214844 L 446.910156 547.304688 L 446.917969 547.363281 L 446.925781 547.414062 L 446.929688 547.480469 L 446.945312 547.613281 L 446.957031 547.695312 L 446.964844 547.746094 L 446.972656 547.820312 L 446.980469 547.878906 L 446.984375 547.945312 L 447 548.03125 L 447.007812 548.082031 L 447.011719 548.144531 L 447.019531 548.210938 L 447.027344 548.273438 L 447.03125 548.34375 L 447.039062 548.421875 L 447.046875 548.476562 L 447.054688 548.542969 L 447.058594 548.609375 L 447.066406 548.675781 L 447.074219 548.757812 L 447.082031 548.808594 L 447.082031 548.875 L 447.085938 548.941406 L 447.101562 549.074219 L 447.105469 549.144531 L 447.113281 549.207031 L 447.121094 549.277344 L 447.121094 549.34375 L 447.128906 549.410156 L 447.132812 549.488281 L 447.140625 549.542969 L 447.148438 549.609375 L 447.148438 549.675781 L 447.15625 549.746094 L 447.160156 549.828125 L 447.160156 549.882812 L 447.167969 549.945312 L 447.175781 550.011719 L 447.175781 550.082031 L 447.179688 550.148438 L 447.1875 550.21875 L 447.1875 550.28125 L 447.195312 550.347656 L 447.195312 550.417969 L 447.203125 550.484375 L 447.203125 550.5625 L 447.207031 550.621094 L 447.207031 550.6875 L 447.214844 550.753906 L 447.214844 550.820312 L 447.222656 550.90625 L 447.222656 550.960938 L 447.230469 551.023438 L 447.230469 551.160156 L 447.234375 551.226562 L 447.234375 551.300781 L 447.242188 551.363281 L 447.242188 551.566406 L 447.25 551.644531 L 447.25 551.835938 L 447.257812 551.90625 L 447.257812 552.175781 L 447.261719 552.246094 L 447.261719 552.726562 C 447.261719 552.746094 447.261719 552.769531 447.261719 552.792969 L 447.261719 553.335938 L 447.257812 553.421875 L 447.257812 553.675781 L 447.25 553.746094 L 447.25 553.949219 L 447.242188 554.015625 L 447.242188 554.21875 L 447.234375 554.289062 L 447.234375 554.355469 L 447.230469 554.421875 L 447.230469 554.5625 L 447.222656 554.625 L 447.222656 554.695312 L 447.214844 554.761719 L 447.214844 554.828125 L 447.207031 554.898438 L 447.207031 554.964844 L 447.203125 555.03125 L 447.203125 555.097656 L 447.195312 555.164062 L 447.195312 555.246094 L 447.1875 555.300781 L 447.179688 555.367188 L 447.179688 555.433594 L 447.175781 555.503906 L 447.175781 555.582031 L 447.167969 555.636719 L 447.160156 555.703125 L 447.160156 555.769531 L 447.15625 555.839844 L 447.148438 555.921875 L 447.148438 555.976562 L 447.140625 556.039062 L 447.132812 556.105469 L 447.128906 556.171875 L 447.121094 556.238281 L 447.121094 556.3125 L 447.113281 556.378906 L 447.105469 556.441406 L 447.101562 556.507812 L 447.09375 556.574219 L 447.085938 556.652344 L 447.082031 556.707031 L 447.082031 556.773438 L 447.066406 556.90625 L 447.054688 556.992188 L 447.054688 557.042969 L 447.046875 557.117188 L 447.039062 557.175781 L 447.03125 557.242188 L 447.019531 557.324219 L 447.011719 557.375 C 447.011719 557.417969 447.007812 557.460938 447.007812 557.5 L 447 557.550781 L 446.984375 557.660156 L 446.980469 557.707031 C 446.972656 557.75 446.972656 557.792969 446.964844 557.835938 L 446.957031 557.882812 L 446.953125 557.9375 L 446.945312 557.996094 L 446.9375 558.039062 C 446.929688 558.082031 446.929688 558.125 446.925781 558.167969 L 446.910156 558.242188 L 446.90625 558.328125 L 446.898438 558.371094 C 446.890625 558.433594 446.878906 558.5 446.871094 558.5625 L 446.863281 558.605469 L 446.855469 558.660156 L 446.851562 558.699219 C 446.84375 558.785156 446.832031 558.871094 446.816406 558.957031 L 446.808594 558.992188 L 446.804688 559.027344 C 446.789062 559.132812 446.769531 559.242188 446.753906 559.351562 C 445.621094 566.609375 442.640625 573.253906 438.308594 578.792969 C 438.300781 578.800781 438.292969 578.804688 438.289062 578.8125 C 430.792969 588.375 419.269531 594.628906 406.285156 595.011719 C 406.238281 595.015625 406.199219 595.015625 406.152344 595.015625 L 406.136719 595.015625 C 406.097656 595.019531 406.054688 595.019531 406.023438 595.019531 L 405.960938 595.019531 L 405.90625 595.023438 L 405.773438 595.023438 L 405.703125 595.027344 L 405.496094 595.027344 L 405.433594 595.03125 Z M 404.082031 575.738281 C 398.042969 575.769531 392.332031 576.117188 387.226562 576.71875 C 388.578125 579.652344 390.175781 582.253906 391.964844 584.445312 C 395.398438 588.640625 399.554688 591.296875 404.082031 591.621094 Z M 407.460938 575.75 L 407.460938 591.425781 C 411.410156 590.683594 415.03125 588.171875 418.078125 584.445312 C 419.871094 582.253906 421.464844 579.652344 422.816406 576.71875 C 418.140625 576.167969 412.949219 575.828125 407.460938 575.75 Z M 426.296875 577.183594 C 424.738281 580.785156 422.84375 583.960938 420.695312 586.582031 C 419.855469 587.609375 418.980469 588.550781 418.066406 589.40625 C 424.242188 587.199219 429.703125 583.476562 433.996094 578.679688 C 431.703125 578.109375 429.125 577.605469 426.296875 577.183594 Z M 383.746094 577.183594 C 380.921875 577.605469 378.339844 578.109375 376.050781 578.679688 C 380.339844 583.476562 385.800781 587.203125 391.980469 589.40625 C 391.066406 588.550781 390.1875 587.609375 389.351562 586.582031 C 387.199219 583.960938 385.308594 580.785156 383.746094 577.183594 Z M 379.023438 554.480469 L 366.195312 554.480469 L 366.203125 554.542969 L 366.203125 554.609375 L 366.207031 554.675781 L 366.207031 554.734375 L 366.214844 554.792969 L 366.214844 554.855469 L 366.222656 554.921875 L 366.222656 554.980469 L 366.230469 555.039062 L 366.230469 555.101562 L 366.234375 555.167969 L 366.234375 555.230469 L 366.242188 555.289062 L 366.242188 555.347656 L 366.25 555.414062 L 366.25 555.476562 L 366.257812 555.535156 L 366.261719 555.59375 L 366.261719 555.660156 L 366.269531 555.722656 L 366.277344 555.78125 L 366.277344 555.839844 L 366.28125 555.90625 L 366.289062 555.96875 L 366.296875 556.027344 L 366.296875 556.085938 L 366.304688 556.148438 L 366.308594 556.214844 C 366.316406 556.292969 366.324219 556.375 366.332031 556.453125 L 366.332031 556.457031 C 366.859375 562.039062 368.5625 567.28125 371.195312 571.921875 L 371.230469 571.976562 L 371.257812 572.027344 L 371.277344 572.070312 L 371.332031 572.15625 C 372.054688 573.417969 372.851562 574.636719 373.710938 575.804688 C 376.25 575.097656 379.207031 574.476562 382.484375 573.964844 C 380.433594 568.207031 379.191406 561.570312 379.023438 554.480469 Z M 443.816406 555.039062 L 443.824219 554.96875 L 443.828125 554.910156 L 443.828125 554.851562 L 443.835938 554.78125 L 443.835938 554.660156 L 443.84375 554.601562 L 443.84375 554.535156 L 443.851562 554.480469 L 431.023438 554.480469 C 430.851562 561.570312 429.609375 568.207031 427.5625 573.964844 C 430.839844 574.476562 433.792969 575.097656 436.335938 575.804688 C 437.191406 574.636719 437.988281 573.417969 438.714844 572.15625 L 438.742188 572.113281 L 438.789062 572.027344 L 438.820312 571.972656 L 438.847656 571.921875 C 441.484375 567.277344 443.1875 562.039062 443.714844 556.457031 L 443.714844 556.453125 C 443.722656 556.375 443.726562 556.292969 443.734375 556.214844 L 443.742188 556.148438 L 443.75 556.085938 L 443.75 556.023438 L 443.753906 555.960938 L 443.761719 555.902344 L 443.769531 555.839844 L 443.769531 555.777344 L 443.773438 555.714844 L 443.78125 555.652344 L 443.78125 555.59375 L 443.789062 555.527344 L 443.796875 555.464844 L 443.796875 555.40625 L 443.800781 555.347656 L 443.800781 555.28125 L 443.808594 555.214844 L 443.808594 555.15625 L 443.816406 555.101562 Z M 404.082031 572.359375 L 404.082031 554.480469 L 382.402344 554.480469 C 382.578125 561.433594 383.828125 567.921875 385.890625 573.484375 C 391.351562 572.796875 397.527344 572.394531 404.082031 572.359375 Z M 427.644531 554.480469 L 407.460938 554.480469 L 407.460938 572.371094 C 413.464844 572.457031 419.113281 572.851562 424.15625 573.484375 C 426.21875 567.921875 427.46875 561.433594 427.644531 554.480469 Z M 424.148438 532.082031 C 419.113281 532.714844 413.457031 533.105469 407.460938 533.191406 L 407.460938 551.101562 L 427.644531 551.101562 C 427.46875 544.140625 426.21875 537.648438 424.148438 532.082031 Z M 438.894531 533.746094 C 438.117188 532.363281 437.253906 531.03125 436.320312 529.761719 C 433.78125 530.46875 430.832031 531.085938 427.554688 531.601562 C 429.601562 537.359375 430.851562 544.003906 431.023438 551.101562 L 443.851562 551.101562 L 443.84375 551.039062 L 443.84375 550.972656 L 443.835938 550.90625 L 443.835938 550.847656 L 443.828125 550.789062 L 443.828125 550.730469 L 443.824219 550.660156 L 443.824219 550.601562 L 443.816406 550.542969 L 443.816406 550.484375 L 443.808594 550.414062 L 443.808594 550.351562 L 443.800781 550.292969 L 443.800781 550.234375 L 443.796875 550.167969 L 443.796875 550.105469 L 443.78125 549.988281 L 443.78125 549.921875 L 443.773438 549.859375 L 443.769531 549.800781 L 443.769531 549.742188 L 443.761719 549.675781 L 443.753906 549.613281 L 443.75 549.554688 L 443.75 549.496094 C 443.742188 549.476562 443.742188 549.453125 443.742188 549.433594 L 443.734375 549.367188 L 443.726562 549.308594 L 443.722656 549.25 C 443.722656 549.230469 443.722656 549.207031 443.722656 549.1875 L 443.714844 549.125 L 443.707031 549.066406 L 443.699219 549.003906 C 443.699219 548.984375 443.695312 548.964844 443.695312 548.941406 L 443.6875 548.882812 C 443.152344 543.535156 441.53125 538.507812 439.050781 534.019531 L 439.015625 533.960938 L 438.992188 533.914062 L 438.964844 533.867188 L 438.917969 533.78125 Z M 385.894531 532.082031 C 383.828125 537.648438 382.578125 544.144531 382.402344 551.101562 L 404.082031 551.101562 L 404.082031 533.207031 C 397.527344 533.171875 391.351562 532.765625 385.894531 532.082031 Z M 382.488281 531.601562 C 379.210938 531.085938 376.265625 530.46875 373.722656 529.761719 C 372.792969 531.03125 371.925781 532.363281 371.148438 533.746094 L 371.121094 533.796875 L 371.089844 533.847656 L 371.082031 533.867188 L 371.054688 533.917969 L 371.019531 533.96875 L 370.992188 534.019531 C 368.511719 538.507812 366.890625 543.535156 366.359375 548.882812 L 366.351562 548.941406 C 366.351562 548.964844 366.34375 548.984375 366.34375 549.003906 L 366.335938 549.066406 L 366.332031 549.128906 L 366.324219 549.1875 C 366.324219 549.207031 366.324219 549.230469 366.324219 549.25 L 366.308594 549.375 L 366.304688 549.433594 C 366.304688 549.453125 366.304688 549.476562 366.296875 549.496094 L 366.296875 549.558594 L 366.289062 549.621094 L 366.28125 549.679688 L 366.277344 549.742188 L 366.277344 549.808594 L 366.269531 549.871094 L 366.261719 549.929688 L 366.261719 549.988281 L 366.257812 550.054688 L 366.25 550.117188 L 366.25 550.175781 L 366.242188 550.234375 L 366.242188 550.304688 L 366.234375 550.367188 L 366.234375 550.425781 L 366.230469 550.484375 L 366.222656 550.550781 L 366.222656 550.613281 L 366.214844 550.671875 L 366.214844 550.730469 L 366.207031 550.800781 L 366.207031 550.921875 L 366.203125 550.980469 L 366.203125 551.050781 L 366.195312 551.101562 L 379.023438 551.101562 C 379.191406 544.003906 380.441406 537.363281 382.488281 531.601562 Z M 404.082031 513.964844 C 399.554688 514.285156 395.398438 516.941406 391.964844 521.140625 C 390.175781 523.324219 388.585938 525.917969 387.242188 528.84375 C 392.332031 529.445312 398.042969 529.792969 404.082031 529.828125 Z M 407.460938 514.15625 L 407.460938 529.8125 C 412.949219 529.734375 418.132812 529.394531 422.804688 528.84375 C 421.457031 525.917969 419.871094 523.324219 418.078125 521.140625 C 415.03125 517.410156 411.410156 514.898438 407.460938 514.15625 Z M 391.980469 516.175781 C 385.808594 518.378906 380.355469 522.097656 376.0625 526.886719 C 378.355469 527.457031 380.933594 527.960938 383.753906 528.382812 C 385.316406 524.785156 387.207031 521.617188 389.351562 519 C 390.1875 517.972656 391.066406 517.03125 391.980469 516.175781 Z M 418.066406 516.175781 C 418.980469 517.03125 419.855469 517.972656 420.695312 519 C 422.835938 521.617188 424.730469 524.785156 426.292969 528.382812 C 429.109375 527.960938 431.691406 527.457031 433.980469 526.886719 C 429.699219 522.097656 424.238281 518.378906 418.066406 516.175781 Z M 418.066406 516.175781 " fill-opacity="1" fill-rule="evenodd"/></g></svg>