<svg xmlns="http://www.w3.org/2000/svg" xmlns:xlink="http://www.w3.org/1999/xlink" width="274" zoomAndPan="magnify" viewBox="0 0 205.5 225.749993" height="301" preserveAspectRatio="xMidYMid meet" version="1.0"><defs><clipPath id="ebf8be0233"><path d="M 16 26.234375 L 188.8125 26.234375 L 188.8125 199.0625 L 16 199.0625 Z M 16 26.234375 " clip-rule="nonzero"/></clipPath><clipPath id="eaf46a14c0"><path d="M 4.648438 218.164062 L 8.386719 218.164062 L 8.386719 221.902344 L 4.648438 221.902344 Z M 4.648438 218.164062 " clip-rule="nonzero"/></clipPath></defs><g clip-path="url(#ebf8be0233)"><path fill="#0b3d2e" d="M 102.453125 199.230469 L 102.273438 199.230469 L 102.132812 199.226562 L 101.691406 199.226562 L 101.566406 199.222656 L 101.425781 199.222656 L 101.289062 199.21875 L 101.148438 199.21875 L 100.875 199.210938 L 100.734375 199.210938 L 100.597656 199.207031 L 100.511719 199.207031 C 100.429688 199.203125 100.347656 199.203125 100.265625 199.199219 L 100.238281 199.199219 C 100.140625 199.195312 100.058594 199.195312 99.960938 199.191406 C 73.355469 198.410156 49.753906 185.59375 34.417969 166.007812 C 34.402344 165.996094 34.390625 165.984375 34.390625 165.96875 C 25.503906 154.625 19.398438 141.015625 17.074219 126.152344 L 17.074219 126.148438 C 17.042969 125.925781 17.003906 125.707031 16.976562 125.484375 L 16.960938 125.414062 L 16.949219 125.339844 C 16.921875 125.164062 16.90625 124.988281 16.878906 124.8125 L 16.863281 124.734375 L 16.851562 124.621094 L 16.835938 124.535156 C 16.824219 124.402344 16.796875 124.273438 16.78125 124.140625 L 16.769531 124.054688 L 16.753906 123.941406 L 16.742188 123.828125 L 16.726562 123.726562 C 16.710938 123.640625 16.710938 123.550781 16.699219 123.464844 L 16.683594 123.371094 L 16.671875 123.257812 L 16.65625 123.144531 L 16.644531 123.046875 C 16.628906 122.960938 16.628906 122.871094 16.617188 122.785156 L 16.601562 122.6875 L 16.589844 122.574219 L 16.574219 122.460938 L 16.558594 122.363281 C 16.558594 122.277344 16.546875 122.191406 16.546875 122.105469 L 16.519531 121.964844 L 16.503906 121.828125 L 16.492188 121.660156 L 16.476562 121.550781 L 16.464844 121.417969 L 16.449219 121.28125 L 16.4375 121.144531 L 16.421875 120.96875 L 16.40625 120.867188 L 16.40625 120.726562 L 16.394531 120.597656 L 16.378906 120.464844 L 16.367188 120.328125 L 16.351562 120.167969 L 16.339844 120.050781 L 16.324219 119.914062 L 16.324219 119.777344 L 16.3125 119.640625 L 16.296875 119.472656 L 16.285156 119.363281 L 16.269531 119.230469 L 16.269531 119.09375 L 16.253906 118.953125 L 16.242188 118.78125 L 16.242188 118.671875 L 16.226562 118.542969 L 16.214844 118.40625 L 16.214844 118.265625 L 16.199219 118.128906 L 16.1875 117.96875 L 16.1875 117.84375 L 16.171875 117.714844 L 16.171875 117.578125 L 16.160156 117.441406 L 16.160156 117.273438 L 16.144531 117.160156 L 16.144531 117.023438 L 16.132812 116.886719 L 16.132812 116.75 L 16.117188 116.578125 L 16.117188 116.464844 L 16.105469 116.335938 L 16.105469 116.054688 L 16.089844 115.917969 L 16.089844 115.621094 L 16.074219 115.503906 L 16.074219 115.222656 L 16.0625 115.0625 L 16.0625 114.667969 L 16.046875 114.53125 L 16.046875 113.832031 L 16.035156 113.65625 L 16.035156 112.84375 C 16.035156 112.804688 16.035156 112.757812 16.035156 112.714844 L 16.035156 111.738281 L 16.046875 111.597656 L 16.046875 110.898438 L 16.0625 110.761719 L 16.0625 110.34375 L 16.074219 110.207031 L 16.074219 109.898438 L 16.089844 109.785156 L 16.089844 109.511719 L 16.105469 109.375 L 16.105469 109.089844 L 16.117188 108.957031 L 16.117188 108.816406 L 16.132812 108.679688 L 16.132812 108.542969 L 16.144531 108.394531 L 16.144531 108.246094 L 16.160156 108.128906 L 16.160156 107.988281 L 16.171875 107.851562 L 16.171875 107.6875 L 16.1875 107.574219 L 16.199219 107.4375 L 16.199219 107.300781 L 16.214844 107.164062 L 16.214844 106.992188 L 16.226562 106.878906 L 16.242188 106.75 L 16.242188 106.613281 L 16.253906 106.476562 L 16.269531 106.335938 L 16.269531 106.191406 L 16.285156 106.0625 L 16.296875 105.925781 L 16.3125 105.789062 L 16.324219 105.652344 L 16.324219 105.488281 L 16.339844 105.375 L 16.351562 105.238281 L 16.367188 105.101562 L 16.378906 104.964844 L 16.394531 104.796875 L 16.40625 104.6875 L 16.421875 104.554688 L 16.421875 104.421875 L 16.4375 104.285156 L 16.464844 104.109375 L 16.464844 104.003906 L 16.476562 103.855469 L 16.492188 103.738281 L 16.503906 103.601562 L 16.519531 103.464844 L 16.546875 103.304688 L 16.558594 103.195312 L 16.589844 102.921875 L 16.601562 102.789062 L 16.617188 102.621094 L 16.628906 102.511719 L 16.644531 102.378906 L 16.65625 102.246094 L 16.683594 102.109375 L 16.699219 101.9375 L 16.710938 101.832031 L 16.726562 101.699219 L 16.753906 101.566406 L 16.769531 101.433594 L 16.796875 101.253906 L 16.796875 101.15625 C 16.808594 101.070312 16.824219 100.984375 16.835938 100.898438 L 16.851562 100.757812 L 16.878906 100.574219 L 16.890625 100.480469 C 16.90625 100.390625 16.921875 100.304688 16.933594 100.21875 L 16.949219 100.066406 L 16.976562 99.894531 L 16.988281 99.78125 L 17.015625 99.679688 C 17.015625 99.59375 17.042969 99.507812 17.058594 99.417969 L 17.074219 99.328125 L 17.085938 99.214844 L 17.101562 99.101562 L 17.113281 99.007812 C 17.128906 98.921875 17.140625 98.832031 17.15625 98.742188 L 17.167969 98.652344 L 17.195312 98.539062 L 17.210938 98.425781 L 17.226562 98.339844 C 17.253906 98.210938 17.265625 98.078125 17.292969 97.945312 L 17.308594 97.863281 L 17.320312 97.753906 L 17.335938 97.675781 C 17.363281 97.496094 17.40625 97.320312 17.433594 97.144531 L 17.433594 97.140625 C 19.992188 83.097656 25.945312 70.230469 34.402344 59.429688 C 34.417969 59.414062 34.429688 59.402344 34.445312 59.386719 C 50.28125 39.1875 74.90625 26.199219 102.546875 26.199219 C 130.191406 26.199219 154.816406 39.1875 170.652344 59.386719 C 170.667969 59.402344 170.679688 59.414062 170.695312 59.429688 C 179.152344 70.230469 185.105469 83.097656 187.664062 97.140625 L 187.664062 97.144531 C 187.691406 97.320312 187.734375 97.496094 187.761719 97.675781 L 187.773438 97.753906 L 187.789062 97.863281 L 187.804688 97.945312 C 187.832031 98.078125 187.84375 98.207031 187.871094 98.339844 L 187.886719 98.425781 L 187.898438 98.539062 L 187.925781 98.652344 L 187.941406 98.742188 C 187.957031 98.832031 187.96875 98.921875 187.984375 99.007812 L 187.996094 99.101562 L 188.011719 99.214844 L 188.039062 99.328125 L 188.050781 99.417969 C 188.066406 99.503906 188.066406 99.59375 188.078125 99.679688 L 188.109375 99.832031 L 188.136719 100.007812 L 188.148438 100.121094 L 188.164062 100.21875 C 188.175781 100.304688 188.191406 100.394531 188.203125 100.480469 L 188.21875 100.574219 L 188.230469 100.6875 L 188.246094 100.800781 L 188.257812 100.898438 C 188.273438 100.984375 188.289062 101.070312 188.300781 101.15625 L 188.316406 101.296875 L 188.34375 101.480469 L 188.355469 101.59375 L 188.371094 101.703125 L 188.382812 101.835938 L 188.398438 101.972656 L 188.410156 102.109375 L 188.441406 102.277344 L 188.453125 102.382812 L 188.46875 102.53125 L 188.480469 102.648438 L 188.496094 102.789062 L 188.523438 102.964844 L 188.535156 103.066406 L 188.550781 103.199219 L 188.5625 103.328125 L 188.59375 103.601562 L 188.605469 103.765625 L 188.621094 103.875 L 188.632812 104.011719 L 188.648438 104.148438 L 188.660156 104.285156 L 188.675781 104.453125 L 188.6875 104.5625 L 188.6875 104.691406 L 188.703125 104.832031 L 188.714844 104.964844 L 188.730469 105.101562 L 188.746094 105.25 L 188.757812 105.378906 L 188.773438 105.515625 L 188.773438 105.652344 L 188.785156 105.789062 L 188.800781 105.949219 L 188.8125 106.066406 L 188.828125 106.199219 L 188.828125 106.335938 L 188.839844 106.476562 L 188.855469 106.644531 L 188.855469 106.753906 L 188.867188 106.886719 L 188.882812 107.023438 L 188.882812 107.164062 L 188.894531 107.300781 L 188.910156 107.445312 L 188.910156 107.574219 L 188.925781 107.714844 L 188.925781 107.851562 L 188.9375 107.988281 L 188.9375 108.152344 L 188.953125 108.265625 L 188.953125 108.40625 L 188.964844 108.542969 L 188.964844 108.679688 L 188.980469 108.851562 L 188.980469 108.960938 L 188.992188 109.09375 L 188.992188 109.375 L 189.007812 109.511719 L 189.007812 109.660156 L 189.019531 109.789062 L 189.019531 110.207031 L 189.035156 110.367188 L 189.035156 110.761719 L 189.046875 110.898438 L 189.046875 111.457031 L 189.0625 111.597656 L 189.0625 112.585938 C 189.0625 112.625 189.0625 112.671875 189.0625 112.714844 L 189.0625 113.832031 L 189.046875 114.007812 L 189.046875 114.53125 L 189.035156 114.667969 L 189.035156 115.085938 L 189.019531 115.222656 L 189.019531 115.640625 L 189.007812 115.78125 L 189.007812 115.917969 L 188.992188 116.054688 L 188.992188 116.339844 L 188.980469 116.472656 L 188.980469 116.613281 L 188.964844 116.75 L 188.964844 116.886719 L 188.953125 117.035156 L 188.953125 117.164062 L 188.9375 117.300781 L 188.9375 117.441406 L 188.925781 117.578125 L 188.925781 117.738281 L 188.910156 117.855469 L 188.894531 117.992188 L 188.894531 118.128906 L 188.882812 118.265625 L 188.882812 118.433594 L 188.867188 118.546875 L 188.855469 118.679688 L 188.855469 118.816406 L 188.839844 118.953125 L 188.828125 119.128906 L 188.828125 119.234375 L 188.8125 119.367188 L 188.800781 119.503906 L 188.785156 119.640625 L 188.773438 119.777344 L 188.773438 119.921875 L 188.757812 120.058594 L 188.746094 120.191406 L 188.714844 120.464844 L 188.703125 120.625 L 188.6875 120.738281 L 188.6875 120.875 L 188.675781 121.007812 L 188.660156 121.144531 L 188.632812 121.316406 L 188.632812 121.421875 L 188.621094 121.574219 L 188.605469 121.691406 L 188.59375 121.828125 L 188.5625 122 L 188.550781 122.105469 C 188.550781 122.191406 188.535156 122.277344 188.535156 122.363281 L 188.523438 122.460938 L 188.507812 122.574219 L 188.496094 122.6875 L 188.480469 122.785156 C 188.46875 122.871094 188.46875 122.960938 188.453125 123.046875 L 188.441406 123.144531 L 188.410156 123.371094 L 188.398438 123.464844 C 188.382812 123.550781 188.382812 123.640625 188.371094 123.726562 L 188.34375 123.878906 L 188.328125 124.054688 L 188.316406 124.140625 C 188.300781 124.273438 188.273438 124.402344 188.257812 124.535156 L 188.246094 124.621094 L 188.230469 124.734375 L 188.21875 124.8125 C 188.203125 124.988281 188.175781 125.164062 188.148438 125.339844 L 188.136719 125.414062 L 188.121094 125.484375 C 188.09375 125.707031 188.050781 125.929688 188.023438 126.148438 L 188.023438 126.152344 C 185.699219 141.015625 179.59375 154.625 170.722656 165.96875 C 170.707031 165.984375 170.695312 165.996094 170.679688 166.007812 C 155.328125 185.59375 131.726562 198.40625 105.136719 199.191406 C 105.039062 199.191406 104.957031 199.195312 104.859375 199.199219 L 104.832031 199.199219 C 104.75 199.203125 104.667969 199.203125 104.597656 199.207031 L 104.472656 199.207031 L 104.363281 199.210938 L 104.222656 199.210938 L 104.085938 199.214844 L 103.945312 199.21875 L 103.792969 199.21875 L 103.667969 199.222656 L 103.515625 199.222656 L 103.394531 199.226562 L 102.949219 199.226562 L 102.8125 199.230469 Z M 100.625 159.710938 C 88.25 159.777344 76.550781 160.492188 66.101562 161.722656 C 68.871094 167.726562 72.136719 173.058594 75.804688 177.542969 C 82.835938 186.140625 91.351562 191.578125 100.625 192.238281 Z M 107.546875 159.742188 L 107.546875 191.839844 C 115.628906 190.324219 123.050781 185.183594 129.292969 177.542969 C 132.960938 173.058594 136.226562 167.726562 138.996094 161.722656 C 129.417969 160.59375 118.785156 159.898438 107.546875 159.742188 Z M 146.125 162.675781 C 142.925781 170.050781 139.050781 176.554688 134.648438 181.925781 C 132.933594 184.027344 131.132812 185.957031 129.265625 187.707031 C 141.914062 183.191406 153.101562 175.558594 161.890625 165.742188 C 157.199219 164.570312 151.910156 163.535156 146.125 162.675781 Z M 58.972656 162.675781 C 53.1875 163.539062 47.898438 164.570312 43.207031 165.742188 C 51.996094 175.5625 63.179688 183.191406 75.832031 187.707031 C 73.964844 185.957031 72.164062 184.027344 70.449219 181.925781 C 66.046875 176.554688 62.171875 170.050781 58.972656 162.675781 Z M 49.296875 116.175781 L 23.023438 116.175781 L 23.039062 116.300781 L 23.039062 116.441406 L 23.050781 116.574219 L 23.050781 116.695312 L 23.066406 116.8125 L 23.066406 116.941406 L 23.078125 117.082031 L 23.078125 117.199219 L 23.09375 117.320312 L 23.09375 117.441406 L 23.109375 117.585938 L 23.109375 117.707031 L 23.121094 117.828125 L 23.121094 117.949219 L 23.136719 118.089844 L 23.136719 118.214844 L 23.148438 118.332031 L 23.164062 118.457031 L 23.164062 118.59375 L 23.175781 118.71875 L 23.191406 118.835938 L 23.191406 118.960938 L 23.203125 119.09375 L 23.21875 119.21875 L 23.230469 119.339844 L 23.230469 119.464844 L 23.261719 119.722656 C 23.273438 119.890625 23.289062 120.054688 23.300781 120.21875 L 23.300781 120.222656 C 24.382812 131.65625 27.871094 142.386719 33.269531 151.898438 L 33.335938 152.011719 L 33.390625 152.109375 L 33.433594 152.203125 L 33.488281 152.292969 L 33.542969 152.378906 C 35.027344 154.960938 36.660156 157.457031 38.417969 159.847656 C 43.621094 158.402344 49.671875 157.128906 56.382812 156.078125 C 52.191406 144.285156 49.644531 130.695312 49.296875 116.175781 Z M 182.003906 117.320312 L 182.015625 117.171875 L 182.03125 117.050781 L 182.03125 116.933594 L 182.042969 116.792969 L 182.042969 116.539062 L 182.058594 116.421875 L 182.058594 116.285156 L 182.070312 116.175781 L 155.800781 116.175781 C 155.453125 130.695312 152.90625 144.289062 148.710938 156.078125 C 155.425781 157.128906 161.476562 158.402344 166.679688 159.847656 C 168.4375 157.457031 170.070312 154.960938 171.550781 152.378906 L 171.609375 152.292969 L 171.664062 152.203125 L 171.703125 152.109375 L 171.773438 151.996094 L 171.828125 151.898438 C 177.226562 142.386719 180.714844 131.65625 181.796875 120.222656 L 181.796875 120.21875 C 181.808594 120.050781 181.824219 119.886719 181.835938 119.722656 L 181.851562 119.589844 L 181.863281 119.464844 L 181.863281 119.335938 L 181.878906 119.207031 L 181.890625 119.085938 L 181.90625 118.960938 L 181.90625 118.828125 L 181.917969 118.699219 L 181.933594 118.578125 L 181.933594 118.457031 L 181.949219 118.320312 L 181.960938 118.191406 L 181.960938 118.070312 L 181.976562 117.949219 L 181.976562 117.8125 L 181.988281 117.679688 L 181.988281 117.5625 L 182.003906 117.441406 Z M 100.625 152.789062 L 100.625 116.175781 L 56.21875 116.175781 C 56.578125 130.414062 59.140625 143.703125 63.359375 155.09375 C 74.546875 153.6875 87.199219 152.863281 100.625 152.789062 Z M 148.878906 116.175781 L 107.546875 116.175781 L 107.546875 152.820312 C 119.835938 152.992188 131.410156 153.796875 141.734375 155.09375 C 145.957031 143.703125 148.519531 130.414062 148.878906 116.175781 Z M 141.722656 70.296875 C 131.410156 71.59375 119.824219 72.398438 107.546875 72.570312 L 107.546875 109.253906 L 148.878906 109.253906 C 148.519531 95 145.957031 81.695312 141.722656 70.296875 Z M 171.925781 73.703125 C 170.332031 70.871094 168.5625 68.148438 166.652344 65.546875 C 161.449219 66.992188 155.410156 68.261719 148.699219 69.3125 C 152.894531 81.113281 155.453125 94.714844 155.800781 109.253906 L 182.070312 109.253906 L 182.058594 109.125 L 182.058594 108.992188 L 182.042969 108.855469 L 182.042969 108.734375 L 182.03125 108.617188 L 182.03125 108.492188 L 182.015625 108.347656 L 182.015625 108.226562 L 182.003906 108.109375 L 182.003906 107.984375 L 181.988281 107.84375 L 181.988281 107.71875 L 181.976562 107.601562 L 181.976562 107.480469 L 181.960938 107.339844 L 181.960938 107.214844 L 181.949219 107.09375 L 181.933594 106.972656 L 181.933594 106.835938 L 181.917969 106.710938 L 181.90625 106.589844 L 181.90625 106.46875 L 181.890625 106.335938 L 181.878906 106.207031 L 181.863281 106.085938 L 181.863281 105.964844 C 181.851562 105.921875 181.851562 105.878906 181.851562 105.839844 L 181.835938 105.703125 L 181.824219 105.585938 L 181.808594 105.460938 C 181.808594 105.417969 181.808594 105.378906 181.808594 105.335938 L 181.796875 105.207031 L 181.78125 105.082031 L 181.769531 104.957031 C 181.769531 104.917969 181.753906 104.875 181.753906 104.832031 L 181.738281 104.707031 C 180.648438 93.757812 177.324219 83.457031 172.246094 74.265625 L 172.175781 74.148438 L 172.121094 74.050781 L 172.0625 73.957031 L 172.023438 73.863281 L 171.96875 73.777344 Z M 63.375 70.296875 C 59.140625 81.695312 56.578125 95.003906 56.21875 109.253906 L 100.625 109.253906 L 100.625 72.601562 C 87.199219 72.53125 74.546875 71.703125 63.375 70.296875 Z M 56.398438 69.3125 C 49.683594 68.261719 43.648438 66.992188 38.445312 65.546875 C 36.535156 68.148438 34.761719 70.871094 33.171875 73.703125 L 33.117188 73.808594 L 33.046875 73.914062 L 33.03125 73.957031 L 32.976562 74.058594 L 32.90625 74.167969 L 32.851562 74.265625 C 27.773438 83.457031 24.449219 93.757812 23.355469 104.707031 L 23.34375 104.832031 C 23.34375 104.875 23.328125 104.917969 23.328125 104.957031 L 23.316406 105.085938 L 23.300781 105.210938 L 23.289062 105.335938 C 23.289062 105.378906 23.289062 105.417969 23.289062 105.460938 L 23.273438 105.589844 L 23.261719 105.71875 L 23.246094 105.839844 C 23.246094 105.878906 23.246094 105.921875 23.230469 105.964844 L 23.230469 106.097656 L 23.21875 106.222656 L 23.203125 106.34375 L 23.191406 106.46875 L 23.191406 106.601562 L 23.175781 106.730469 L 23.164062 106.851562 L 23.164062 106.972656 L 23.148438 107.113281 L 23.136719 107.238281 L 23.136719 107.359375 L 23.121094 107.480469 L 23.121094 107.621094 L 23.109375 107.75 L 23.109375 107.867188 L 23.09375 107.984375 L 23.078125 108.128906 L 23.078125 108.257812 L 23.066406 108.375 L 23.066406 108.496094 L 23.050781 108.636719 L 23.050781 108.886719 L 23.039062 109.003906 L 23.039062 109.148438 L 23.023438 109.253906 L 49.296875 109.253906 C 49.644531 94.71875 52.203125 81.117188 56.398438 69.3125 Z M 100.625 33.191406 C 91.351562 33.851562 82.835938 39.289062 75.804688 47.886719 C 72.136719 52.359375 68.882812 57.679688 66.128906 63.667969 C 76.550781 64.898438 88.25 65.613281 100.625 65.679688 Z M 107.546875 33.589844 L 107.546875 65.648438 C 118.785156 65.492188 129.402344 64.796875 138.96875 63.667969 C 136.210938 57.679688 132.960938 52.359375 129.292969 47.886719 C 123.050781 40.246094 115.628906 35.105469 107.546875 33.589844 Z M 75.832031 37.722656 C 63.195312 42.234375 52.023438 49.851562 43.234375 59.65625 C 47.925781 60.828125 53.214844 61.855469 58.988281 62.71875 C 62.183594 55.359375 66.058594 48.867188 70.449219 43.503906 C 72.164062 41.402344 73.964844 39.472656 75.832031 37.722656 Z M 129.265625 37.722656 C 131.132812 39.472656 132.933594 41.402344 134.648438 43.503906 C 139.035156 48.867188 142.914062 55.359375 146.109375 62.71875 C 151.882812 61.855469 157.171875 60.828125 161.863281 59.65625 C 153.085938 49.851562 141.902344 42.234375 129.265625 37.722656 Z M 129.265625 37.722656 " fill-opacity="1" fill-rule="evenodd"/></g><g clip-path="url(#eaf46a14c0)"><path fill="#0b3d2e" d="M 6.492188 221.855469 L 6.453125 221.855469 C 6.449219 221.855469 6.449219 221.855469 6.445312 221.855469 C 6.441406 221.855469 6.441406 221.855469 6.4375 221.855469 C 5.871094 221.839844 5.367188 221.566406 5.039062 221.144531 C 4.851562 220.902344 4.71875 220.613281 4.667969 220.296875 C 4.667969 220.289062 4.667969 220.285156 4.667969 220.28125 L 4.667969 220.277344 C 4.667969 220.273438 4.667969 220.269531 4.664062 220.265625 L 4.664062 220.261719 C 4.664062 220.257812 4.664062 220.253906 4.664062 220.253906 L 4.664062 220.242188 C 4.660156 220.242188 4.660156 220.238281 4.660156 220.238281 L 4.660156 220.230469 C 4.660156 220.226562 4.660156 220.226562 4.660156 220.222656 L 4.660156 220.214844 C 4.660156 220.210938 4.660156 220.210938 4.660156 220.210938 L 4.65625 220.207031 L 4.65625 220.167969 L 4.652344 220.164062 L 4.652344 220.113281 L 4.648438 220.109375 L 4.648438 220.011719 C 4.648438 220.011719 4.648438 220.007812 4.648438 220.007812 L 4.648438 219.90625 L 4.652344 219.90625 L 4.652344 219.851562 L 4.65625 219.847656 L 4.65625 219.8125 L 4.660156 219.808594 L 4.660156 219.777344 L 4.664062 219.773438 L 4.664062 219.761719 C 4.664062 219.761719 4.664062 219.757812 4.664062 219.757812 L 4.664062 219.746094 C 4.667969 219.746094 4.667969 219.742188 4.667969 219.742188 L 4.667969 219.730469 C 4.667969 219.726562 4.667969 219.726562 4.667969 219.726562 L 4.667969 219.722656 L 4.671875 219.71875 L 4.671875 219.714844 C 4.671875 219.714844 4.671875 219.710938 4.671875 219.710938 L 4.671875 219.703125 C 4.671875 219.699219 4.675781 219.695312 4.675781 219.691406 L 4.675781 219.6875 C 4.675781 219.683594 4.675781 219.679688 4.675781 219.675781 C 4.730469 219.375 4.859375 219.101562 5.039062 218.871094 C 5.378906 218.4375 5.90625 218.160156 6.496094 218.160156 C 7.085938 218.160156 7.609375 218.4375 7.949219 218.871094 C 8.128906 219.101562 8.257812 219.375 8.3125 219.675781 C 8.3125 219.679688 8.3125 219.683594 8.3125 219.6875 L 8.316406 219.691406 C 8.316406 219.695312 8.316406 219.699219 8.316406 219.703125 L 8.316406 219.710938 C 8.316406 219.710938 8.320312 219.714844 8.320312 219.714844 L 8.320312 219.726562 C 8.320312 219.726562 8.320312 219.726562 8.320312 219.730469 L 8.320312 219.738281 L 8.324219 219.742188 C 8.324219 219.742188 8.324219 219.746094 8.324219 219.746094 L 8.324219 219.757812 C 8.324219 219.757812 8.324219 219.761719 8.324219 219.761719 L 8.324219 219.765625 L 8.328125 219.769531 L 8.328125 219.796875 L 8.332031 219.800781 L 8.332031 219.835938 L 8.335938 219.839844 L 8.335938 219.882812 L 8.339844 219.886719 L 8.339844 220.003906 C 8.339844 220.007812 8.339844 220.007812 8.339844 220.007812 L 8.339844 220.128906 L 8.335938 220.132812 L 8.335938 220.175781 L 8.332031 220.179688 L 8.332031 220.210938 C 8.332031 220.210938 8.332031 220.210938 8.332031 220.214844 L 8.328125 220.21875 L 8.328125 220.222656 C 8.328125 220.226562 8.328125 220.226562 8.328125 220.230469 L 8.328125 220.238281 C 8.328125 220.238281 8.328125 220.242188 8.328125 220.242188 L 8.328125 220.246094 L 8.324219 220.25 L 8.324219 220.253906 C 8.324219 220.253906 8.324219 220.257812 8.324219 220.261719 L 8.324219 220.265625 C 8.324219 220.269531 8.324219 220.273438 8.320312 220.277344 L 8.320312 220.28125 C 8.320312 220.285156 8.320312 220.289062 8.320312 220.296875 C 8.269531 220.613281 8.140625 220.902344 7.949219 221.144531 C 7.621094 221.566406 7.117188 221.839844 6.550781 221.855469 C 6.546875 221.855469 6.546875 221.855469 6.542969 221.855469 C 6.542969 221.855469 6.539062 221.855469 6.539062 221.855469 Z M 6.453125 221.011719 C 6.1875 221.011719 5.941406 221.027344 5.714844 221.054688 C 5.777344 221.183594 5.84375 221.296875 5.921875 221.394531 C 6.074219 221.578125 6.253906 221.691406 6.453125 221.707031 Z M 6.601562 221.011719 L 6.601562 221.699219 C 6.773438 221.664062 6.933594 221.554688 7.066406 221.394531 C 7.144531 221.296875 7.214844 221.183594 7.273438 221.054688 C 7.066406 221.03125 6.839844 221.015625 6.601562 221.011719 Z M 7.425781 221.074219 C 7.355469 221.234375 7.273438 221.371094 7.179688 221.484375 C 7.144531 221.53125 7.105469 221.570312 7.066406 221.609375 C 7.335938 221.511719 7.574219 221.351562 7.761719 221.140625 C 7.660156 221.117188 7.546875 221.09375 7.425781 221.074219 Z M 5.5625 221.074219 C 5.441406 221.09375 5.328125 221.117188 5.226562 221.140625 C 5.414062 221.351562 5.652344 221.511719 5.925781 221.609375 C 5.882812 221.570312 5.847656 221.53125 5.808594 221.484375 C 5.714844 221.371094 5.632812 221.234375 5.5625 221.074219 Z M 5.359375 220.082031 L 4.796875 220.082031 L 4.796875 220.113281 L 4.800781 220.117188 L 4.800781 220.15625 C 4.800781 220.160156 4.800781 220.164062 4.804688 220.167969 C 4.824219 220.414062 4.898438 220.640625 5.015625 220.84375 L 5.015625 220.847656 L 5.019531 220.851562 L 5.019531 220.855469 C 5.054688 220.910156 5.089844 220.964844 5.125 221.015625 C 5.238281 220.984375 5.367188 220.957031 5.507812 220.933594 C 5.417969 220.683594 5.363281 220.390625 5.359375 220.082031 Z M 8.191406 220.105469 L 8.191406 220.082031 L 7.632812 220.082031 C 7.625 220.390625 7.570312 220.683594 7.480469 220.933594 C 7.625 220.957031 7.753906 220.984375 7.863281 221.015625 C 7.902344 220.964844 7.9375 220.910156 7.96875 220.855469 L 7.96875 220.851562 L 7.972656 220.851562 L 7.972656 220.84375 C 8.089844 220.640625 8.164062 220.414062 8.1875 220.167969 C 8.1875 220.164062 8.1875 220.160156 8.1875 220.15625 L 8.1875 220.136719 L 8.191406 220.132812 Z M 6.453125 220.863281 L 6.453125 220.082031 L 5.503906 220.082031 C 5.511719 220.386719 5.566406 220.671875 5.65625 220.914062 C 5.898438 220.882812 6.167969 220.867188 6.453125 220.863281 Z M 7.484375 220.082031 L 6.601562 220.082031 L 6.601562 220.863281 C 6.863281 220.867188 7.109375 220.886719 7.332031 220.914062 C 7.421875 220.671875 7.476562 220.386719 7.484375 220.082031 Z M 7.332031 219.101562 C 7.109375 219.128906 6.863281 219.148438 6.601562 219.152344 L 6.601562 219.933594 L 7.484375 219.933594 C 7.476562 219.628906 7.421875 219.347656 7.332031 219.101562 Z M 7.976562 219.175781 C 7.941406 219.113281 7.902344 219.058594 7.863281 219 C 7.753906 219.03125 7.625 219.058594 7.480469 219.082031 C 7.570312 219.332031 7.625 219.625 7.632812 219.933594 L 8.191406 219.933594 L 8.191406 219.882812 L 8.1875 219.878906 L 8.1875 219.855469 C 8.1875 219.851562 8.1875 219.851562 8.1875 219.851562 L 8.1875 219.84375 C 8.1875 219.84375 8.1875 219.839844 8.1875 219.839844 L 8.183594 219.835938 C 8.160156 219.605469 8.089844 219.382812 7.984375 219.1875 L 7.980469 219.183594 L 7.980469 219.179688 L 7.976562 219.179688 Z M 5.660156 219.101562 C 5.566406 219.347656 5.511719 219.628906 5.503906 219.933594 L 6.453125 219.933594 L 6.453125 219.152344 C 6.167969 219.152344 5.898438 219.132812 5.660156 219.101562 Z M 5.507812 219.082031 C 5.367188 219.058594 5.238281 219.03125 5.125 219 C 5.085938 219.058594 5.046875 219.113281 5.011719 219.175781 L 5.011719 219.179688 L 5.007812 219.183594 L 5.007812 219.1875 C 4.898438 219.382812 4.828125 219.605469 4.804688 219.835938 L 4.804688 219.839844 C 4.804688 219.839844 4.804688 219.84375 4.804688 219.84375 L 4.804688 219.847656 L 4.800781 219.851562 C 4.800781 219.851562 4.800781 219.851562 4.800781 219.855469 L 4.800781 219.898438 L 4.796875 219.902344 L 4.796875 219.933594 L 5.359375 219.933594 C 5.363281 219.625 5.417969 219.332031 5.507812 219.082031 Z M 6.453125 218.3125 C 6.253906 218.324219 6.074219 218.441406 5.921875 218.625 C 5.84375 218.71875 5.777344 218.832031 5.71875 218.960938 C 5.941406 218.988281 6.1875 219.003906 6.453125 219.003906 Z M 6.601562 218.320312 L 6.601562 219.003906 C 6.839844 219 7.066406 218.984375 7.273438 218.960938 C 7.214844 218.832031 7.144531 218.71875 7.066406 218.625 C 6.933594 218.460938 6.773438 218.351562 6.601562 218.320312 Z M 5.925781 218.40625 C 5.65625 218.503906 5.414062 218.667969 5.226562 218.875 C 5.328125 218.902344 5.441406 218.921875 5.566406 218.941406 C 5.632812 218.785156 5.714844 218.644531 5.808594 218.53125 C 5.847656 218.484375 5.882812 218.445312 5.925781 218.40625 Z M 7.066406 218.40625 C 7.105469 218.445312 7.144531 218.484375 7.179688 218.53125 C 7.273438 218.644531 7.355469 218.785156 7.425781 218.941406 C 7.546875 218.921875 7.660156 218.902344 7.761719 218.875 C 7.574219 218.667969 7.335938 218.503906 7.066406 218.40625 Z M 7.066406 218.40625 " fill-opacity="1" fill-rule="evenodd"/></g></svg>