<svg width="274" height="301" viewBox="0 0 274 301" fill="none" xmlns="http://www.w3.org/2000/svg">
<path fill-rule="evenodd" clip-rule="evenodd" d="M160.407 57.1475H160.466L249.717 108.586C257.13 112.839 263.318 118.839 267.579 126.237C271.84 133.694 274 141.966 274 150.529C274 159.092 271.899 167.365 267.579 174.821C263.259 182.219 257.13 188.161 249.717 192.414L248.9 192.938H248.842L161.283 243.386L72.8487 294.359C65.377 298.67 57.1466 301 48.5658 301C40.2769 301 32.3383 298.845 25.1585 294.825H25.1001L24.2829 294.359C16.8696 290.106 10.7405 284.106 6.42096 276.708C2.15978 269.31 0 260.979 0 252.416V248.862H0.0583582V154.083H0V48.5841C0 40.0207 2.10141 31.6903 6.42096 24.2921C10.6821 16.8938 16.8696 10.9518 24.2829 6.64101C31.6962 2.38844 39.9851 0 48.5658 0C57.1466 0 65.4354 2.38844 72.8487 6.64101L160.407 57.1475ZM28.8359 154.083V248.862V252.474C28.8359 255.911 29.5948 259.348 31.346 262.319L31.813 263.135C33.5641 265.814 35.9574 267.912 38.7009 269.484C41.6779 271.232 45.0635 272.222 48.5075 272.222C52.0098 272.222 55.337 271.232 58.3724 269.484L147.624 218.046H147.682L235.299 167.598C238.043 165.967 240.436 163.869 242.129 161.19L242.596 160.374C244.347 157.403 245.106 153.966 245.106 150.529C245.106 147.034 244.347 143.597 242.596 140.626C241.02 137.888 238.743 135.674 236.116 133.985L146.807 82.5464L59.248 32.0399H59.1896L58.3724 31.5738C55.337 29.8262 52.0098 28.8359 48.5075 28.8359C45.0635 28.8359 41.6779 29.8262 38.7009 31.5738L37.8836 32.0399C35.1985 33.7292 32.922 35.9429 31.346 38.7391C29.5948 41.7101 28.8359 45.1471 28.8359 48.5841V154.083ZM112.775 156.063C127.836 156.063 141.32 146.859 146.748 132.878L147.624 130.606H177.335L176.285 135.033C169.222 164.219 142.954 184.899 112.775 184.899C82.6553 184.899 56.3294 164.219 49.3247 135.033L48.2156 130.606H77.9272L78.8611 132.878C84.2897 146.859 97.7737 156.063 112.775 156.063Z" fill="url(#paint0_linear_8_279)"/>
<defs>
<linearGradient id="paint0_linear_8_279" x1="274.797" y1="0.00116508" x2="273.222" y2="301.018" gradientUnits="userSpaceOnUse">
<stop stop-color="#00A5FE"/>
<stop offset="1" stop-color="#0153F1"/>
</linearGradient>
</defs>
</svg>
