<svg width="422" height="469" viewBox="0 0 422 469" fill="none" xmlns="http://www.w3.org/2000/svg">
<rect width="422" height="469" rx="8" fill="#F1FBFF"/>
<mask id="mask0_192_1798" style="mask-type:alpha" maskUnits="userSpaceOnUse" x="0" y="0" width="422" height="469">
<rect width="422" height="469" rx="8" fill="#D3D2DC"/>
</mask>
<g mask="url(#mask0_192_1798)">
<path d="M130.816 229.203C131.735 228.292 132.846 226.684 133.538 226.578C160.016 222.554 186.722 217.724 212.829 214.936C242.808 211.693 272.65 209.249 301.966 208.106C339.225 206.774 375.975 206.952 412.771 206.864C420.137 206.824 426.933 208.352 433.502 210.16C438.753 211.595 442.046 215.335 439.321 223.947C438.695 225.938 438.894 228.076 439.464 229.503C442.43 237.206 438.748 247.362 435.796 256.779C431.417 271.085 420.905 282.289 408.743 289.681C390.055 300.986 371.146 311.521 352.31 321.315C312.911 341.875 273.479 361.493 234.09 381.895C208.64 395.084 183.327 410.469 158.375 427.769C155.575 429.717 152.818 431.923 149.729 434.208C150.634 435.032 150.955 435.638 151.171 435.516C157.833 431.329 162.395 434.288 168.085 433.38C205.826 427.494 243.749 421.07 281.008 416.744C335.352 410.427 387.89 409.343 439.114 411.773C482.011 413.843 523.705 418.579 563.453 427.403C573.955 429.749 583.68 433.626 593.477 437.287C600.449 439.851 604.13 445.556 603.863 455.451C603.63 463.294 603.972 470.988 601.284 479.492C598.896 486.975 596.191 495.271 591.47 501.882C586.749 508.494 579.543 514.298 573.059 518.996C544.97 539.373 516.192 553.867 487.483 569.197C442.359 593.242 397.147 616.769 352.377 644.831C331.528 657.878 310.942 672.48 290.215 686.463C287.667 688.181 285.26 690.519 282.894 694.166C289.807 692.744 296.629 691.853 303.633 689.899C362.395 673.579 421.256 657.095 480.09 640.56C533.313 625.61 586.171 612.264 638.281 602.442C666.929 597.043 695.65 591.428 723.462 589.035C725.978 588.842 728.484 588.808 730.891 588.938C739.065 589.363 739.723 591.308 735.043 601.698C736.298 602.652 737.705 603.542 738.977 604.705C739.738 605.434 740.875 606.345 740.629 607.467C738.775 616.485 739.23 625.273 733.26 634.817C731.381 637.797 728.451 640.91 725.74 642.851C718.797 647.742 711.74 652.064 704.682 656.386C663.651 681.273 622.533 705.642 581.563 730.996C552.486 748.98 523.663 768.678 496.228 792.576C486.317 801.213 476.655 810.672 467.396 820.362C460.526 827.506 460.477 831.291 467.402 831.653C482.887 832.462 498.408 833.164 514.463 832.406C549.414 830.779 584.9 827.692 619.751 826.23C652.419 824.882 683.864 826.517 714.304 830.487C723.651 831.714 732.781 833.588 740.8 837.07C760.472 845.594 764.91 866.472 758.751 894.516C755.814 907.661 748.475 920.618 737.28 931.77C736.108 932.91 734.594 934.287 734.069 935.587C730.832 944.291 724.347 949.515 717.691 954.594C717.27 954.153 717.021 953.332 716.365 953.33C715.593 953.284 714.576 953.835 713.685 954.27C713.559 954.385 713.15 955.729 713.357 955.766C713.993 956.085 714.81 956.39 715.628 956.17C716.267 955.963 717.069 955.009 717.763 954.378C716.133 963.642 708.623 971.517 704.057 980.007C701.806 984.224 698.846 988.337 697.134 992.512C695.739 995.876 695.529 999.358 695.213 1002.64C694.86 1006.03 695.056 1009.22 695.034 1013.05C693.871 1014.03 692.115 1015.48 690.331 1016.88C686.422 1019.91 683.927 1019.26 682.544 1016.48C680.964 1013.5 679.331 1010.42 678.624 1006.8C677.918 1003.18 677.69 999.044 678.333 994.793C678.959 990.334 681.74 986.234 686.569 984.761L686.389 984.775L688.092 983.227L687.956 983.5C690.598 980.724 690.966 978.069 690.643 975.521L690.57 975.736C691.084 975.119 691.688 974.495 692.202 973.878C692.346 973.972 692.489 974.066 692.632 974.16L692.13 974.094C691.487 972.883 690.871 971.722 690.228 970.511L690.255 970.561C691.541 967.521 689.801 964.241 694.23 961.486L694.104 961.601C697.161 955.379 699.662 948.99 703.267 943.094C711.198 930.197 719.649 917.575 727.84 904.815C730.442 900.729 732.72 896.564 735.177 892.384C738.132 887.378 737.812 883.779 734.997 881.999C731.716 880.044 727.92 878.707 724.178 877.47C718.444 875.651 712.574 874.106 706.741 872.452C707.488 871.922 708.236 871.392 708.983 870.862L708.911 871.078C708.199 871.5 707.515 871.972 706.804 872.394C703.372 872.447 698.666 874.856 698.087 870.594C682.617 873.512 669.402 871.164 655.261 871.302L655.441 871.288C647.463 871.584 639.458 871.83 631.38 872.291C596.959 874.036 562.303 876.219 528.027 877.532C507.767 878.296 487.97 877.817 468.172 877.339C453.378 876.949 441.384 872.144 434.968 859.348C434.433 858.338 433.771 857.444 432.883 856.829C423.366 849.995 423.95 836.821 427.531 821.893C429.646 813.013 435.144 804.871 441.387 797.25C453.195 782.848 466.371 770.494 480.118 759.042C520.586 725.165 562.722 697.777 604.891 670.807C613.201 665.496 621.476 659.768 629.805 654.14L629.598 654.104C630.166 653.587 630.797 653.014 631.364 652.498L631.418 652.599C634.054 651.399 636.727 650.091 640.191 648.513C638.44 645.391 635.156 646.955 632.621 647.465C606.812 652.751 580.976 657.987 555.085 663.647C505.864 674.508 455.849 689.16 405.953 703.329C385.568 709.145 365.228 714.695 344.88 720.403C340.905 721.548 336.812 723.175 332.765 724.535L332.972 724.572C330.221 725.203 327.496 725.884 324.745 726.515L324.988 726.444C322.956 727.02 320.951 727.646 318.918 728.222L318.981 728.165C317.039 728.734 315.097 729.303 313.065 729.879L313.244 729.865C312.436 729.927 311.717 729.982 310.908 730.044L311.088 730.03C310.52 730.546 309.952 731.062 309.322 731.636L309.331 731.478C306.893 732.347 304.41 733.483 302.028 733.928C287.925 736.427 273.885 738.868 259.791 741.208C256.69 741.708 253.681 741.676 250.616 742.069C243.525 742.98 238.267 741.177 235.808 734.958C234.49 731.593 232.135 729.62 228.932 728.342C224.796 726.716 224.264 722.187 224.373 716.402C224.788 702.557 233.187 692.303 243.866 682.293C259.917 667.251 276.947 654.759 293.994 642.477C329.52 616.909 365.751 595.488 402.024 574.852C440.736 552.821 479.527 531.467 518.203 509.544C529.904 502.87 541.519 495.153 553.195 487.903C554.248 487.245 555.391 486.58 556.4 485.662C560.879 481.59 561.315 477.302 557.276 476.562C544.779 474.158 532.517 471.316 519.577 469.839C492.036 466.75 464.386 463.984 436.355 462.088C418.123 460.859 399.221 461.362 380.572 461.11C343.248 460.556 304.165 464.969 265.507 468.246C244.741 469.995 223.657 472.555 202.61 475.008C196.724 475.722 190.537 477.456 184.515 478.443C179.338 479.26 174.269 479.753 169.165 480.354L169.282 480.398C166.341 481.201 163.5 481.839 160.551 482.8C157.448 483.826 154.236 485.175 151.097 486.308C148.687 487.228 146.167 488.472 143.947 488.694C132.66 489.979 121.518 490.833 110.267 492.01C99.5546 493.146 92.9766 488.503 88.7379 480.162C87.399 477.639 84.9973 475.932 82.8021 474.262C78.492 471.073 76.3152 466.618 79.1275 458.525C79.6358 457.015 80.0272 455.463 80.0498 454.095C80.17 445.158 85.5788 437.023 92.6989 430.175C101.784 421.391 111.129 412.744 120.74 405.128C149.547 382.228 179.354 363.505 209.257 345.668C254.742 318.602 300.408 296.458 346.11 274.207C349.088 272.771 352.237 271.479 355.101 269.474C356.874 268.235 358.338 265.707 360.007 263.741L359.934 263.957C362.173 263.418 364.385 262.828 366.624 262.289C366.805 261.75 366.987 261.211 367.168 260.672C365.22 260.348 363.38 259.701 361.323 259.702C308.202 260.568 254.691 262.462 199.411 269.481C167.713 273.538 135.678 278.724 103.762 283.428C90.0471 285.424 76.2955 287.528 62.5075 289.74C60.7009 290.036 58.6211 291.403 56.8508 291.591C52.6275 291.915 48.5762 291.858 44.4255 291.966C47.3503 290.429 50.5119 287.928 53.1998 287.354C64.7604 284.998 76.239 283.016 87.7442 281.084C104.669 278.264 121.658 275.387 138.474 272.89C164.916 268.973 191.494 264.784 217.673 261.78C240.041 259.173 261.928 258.126 284.069 256.325C292.426 255.685 300.918 254.771 309.284 253.973C317.406 253.771 325.501 253.518 333.622 253.316C334.341 253.261 335.06 253.206 335.779 253.151C336.498 253.096 337.217 253.04 337.936 252.985C338.654 252.93 339.373 252.875 340.065 252.77C340.784 252.715 341.566 252.602 342.285 252.547C343.004 252.492 343.686 252.545 344.405 252.49C345.187 252.377 345.969 252.265 346.724 252.102L346.715 252.26C345.933 252.373 345.151 252.485 344.369 252.597C343.65 252.653 342.904 252.657 342.249 252.655C341.53 252.71 340.748 252.822 340.029 252.878C339.31 252.933 338.591 252.988 337.873 253.043L333.559 253.373C326.317 251.355 318.413 250.91 309.221 254.03C306.977 253.677 304.814 252.95 302.335 253.035C291.095 253.528 279.828 253.971 268.38 254.954C241.673 257.315 214.931 259.784 188.079 262.577C167.886 264.702 147.439 267.581 127.138 270.03C119.75 270.911 112.611 270.145 105.012 272.566C94.6161 275.883 84.8908 277.468 75.322 277.939L75.5017 277.925C70.5941 278.721 65.7762 279.511 60.8686 280.307L61.0485 280.293C57.1733 281.273 53.063 282.691 51.0892 279.323C50.9821 279.121 49.0724 280.633 47.9828 281.399L48.0555 281.184C46.2643 282.214 44.4731 283.244 42.682 284.274C42.917 283.836 43.2152 283.34 43.4502 282.902C43.2152 283.34 43.0069 283.829 42.7719 284.267C39.95 284.588 37.3667 283.421 33.6796 287.222C34.2711 290.275 36.8597 289.867 39.0508 290.119C41.0353 290.335 42.7486 291.096 44.5344 291.642C38.7324 293.925 33.0201 296.201 25.8149 299.011C28.1036 299.624 29.4861 299.938 30.8054 300.309L30.8779 300.094C22.967 301.75 15.0007 303.831 7.23492 305.057C-18.3183 309.063 -43.3635 311.56 -67.4284 311.145C-78.0011 310.957 -85.8137 307.512 -89.5174 297.712C-90.6041 294.959 -93.0689 293.31 -95.1647 291.475C-99.9473 287.219 -101.058 280.897 -100.364 272.336C-98.7702 252.781 -86.7959 237.106 -72.0302 222.109C-53.4876 203.304 -33.7245 187.505 -13.3722 172.816C36.4275 136.963 87.2597 109.224 138.119 81.5358C185.126 55.9283 232.135 29.7956 279.107 3.77055C282.653 1.81821 287.004 0.854545 289.385 -4.52733L289.313 -4.31176C292.209 -5.37398 295.105 -6.43616 299.009 -7.89069C296.89 -10.827 293.651 -9.52854 291.099 -9.22795C248.358 -4.48253 204.798 3.47688 160.573 14.0607C106.126 27.0558 51.0889 44.4027 -5.02638 69.7627C-37.7581 84.5602 -70.168 102.432 -102.25 124.27C-105.761 126.64 -109.193 129.161 -112.587 131.574C-114.793 128.592 -115.022 125.458 -113.274 122.173C-115.962 122.747 -118.497 123.256 -120.916 123.809C-120.366 120.616 -120.527 117.845 -119.323 115.179C-118.083 112.406 -115.818 109.448 -113.628 107.232C-90.8034 84.1606 -66.3951 65.4841 -40.7067 50.8061C9.83271 21.9868 60.0871 0.384623 109.907 -14.987C186.247 -38.5353 260.818 -54.4905 332.621 -59.6245C343.52 -60.4071 353.785 -59.5655 364.222 -59.1048C367.312 -58.9213 369.985 -57.7606 372.731 -56.8156C375.71 -55.7834 377.32 -53.8059 375.191 -48.6534C374.349 -46.5406 374.33 -43.7557 375.107 -42.2921C379.391 -34.2173 375.672 -23.4284 371.52 -12.3962C369.172 -6.07151 365.445 -1.11172 359.916 2.56809C347.248 10.944 334.676 20.2055 321.868 27.4367C267.567 58.3298 213.213 88.5967 158.904 119.123C114.189 144.292 69.3061 168.791 25.0703 198.388C3.26303 212.979 -18.5365 227.937 -38.9126 246.987C-41.3096 249.166 -43.5553 251.807 -46.3498 254.647C-42.6937 257.308 -38.461 256.826 -34.0925 256.071C-13.8676 252.421 6.2943 248.828 26.5287 245.019C32.1379 243.959 37.6305 242.855 40.8035 247.601C46.0348 241.423 51.3036 240.074 56.5075 239.308C65.8009 237.966 74.9394 237.213 84.3054 235.655C92.6198 234.23 101.207 231.734 109.531 230.151C112.309 229.57 114.741 230.277 117.328 230.394L117.275 230.293C122.667 226.886 127.198 225.909 130.267 229.403L130.222 229.669L130.214 229.302L130.816 229.203ZM-5.72221 263.719C-4.97659 263.714 -4.1679 263.652 -3.44905 263.597C7.49443 263.074 18.2928 262.981 29.391 261.868C35.484 261.191 39.8168 263.013 44.6851 265.843C41.8484 267.899 39.8487 269.418 37.3542 271.237C40.3438 277.048 45.9453 275.621 52.4793 272.074L52.2996 272.088C54.6954 272.902 57.118 273.767 60.2136 274.842C60.8414 269.858 61.4942 265.448 61.9941 261.103C62.2917 258.14 63.6715 256.511 66.3327 255.887L66.1531 255.901C68.9041 255.27 71.5922 254.696 74.3432 254.065L74.1633 254.079C80.7532 252.576 87.452 250.75 93.9598 249.621C114.661 245.987 135.444 241.978 155.845 239.365C188.631 235.067 221.361 231.193 253.838 228.075C275.279 226.012 296.447 225.02 317.38 224.467C347.503 223.787 377.336 223.969 407.315 223.72C409.848 223.736 412.563 223.213 415.205 222.906C415.338 220.69 414.883 219.832 414.173 219.729C408.176 218.823 402.323 217.485 395.945 217.449C377.773 217.213 359.428 217.358 341.038 217.77C319.126 218.241 297.277 218.654 275.111 219.88C253.511 221.115 231.53 223.219 209.64 225.317C195.846 226.636 182.115 227.898 167.949 230.454C151.796 233.32 136.461 233.497 120.018 237.225C112.493 238.905 105.488 238.391 97.9821 239.754C83.5996 242.432 69.0987 245.591 54.6341 248.643C45.2129 250.625 35.828 252.499 26.2883 254.964C16.4427 257.556 6.46908 260.789 -3.45861 263.755C-4.20424 263.76 -4.98618 263.872 -5.73182 263.877L-5.65907 263.661L-5.72221 263.719ZM690.274 645.621C690.274 645.621 690.373 645.455 690.346 645.405L690.274 645.621ZM332.497 13.8074L332.596 13.6423L332.47 13.757L332.497 13.8074ZM140.52 450.512C141.265 450.508 142.011 450.503 142.82 450.441C143.539 450.386 144.231 450.281 145.013 450.168C148.337 449.913 151.526 449.932 154.897 449.411C182.391 445.361 209.957 441.095 237.478 437.096C289.724 429.469 340.254 427.068 389.959 426.988C416.649 426.886 443.012 427.755 468.796 429.824C495.559 431.974 521.336 436.144 547.556 439.387C550.16 439.713 552.837 439.823 555.414 440.098C557.695 440.343 559.94 440.697 562.158 440.999C562.465 440.346 562.71 439.749 562.991 439.045C557.66 437.458 552.528 435.54 546.989 434.441C541.603 433.278 535.81 432.934 530.252 432.152C508.334 429.263 486.732 425.561 464.271 423.763C442.079 421.944 419.227 421.7 396.311 421.512C376.467 421.3 356.507 421.043 335.984 422.721C298.89 425.773 261.325 430.227 223.914 434.091C221.874 434.3 220.016 433.97 218.048 433.963C216.198 434 214.257 434.043 212.297 434.404C201.546 436.698 190.658 439.265 179.879 441.509C172.481 443.074 165.201 444.157 157.73 445.937C153.495 446.945 149.113 448.909 144.787 450.448C144.068 450.503 143.376 450.609 142.594 450.721C141.849 450.726 141.103 450.73 140.294 450.792L140.367 450.577L140.52 450.512ZM282.595 705.586C283.34 705.581 284.086 705.577 284.832 705.572C285.938 705.014 286.982 704.514 288.116 704.007C288.951 703.996 289.823 703.877 290.659 703.865C300.134 701.984 309.454 700.692 319.056 698.17C357.621 688.02 396.24 677.446 434.804 667.296C438.499 666.33 442.49 668.388 445.399 666.116C450.119 662.499 453.965 661.994 458.129 660.677C465.18 658.456 472.112 656.717 479.09 654.712C540.973 637.05 602.108 622.913 662.358 612.571C677 610.032 691.515 608.132 706.112 605.858C709.994 605.245 714.109 605.245 719.044 599.037C716.484 598.971 714.949 598.721 713.205 598.959C699.669 600.942 686.187 603.025 672.652 605.008C637.302 610.29 601.361 617.98 565.219 626.527C517.038 637.939 468.4 652.012 419.78 665.769C384.567 675.714 349.318 685.768 314.123 695.922C306.354 698.198 298.483 701.165 290.659 703.865C289.85 703.927 288.951 703.996 288.143 704.058C287.036 704.615 285.992 705.116 284.858 705.623C284.113 705.627 283.367 705.632 282.622 705.636L282.748 705.522L282.595 705.586ZM652.584 625.873C651.901 625.82 651.156 625.824 650.5 625.822C649.808 625.928 649.026 626.04 648.334 626.146C646.571 626.701 644.719 627.263 642.956 627.818C642.057 627.887 641.249 627.949 640.35 628.018C639.631 628.073 638.912 628.128 638.257 628.126L638.329 627.91C639.048 627.855 639.767 627.8 640.423 627.802C641.258 627.791 642.13 627.671 642.966 627.66C644.728 627.105 646.581 626.543 648.343 625.987C649.035 625.882 649.817 625.769 650.509 625.664C651.192 625.717 651.964 625.762 652.647 625.815L652.917 625.795L652.584 625.873ZM630.084 630.17C629.401 630.117 628.719 630.064 628.099 629.954C627.407 630.06 626.625 630.172 625.933 630.278C624.107 630.89 622.318 631.395 620.492 632.008C619.684 632.07 618.911 632.024 618.103 632.086C615.926 630.099 612.983 631.953 610.01 634.282C606.83 631.637 602.748 632.58 597.876 636.262C591.115 632.683 582.711 636.583 574.042 641.922C573.296 641.926 572.461 641.938 571.715 641.942C569.8 642.562 567.974 643.174 566.058 643.794C565.313 643.799 564.567 643.803 563.732 643.815C563.491 643.36 563.276 642.957 563.035 642.502L563.215 642.489C560.705 643.574 558.195 644.659 555.712 645.795C553.597 644.276 551.235 643.879 547.917 647.495C546.002 648.114 544.086 648.734 542.108 649.41C541.299 649.472 540.463 649.484 539.718 649.489C537.865 650.051 535.976 650.721 534.124 651.283L531.734 651.361C529.756 652.038 527.777 652.714 525.798 653.391C524.009 653.896 522.13 654.408 520.314 654.862L517.924 654.94C514.368 654.582 511.086 652.628 506.449 658.34C503.788 658.964 501.19 659.531 498.529 660.155C496.613 660.774 494.698 661.394 492.755 661.963C491.857 662.032 491.048 662.093 490.15 662.162C488.297 662.724 486.471 663.337 484.682 663.842C483.873 663.904 483.065 663.966 482.256 664.028C481.384 664.147 480.449 664.324 479.514 664.5C479.468 664.767 479.486 664.975 479.44 665.241C480.394 664.748 481.285 664.312 482.265 663.869C483.074 663.807 483.883 663.745 484.692 663.683C486.544 663.121 488.37 662.509 490.222 661.947C491.121 661.878 491.93 661.816 492.828 661.747C494.744 661.128 496.659 660.508 498.602 659.939C501.263 659.315 503.861 658.748 506.522 658.124C510.317 656.993 514.138 655.913 517.996 654.724C518.805 654.662 519.577 654.708 520.386 654.646C522.239 654.084 524.055 653.63 525.907 653.068C527.886 652.391 529.891 651.765 531.87 651.088C532.679 651.026 533.424 651.021 534.233 650.959C536.086 650.397 537.938 649.835 539.827 649.165C540.635 649.103 541.471 649.092 542.28 649.03C544.195 648.41 546.111 647.791 548.026 647.171C550.624 646.605 553.223 646.038 555.821 645.471C558.482 644.847 561.143 644.223 563.867 643.542C564.613 643.537 565.422 643.475 566.167 643.47C568.02 642.908 569.908 642.238 571.761 641.676C572.57 641.614 573.315 641.61 574.151 641.598C582.108 639.676 590.001 637.81 597.985 635.938C602.021 635.261 606.083 634.635 610.119 633.958C612.817 633.226 615.514 632.494 618.175 631.87C618.984 631.808 619.73 631.804 620.565 631.792C622.417 631.23 624.243 630.617 626.033 630.113C626.725 630.007 627.507 629.895 628.199 629.789C628.908 629.892 629.591 629.945 630.3 630.048L630.174 630.163L630.084 630.17ZM363.136 709.341L363.036 709.506L363.162 709.391L363.136 709.341ZM278.224 46.6942L278.404 46.6803C277.764 47.4121 277.097 48.0936 276.456 48.8254C275.791 48.9814 275.153 49.1879 275.971 48.9676C275.17 49.3966 275.908 49.025 276.619 48.6029C277.133 47.9858 277.71 47.3113 278.224 46.6942ZM358.033 252.443C357.314 252.498 356.596 252.553 355.85 252.558C355.527 252.478 355.267 252.34 355.06 252.303C355.267 252.34 355.563 252.37 355.922 252.342C356.641 252.287 357.36 252.232 358.079 252.177C358.888 252.115 359.759 251.996 360.568 251.934C365.724 251.959 370.971 251.977 376.127 252.002C377.332 254.273 379.427 253.64 381.803 252.303C381.994 251.605 382.096 250.915 382.287 250.217C380.218 250.901 378.15 251.585 376.081 252.268C372.475 248.291 366.584 250.055 360.522 252.2C359.714 252.262 358.842 252.381 358.033 252.443ZM138.201 1.85717L138.129 2.07275C137.23 2.1416 136.394 2.15315 135.496 2.222C134.389 2.77948 133.345 3.27964 132.238 3.83712C131.403 3.84862 130.504 3.91744 129.696 3.97941C128.589 4.53689 127.482 5.09426 126.375 5.65175C125.54 5.66325 124.731 5.72534 123.895 5.73684C122.789 6.29432 121.682 6.8517 120.548 7.35872C119.713 7.37022 118.967 7.37486 118.132 7.38636C116.252 7.89799 114.4 8.4601 112.521 8.97174C111.261 9.59346 110.064 10.1578 108.804 10.7796C108.059 10.7842 107.25 10.8461 106.504 10.8507C105.308 11.4151 104.021 11.9863 102.824 12.5507C100.918 13.0118 99.0391 13.5235 97.1331 13.9847C95.1562 14.1361 93.2442 13.7049 91.2025 14.4391C70.858 21.565 50.6508 27.8927 30.1938 36.3927C10.0427 44.7643 -10.2856 55.0925 -30.488 65.3062C-47.9547 74.1548 -65.4518 84.0037 -82.2616 97.7914C-85.7387 100.579 -89.189 103.417 -92.603 106.147C-95.6367 108.007 -98.7335 109.925 -101.83 111.843C-101.706 112.254 -101.671 112.671 -101.547 113.082C-98.5114 110.696 -95.5658 108.317 -92.5303 105.931C-89.0532 103.144 -85.6661 100.363 -82.1891 97.5758C-79.2012 95.9813 -76.2228 94.5451 -73.1986 92.8429C-62.0194 86.4192 -50.8653 79.4197 -39.6516 73.4136C2.59362 50.6394 44.7043 33.075 86.6073 18.4676C90.079 17.2562 93.6154 15.4622 97.196 13.9274C99.1384 13.3584 101.018 12.8467 102.96 12.2777C104.184 11.7638 105.443 11.1421 106.667 10.6282C107.412 10.6236 108.221 10.5617 108.967 10.5571C110.227 9.93533 111.423 9.37095 112.683 8.74922C114.562 8.23759 116.415 7.6755 118.294 7.16386C119.129 7.15237 119.938 7.09035 120.711 7.1362C121.818 6.57872 122.951 6.0718 124.058 5.51432C124.893 5.50282 125.702 5.44074 126.538 5.42924C127.645 4.87175 128.751 4.31438 129.858 3.75689C130.694 3.74539 131.565 3.6261 132.401 3.6146C133.508 3.05712 134.551 2.55697 135.658 1.99949C136.557 1.93064 137.392 1.91907 138.264 1.79974L138.201 1.85717ZM157.848 -3.58721L157.722 -3.47258L157.479 -3.40145L157.848 -3.58721ZM363.037 294.653C364.197 294.197 365.385 293.791 366.608 293.277L366.535 293.492C365.375 293.949 364.188 294.355 362.964 294.869L363.037 294.653ZM360.519 277.042L360.905 277.065L360.446 277.258L360.519 277.042ZM450.719 670.856L450.853 671.108L450.593 670.97L450.719 670.856ZM135.152 253.765C135.856 255.444 137.149 255.765 139.33 253.707L139.257 253.923C137.856 253.925 136.454 253.928 135.08 253.98L135.152 253.765ZM246.707 240.543C245.243 240.603 243.778 240.662 242.278 240.83C240.211 240.988 238.171 241.197 236.041 241.413L236.167 241.298C238.207 241.089 240.274 240.931 242.377 240.665C243.841 240.605 245.306 240.545 246.744 240.435L246.797 240.536L246.707 240.543ZM376.973 705.812C378.888 705.193 380.867 704.516 382.783 703.896C387.386 702.703 391.926 701.568 396.557 700.425C403.344 699.117 410.138 698.177 417.017 696.337C451.769 687.109 486.803 676.652 521.345 668.438C562.576 658.556 603.397 650.544 644.454 641.569C647.808 640.839 651.352 639.412 654.787 638.308L655.409 637.893L655.041 637.554C652.319 637.71 649.679 637.492 646.874 638.022C613.397 644.894 580.019 651.6 546.433 658.795C528.462 662.641 510.436 666.91 492.255 671.77C467.951 678.306 443.519 685.483 419.087 692.659C411.65 694.857 404.013 697.911 396.458 700.591C391.854 701.784 387.314 702.919 382.71 704.112C380.795 704.732 378.816 705.408 376.9 706.028C376.065 706.039 375.256 706.101 374.358 706.17C372.478 706.682 370.689 707.186 368.81 707.698L368.936 707.583C370.761 706.971 372.578 706.517 374.43 705.955C375.266 705.943 376.137 705.824 376.973 705.812ZM287.884 27.362C286.787 27.7612 285.69 28.1603 284.566 28.5091C284.6 28.9266 284.635 29.3441 284.669 29.7616C285.795 28.8875 286.831 28.0204 287.93 27.0958C289.091 26.6393 290.314 26.1254 291.475 25.6689C291.413 25.2009 291.289 24.7903 291.201 24.2719C290.065 25.3043 288.93 26.3365 287.795 27.3688L287.884 27.362ZM696.567 966.244L696.747 966.23C696.824 967.432 696.811 968.641 696.887 969.843C697.329 969.441 697.797 969.09 698.265 968.739C697.72 967.888 697.112 967.095 696.567 966.244ZM668.144 672.998C663.994 673.106 660.14 675.712 656.487 679.931C652.997 681.459 649.408 682.627 646.006 684.673C624.563 697.661 603.05 710.338 581.793 724.204C560.815 737.891 539.977 752.722 519.212 767.338C512.332 772.172 505.746 778.086 499.07 783.482C508.757 777.593 517.953 770.428 527.362 764.193C558.01 743.883 588.703 723.832 619.458 703.724C631.811 695.635 644.244 687.697 656.623 679.658C660.548 677.362 664.499 675.116 668.423 672.819L668.874 672.26L668.297 672.934L668.144 672.998ZM355.891 311.85C351.551 314.598 347.248 317.239 342.909 319.987C341.045 321.233 339.181 322.478 337.381 323.667C334.152 324.807 330.942 325.631 327.721 327.138C317.841 331.781 308.006 336.684 298.144 341.536C291.845 344.645 285.573 347.804 279.238 351.02C272.965 354.179 266.569 356.928 260.366 360.922C254.289 364.801 248.264 363.845 242.287 370.028C241.719 370.544 240.731 370.62 239.94 370.89C233.688 373.207 227.425 373.74 221.169 380.101C220.06 381.184 218.359 382.207 217.281 382.29C212.725 382.692 208.814 386.247 204.911 390.17C204.343 390.687 203.775 391.203 203.271 391.662C201.139 392.403 198.543 392.444 196.957 394.036C188.881 401.903 179.938 405.844 171.5 411.795C160.073 419.866 148.787 428.556 137.458 436.987L137.53 436.771C141.265 434.647 145.054 432.623 148.746 430.24C163.069 421.107 177.341 411.347 191.716 402.841C229.801 380.333 268.024 359.495 306.296 340.334C316.653 335.181 327.004 329.136 337.39 323.508C339.254 322.263 341.118 321.017 342.919 319.829C347.67 320.147 351.896 316.305 355.927 311.742L355.801 311.857L355.891 311.85ZM67.7627 263.34L67.9424 263.326C67.2907 264.742 66.6124 266.107 65.4543 268.506C69.9585 267.478 73.7075 266.613 77.9421 265.606C76.8799 260.961 76.6752 260.399 74.0086 262.599C70.9368 265.093 69.4111 264.684 67.7895 263.391L67.7627 263.34ZM225.244 463.033L225.37 462.918C223.869 463.086 222.432 463.196 220.904 463.313L221.084 463.299C218.522 463.758 215.933 464.166 213.362 464.783C210.395 465.536 207.418 466.447 204.415 467.307C204.287 467.947 204.123 468.695 203.995 469.335C218.745 469.465 234.794 465.347 250.433 463.098C249.649 461.268 248.467 460.098 246.849 460.222C239.741 460.924 232.551 462 225.307 462.975L225.244 463.033ZM342.601 455.459C349.941 457.837 358.632 456.594 367.186 456.149C381.993 455.329 396.302 455.861 410.719 456.069C426.089 456.31 441.35 456.873 456.647 457.329C458.731 457.38 460.824 457.272 464.346 457.212C462.445 453.629 460.101 453.441 457.225 453.661C452.912 453.992 448.744 453.891 444.639 453.733C438.127 453.444 431.751 452.882 425.176 452.65C411.847 452.201 398.48 451.86 385.015 451.684C373.993 451.53 362.925 451.643 351.794 451.813C348.928 451.875 345.785 451.591 342.565 455.566C341.668 455.11 340.798 454.704 339.901 454.248C339.765 454.521 339.54 454.8 339.404 455.073C340.473 455.149 341.542 455.225 342.637 455.351L342.601 455.459ZM515.597 549.396C512.664 550.566 509.661 551.427 506.7 553.071C466.542 574.845 426.377 596.252 386.271 618.653C351.007 638.371 316.103 660.53 281.994 686.83C279.211 688.986 276.508 691.294 273.778 693.552C276.501 693.396 278.904 692.109 281.182 690.411C315.11 664.65 349.752 642.879 384.746 623.181C418.57 604.098 452.464 585.85 486.332 567.027C496.142 561.548 505.794 555.242 515.57 549.346L516.191 548.93C516.191 548.93 515.75 549.332 515.56 549.504L515.597 549.396ZM632.364 667.599C639.012 662.153 645.724 656.649 652.372 651.203C650.395 651.355 648.506 652.025 646.679 653.162C618.32 671.091 589.927 688.603 561.674 707.259C543.136 719.551 524.951 733.391 506.652 746.663C502.726 749.484 499.021 753.077 495.193 756.259C506.805 749.067 517.99 741.067 529.209 733.485C542.076 724.779 554.969 716.123 567.871 707.834C578.134 701.271 588.422 695.283 598.667 689.036L600.37 687.487C611.029 680.788 621.688 674.089 632.284 667.448L632.211 667.663L632.364 667.599ZM556.38 512.764C555.123 509.866 552.594 511.268 549.694 513.381C544.894 516.847 540.156 520.782 535.313 523.464C517.906 533.306 500.411 542.629 482.923 552.32C448.839 571.265 414.764 590.052 380.751 609.307C349.635 626.974 318.819 646.614 288.505 668.789C278.59 676.009 268.415 683.091 259.613 693.114C262.358 691.591 264.969 689.815 267.536 687.78C288.236 671.278 309.351 656.793 330.805 643.122C384.165 609.045 437.974 580.396 491.787 550.695C503.937 543.987 516.062 536.703 528.452 530.975C537.773 526.689 547.223 518.77 556.579 512.433C557.146 511.917 557.651 511.458 556.894 512.147C557.508 511.364 557.02 512.032 556.506 512.649L556.38 512.764ZM144.357 120.08L144.473 120.124C132.377 126.933 120.253 133.691 108.093 140.558L108.21 140.601C104.402 142.941 100.594 145.281 96.8225 147.513C67.1638 164.754 37.5491 182.254 8.37293 202.871C-0.064684 208.822 -8.69731 214.053 -17.1522 219.795C-23.338 223.998 -28.5236 229.91 -33.2616 236.313C-23.5279 229.632 -14.0888 222.396 -4.57881 215.47C26.0672 193.217 57.3046 174.018 88.6724 156.121C138.258 127.795 187.922 100.146 237.551 72.0788C243.231 68.8601 248.868 64.8569 254.513 61.2207C257.006 59.9268 259.409 58.6397 261.902 57.3458C261.787 56.7768 261.645 56.1575 261.53 55.5886C259.179 57.5019 256.855 59.4657 254.503 61.379C250.034 62.8244 245.459 63.5425 241.076 66.0317C228.088 73.2766 215.16 81.515 202.172 88.7599C182.893 99.4805 163.617 109.676 144.357 120.08ZM313.667 -17.627C311.898 -17.9642 310.311 -18.8405 308.325 -18.5307C279.753 -14.3983 251.425 -10.8622 222.616 -5.76622C171.416 3.30371 119.376 16.4295 66.3471 35.0931C10.9436 54.5689 -44.4337 79.5572 -99.4713 118.227C-101.092 119.402 -102.696 120.785 -104.264 122.061C-103.231 122.244 -102.403 121.866 -101.629 121.386C-64.5962 96.5429 -27.1854 76.8176 10.4021 60.5976C110.156 17.5561 205.477 -3.35015 298.942 -14.7132C303.687 -15.2868 308.786 -16.7804 313.676 -17.7854L313.667 -17.627ZM337.191 289.649C326.43 294.57 315.733 299.433 304.945 304.304L305.125 304.29C300.95 306.291 296.685 308.298 292.51 310.299L292.689 310.285C289.648 311.778 286.606 313.272 283.565 314.765L283.745 314.752C267.161 322.797 250.499 330.166 233.921 339.104C220.61 346.269 207.453 355.838 194.15 363.37C173.899 374.9 154.355 389.527 134.848 404.047C131.632 406.447 128.658 409.301 125.487 411.959C133.447 408.986 140.738 404.751 147.973 398.472C153.1 394.035 159.198 391.782 164.897 388.247C179.643 379.029 194.24 368.825 209.204 361.428C214.828 358.634 220.515 355.782 226.122 352.779C229.911 350.756 233.638 348.264 237.446 345.924C238.014 345.408 238.582 344.892 239.15 344.376C244.865 341.049 250.518 337.78 256.234 334.454L256.054 334.467C262.84 330.691 269.6 326.864 276.386 323.088C296.709 311.867 317.094 300.59 337.416 289.369L346.061 285.923C346.01 285.296 345.985 284.721 345.933 284.094C343.079 285.941 340.198 287.738 337.344 289.584L337.191 289.649ZM533.676 511.037C534.345 509.83 535.05 508.516 536.388 506.103C533.274 507.812 531.402 508.69 529.548 509.778C517.009 516.988 504.552 524.35 492.023 531.403C451.655 554.19 411.289 576.453 370.929 599.608C334.583 620.46 298.741 643.846 264.147 672.757C260.066 676.168 256.262 679.926 252.288 683.539C254.724 683.195 256.983 681.814 259.136 680.231C262.793 677.43 266.388 674.16 270.072 671.41C300.287 648.874 331.123 628.918 362.124 610.682C408.58 583.331 455.045 555.821 501.829 532.437C505.887 530.393 509.967 527.507 513.947 524.786C518.863 521.363 523.736 517.681 528.662 514.1C528.578 514.999 528.458 516.006 528.374 516.905C530.91 515.871 533.922 515.377 533.766 511.03L533.676 511.037ZM24.9515 156.749C3.10731 168.979 -17.849 184.293 -37.7758 203.309C-35.0438 202.994 -32.0423 202.659 -29.8977 200.709C-23.1483 194.573 -15.9947 191.136 -8.94661 186.972C-5.175 184.74 -1.49143 181.989 2.16534 179.188C7.66863 174.932 12.923 169.855 18.5316 166.327C34.4666 156.178 50.4915 146.022 66.5759 136.859C107.511 113.555 148.472 90.8262 189.442 67.9397C200.611 61.6743 212.028 56.7556 222.941 49.302C237.492 39.3637 252.154 31.045 266.826 22.5681C268.554 21.5954 270.211 20.313 271.886 19.2394C270.765 18.5375 269.731 18.8793 268.714 19.4299C235.343 37.4277 202.034 55.368 168.627 73.4736C165.36 75.247 162.208 77.5892 158.922 79.6792C156.475 80.707 154.047 81.4183 151.67 82.7557C121.411 99.5697 91.1979 116.118 61.0001 133.399C48.8039 140.374 36.809 148.961 24.7087 156.82L24.8348 156.706L24.9515 156.749ZM-72.2423 78.4318C-71.1736 78.5074 -70.7433 78.7896 -70.3744 78.6038C-65.19 75.6856 -60.0229 72.5586 -54.8386 69.6404C-15.9484 48.1212 22.8964 29.3365 61.6182 15.0778C142.596 -14.7082 220.827 -31.5214 297.47 -41.2803C315.768 -43.6277 333.502 -44.0411 351.5 -45.3676C353.747 -45.5397 356.016 -44.6107 360.076 -49.6486C350.708 -50.0337 342.545 -51.1414 333.866 -50.5814C297.179 -48.3482 259.411 -42.5133 221.134 -34.6435C173.075 -24.7639 124.488 -12.5328 75.0122 4.54551C37.4717 17.5057 -0.234254 34.2075 -38.0289 55.8529C-49.424 62.3981 -60.7311 69.4617 -72.2423 78.4318ZM-33.5503 220.789C-32.2638 220.218 -30.8432 219.899 -29.6906 219.075C-18.4412 210.493 -7.29705 201.183 4.06717 193.17C34.8548 171.536 66.188 153.222 97.6093 135.426C154.889 103.097 212.213 71.0267 269.483 38.8557C271.796 37.5756 274.129 35.9789 276.451 34.5405C276.426 33.9647 276.428 33.4392 276.403 32.8634C273.299 34.4142 270.177 35.7564 267.089 37.516C249.386 47.3282 231.61 57.3559 213.933 67.2185C172.198 90.4263 130.42 113.375 88.6659 136.899C56.975 154.716 25.6095 174.556 -5.57204 195.799C-15.4587 202.544 -25.0335 210.053 -33.5503 220.789ZM129.586 427.086C152.309 412.635 174.359 397.973 196.566 384.665C219.116 371.12 241.805 358.72 264.404 346.327C286.418 334.242 308.508 323.883 330.516 310.905C320.954 314.737 311.336 318.992 301.751 324.191C278.055 336.983 254.273 345.738 230.643 359.891C208.373 373.256 186.12 386.831 164.009 401.025C152.503 408.419 140.657 415.524 129.559 427.036L129.586 427.086ZM674.019 654.639C613.642 688.886 553.645 725.258 495.776 772.338C554.351 728.88 614.464 693.077 674.019 654.639ZM472.696 458.673C474.932 458.659 477.143 458.595 479.379 458.581C479.66 457.877 480.004 457.115 480.258 456.361C478.448 455.239 477.216 452.917 472.696 458.673ZM529.773 541.22C529.641 540.442 529.419 539.671 529.287 538.894C527.098 540.584 524.82 542.282 522.631 543.973L523.029 545.781C525.298 544.241 527.567 542.702 529.773 541.22ZM196.372 470.655C195.961 467.587 194.922 466.511 192.562 471.051C194.063 470.884 195.204 470.744 196.372 470.655ZM298.205 22.3171C298.496 21.4545 298.651 20.865 298.832 20.3259C298.13 20.5897 297.375 20.7526 296.664 21.1747C296.475 21.3468 296.301 22.2529 296.12 22.792C296.812 22.6865 297.54 22.4731 298.205 22.3171ZM551.63 501.521C551.443 501.168 551.408 500.75 551.284 500.339C550.032 501.328 548.806 502.367 547.581 503.407C547.581 503.407 547.803 504.177 547.927 504.588C549.126 503.498 550.378 502.51 551.603 501.47L551.63 501.521ZM184.457 458.595C184.992 457.136 185.607 455.828 185.464 455.734C184.764 455.473 183.902 455.434 182.993 455.661C182.751 455.732 181.891 457.636 181.998 457.838C182.445 458.329 183.371 458.311 184.367 458.602L184.457 458.595ZM321.621 -31.8916C321.621 -31.8916 321.794 -32.7978 321.877 -33.1717C321.634 -33.1006 321.301 -33.0226 321.238 -32.9653C321.093 -32.534 321.038 -32.1096 320.982 -31.6852C321.225 -31.7563 321.378 -31.8205 321.621 -31.8916ZM485.094 764.543L485.48 764.566L485.689 764.077L485.121 764.593L485.094 764.543ZM146.652 253.409C147.031 253.065 147.463 252.822 147.868 252.528C147.787 252.377 147.627 252.074 147.501 252.188C147.132 252.374 146.663 252.725 146.321 252.962C146.402 253.113 146.572 253.257 146.715 253.352L146.652 253.409ZM314.408 26.0651C314.849 25.6636 315.264 25.2116 315.742 24.7024C315.455 24.5143 315.187 24.0096 314.881 24.138C314.422 24.3308 313.998 24.9409 313.557 25.3424C313.87 25.581 314.157 25.7691 314.471 26.0077L314.408 26.0651ZM663.57 644.463C664.109 644.422 664.612 644.488 665.071 644.295C665.35 644.116 665.541 643.419 665.749 642.931C665.237 643.022 664.797 642.899 664.275 643.149C664.059 643.27 663.778 643.974 663.507 644.52L663.57 644.463ZM497.736 460.221C497.736 460.221 498.151 459.769 498.376 459.489C498.089 459.301 497.839 459.005 497.489 458.874C497.489 458.874 497.074 459.326 496.912 459.549C497.198 459.737 497.512 459.975 497.799 460.163L497.736 460.221ZM553.752 524.73L553.328 525.34L553.903 525.191L553.662 524.736L553.752 524.73ZM693.112 981.056C693.112 981.056 693.965 981.254 694.217 981.024C694.532 980.737 694.75 980.09 695.049 979.595C694.662 979.572 694.196 979.397 693.943 979.627C693.628 979.914 693.41 980.561 693.175 980.999L693.112 981.056ZM684.208 648.817C684.208 648.817 683.749 649.009 683.596 649.073C683.613 649.282 683.505 649.606 683.621 649.649C683.675 649.75 684.107 649.507 684.233 649.392C684.359 649.278 684.288 648.968 684.271 648.759L684.208 648.817ZM390.001 280.088L390.242 280.542L390.603 279.989L390.001 280.088ZM282.839 44.8175L282.453 44.7946L282.424 45.2695L282.866 44.868L282.839 44.8175ZM717.836 872.39L717.394 872.791L717.834 872.915L717.836 872.39ZM307.053 212.758C307.171 212.277 307.515 211.515 307.381 211.263C307.248 211.01 306.645 211.109 306.232 211.035C306.041 211.733 305.887 212.322 305.696 213.02C306.118 212.935 306.567 212.9 307.053 212.758ZM748.283 892.587C748.283 892.587 748.318 893.005 748.335 893.214C748.524 893.042 748.857 892.964 748.866 892.805C748.939 892.59 748.832 892.388 748.841 892.23C748.652 892.402 748.499 892.466 748.283 892.587ZM668.022 835.609C668.022 835.609 668.41 835.106 668.573 834.884C668.267 835.012 667.961 835.14 667.629 835.218C667.709 835.37 667.852 835.464 667.996 835.558L668.022 835.609ZM561.992 508.185L562.676 507.712L562.219 507.379L561.992 508.185ZM567.403 491.594L566.963 491.47L566.898 492.053L567.403 491.594Z" fill="#D3D2DC"/>
<path d="M250.44 268.197C264.035 267.208 277.63 266.219 291.279 265.331C292.986 265.2 294.376 265.881 295.938 266.182L296.011 265.966C281.877 266.996 267.742 268.027 253.644 268.95C252.476 269.039 251.535 268.323 250.512 267.982L250.44 268.197Z" fill="#D3D2DC"/>
<path d="M686.595 984.812C685.745 983.564 684.87 982.266 683.77 980.722C685.408 977.288 685.683 973.222 690.255 970.561L690.228 970.511C690.33 972.288 690.494 974.009 690.596 975.787L690.669 975.572C688.234 978.384 687.03 981.05 687.982 983.55L688.118 983.277C687.55 983.793 686.983 984.31 686.415 984.826L686.595 984.812Z" fill="#D3D2DC"/>
<path d="M328.876 264.814C323.037 264.736 317.225 264.709 311.386 264.631L311.313 264.847C317.152 264.925 322.964 264.952 328.803 265.03L328.876 264.814Z" fill="#D3D2DC"/>
<path d="M133.999 138.626C128.643 141.924 123.323 145.116 117.966 148.415C117.932 147.997 117.897 147.58 117.827 147.27C123.181 144.496 128.536 141.723 133.926 138.841L133.999 138.626Z" fill="#D3D2DC"/>
<path d="M13.5325 212.771L2.27892 219.935C2.27892 219.935 2.19084 219.417 2.17359 219.208C5.93567 217.134 9.69786 215.06 13.3701 212.993L13.4962 212.879L13.5325 212.771Z" fill="#D3D2DC"/>
<path d="M243.478 381.964C248.022 379.778 252.503 377.649 257.047 375.463L257.12 375.247C252.576 377.433 248.032 379.62 243.488 381.806L243.388 381.971L243.478 381.964Z" fill="#D3D2DC"/>
<path d="M303.015 351.246C298.435 353.54 293.881 355.885 289.301 358.179L289.229 358.395C293.809 356.101 298.362 353.756 302.943 351.462L303.015 351.246Z" fill="#D3D2DC"/>
<path d="M235.291 269.254C238.732 269.043 242.21 268.724 245.652 268.513L245.724 268.297C242.283 268.508 238.805 268.827 235.364 269.039L235.291 269.254Z" fill="#D3D2DC"/>
<path d="M228.959 271.419C225.491 271.58 222.023 271.74 218.555 271.901L218.482 272.117C222.631 270.066 226.145 269.639 228.824 271.692L228.896 271.476L228.959 271.419Z" fill="#D3D2DC"/>
<path d="M154.857 279.093C151.593 279.815 148.357 280.589 145.093 281.311L145.021 281.527C148.257 280.754 151.521 280.031 154.757 279.258L154.83 279.042L154.857 279.093Z" fill="#D3D2DC"/>
<path d="M161.63 278.995C163.671 278.26 165.803 277.519 167.845 276.785C167.726 277.267 167.608 277.749 167.49 278.23C165.539 278.432 163.589 278.634 161.676 278.728L161.603 278.944L161.63 278.995Z" fill="#D3D2DC"/>
<path d="M44.0396 191.313C46.3622 189.875 48.7479 188.379 51.0705 186.941C51.0782 187.308 51.1223 187.567 51.13 187.934C48.7997 189.005 46.5324 190.019 44.202 191.091L44.076 191.206L44.0396 191.313Z" fill="#D3D2DC"/>
<path d="M348.918 264.696C346.018 264.341 343.027 263.992 340.127 263.637L340.054 263.852C342.982 264.258 345.882 264.614 348.809 265.02L348.882 264.804L348.918 264.696Z" fill="#D3D2DC"/>
<path d="M79.5796 170.001C81.4166 168.705 83.2804 167.46 85.1174 166.163C85.1251 166.53 85.196 166.84 85.177 167.157C83.3054 168.035 81.5237 168.907 79.6521 169.786L79.5796 170.001Z" fill="#D3D2DC"/>
<path d="M311.897 346.837C308.945 348.324 305.994 349.81 303.042 351.297L302.969 351.512C305.921 350.026 308.873 348.539 311.824 347.052L311.897 346.837Z" fill="#D3D2DC"/>
<path d="M320.689 342.434C317.737 343.92 314.785 345.407 311.834 346.894L311.761 347.109C314.713 345.623 317.664 344.136 320.616 342.649L320.689 342.434Z" fill="#D3D2DC"/>
<path d="M178.988 114.327C177.459 114.969 175.93 115.611 174.463 116.196C174.509 115.93 174.555 115.664 174.601 115.398C176.048 115.13 177.468 114.811 178.889 114.492L178.988 114.327Z" fill="#D3D2DC"/>
<path d="M262.674 371.618C265.553 370.347 268.342 369.083 271.221 367.812L271.294 367.596C268.505 368.86 265.626 370.131 262.837 371.395L262.764 371.611L262.674 371.618Z" fill="#D3D2DC"/>
<path d="M289.301 358.179C286.35 359.666 283.335 361.209 280.383 362.696L280.311 362.912C283.262 361.425 286.214 359.939 289.229 358.395L289.301 358.179Z" fill="#D3D2DC"/>
<path d="M271.221 367.812C274.272 366.16 277.323 364.508 280.374 362.857L280.447 362.641C277.396 364.293 274.345 365.945 271.294 367.596L271.221 367.812Z" fill="#D3D2DC"/>
<path d="M13.4317 212.935C14.7927 211.623 16.0639 210.317 17.4249 209.005C17.532 209.207 17.6123 209.358 17.7194 209.56C16.3145 210.613 14.9992 211.66 13.621 212.763L13.5217 212.928L13.4317 212.935Z" fill="#D3D2DC"/>
<path d="M-9.87077 229.112L-9.6262 228.516L-9.17698 228.481L-9.87077 229.112Z" fill="#D3D2DC"/>
<path d="M235.364 269.039C233.259 269.83 231.127 270.571 229.022 271.363C229.022 271.363 228.95 271.579 228.887 271.636C230.991 270.844 233.159 269.995 235.291 269.254L235.364 269.039Z" fill="#D3D2DC"/>
<path d="M266.629 -1.41756C268.392 -1.97276 270.154 -2.52801 271.917 -3.08322L271.99 -3.2988C270.227 -2.7436 268.464 -2.18835 266.702 -1.63315L266.629 -1.41756Z" fill="#D3D2DC"/>
<path d="M185.949 12.0107C184.15 12.6737 182.324 13.2863 180.525 13.9493L180.453 14.1649C182.252 13.5019 184.077 12.8893 185.876 12.2263L185.949 12.0107Z" fill="#D3D2DC"/>
<path d="M385.995 464.633C387.467 464.94 388.903 465.355 390.375 465.663L390.448 465.447C388.976 465.139 387.54 464.724 386.068 464.417L385.995 464.633Z" fill="#D3D2DC"/>
<path d="M148.555 21.5455C150.317 20.9903 152.143 20.3777 153.906 19.8225L153.978 19.6069C152.215 20.1621 150.39 20.7746 148.627 21.3298L148.555 21.5455Z" fill="#D3D2DC"/>
<path d="M37.3781 195.502C39.6108 194.071 41.8071 192.747 44.0399 191.315C44.0399 191.315 44.166 191.201 44.2023 191.093C41.9696 192.524 39.7369 193.956 37.5042 195.387L37.3781 195.502Z" fill="#D3D2DC"/>
<path d="M327.68 727.288C325.764 727.908 323.885 728.419 321.969 729.039L321.843 729.154C322.942 728.229 323.925 727.261 324.997 726.286L324.754 726.357C325.714 726.756 326.647 727.105 327.67 727.447L327.68 727.288Z" fill="#D3D2DC"/>
<path d="M37.5037 195.386C36.6206 196.189 35.6209 196.949 36.3415 196.368C35.5578 197.006 36.4677 196.254 37.3412 195.609L37.4673 195.494L37.5037 195.386Z" fill="#D3D2DC"/>
<path d="M222.74 393.635C224.269 392.992 225.798 392.35 227.354 391.758L227.427 391.542C225.898 392.185 224.368 392.827 222.749 393.476L222.677 393.692L222.74 393.635Z" fill="#D3D2DC"/>
<path d="M106.472 155.124C104.916 155.716 103.423 156.251 101.866 156.842L101.794 157.058C103.35 156.466 104.816 155.881 106.372 155.289L106.498 155.175L106.472 155.124Z" fill="#D3D2DC"/>
<path d="M232.711 388.46C230.983 389.432 229.219 390.513 227.49 391.486L227.418 391.701C229.146 390.728 230.91 389.648 232.702 388.618L232.774 388.402L232.711 388.46Z" fill="#D3D2DC"/>
<path d="M220.527 90.9248C220.527 90.9248 219.735 91.1955 219.34 91.3308C219.42 91.4822 219.527 91.6841 219.743 91.5625C219.896 91.4983 220.121 91.2185 220.311 91.0464L220.437 90.9317L220.527 90.9248Z" fill="#D3D2DC"/>
<path d="M106.372 155.291C106.814 154.889 107.202 154.387 107.617 153.935C107.427 154.107 107.355 154.322 107.165 154.495C106.976 154.667 106.724 154.896 106.472 155.126L106.372 155.291Z" fill="#D3D2DC"/>
<path d="M237.995 385.376C236.266 386.349 234.502 387.43 232.774 388.402L232.702 388.618C234.43 387.645 236.194 386.564 237.922 385.592L237.995 385.376Z" fill="#D3D2DC"/>
<path d="M243.549 381.747C241.685 382.993 239.858 384.13 237.995 385.376L237.922 385.592C239.786 384.346 241.613 383.208 243.477 381.963L243.549 381.747Z" fill="#D3D2DC"/>
<path d="M205.009 99.5705C203.516 100.105 201.96 100.697 200.467 101.231L200.367 101.397C201.861 100.862 203.39 100.22 204.883 99.6852L205.009 99.5705Z" fill="#D3D2DC"/>
<path d="M96.6183 159.819C98.3732 158.897 100.038 157.981 101.793 157.059L101.866 156.843C100.111 157.765 98.446 158.681 96.7179 159.653L96.6183 159.819Z" fill="#D3D2DC"/>
<path d="M222.839 393.471C221.111 394.444 219.419 395.309 217.691 396.282L217.618 396.497C219.346 395.525 221.038 394.66 222.766 393.687L222.839 393.471Z" fill="#D3D2DC"/>
<path d="M324.711 340.499C325.143 340.255 325.602 340.063 325.818 339.941C325.665 340.005 325.206 340.198 324.81 340.333L324.738 340.549L324.711 340.499Z" fill="#D3D2DC"/>
<path d="M96.7186 159.655C96.277 160.056 95.8353 160.458 95.367 160.809C95.7455 160.465 96.2406 160.164 96.6459 159.87L96.7454 159.705L96.7186 159.655Z" fill="#D3D2DC"/>
<path d="M200.467 101.231C198.739 102.204 196.975 103.285 195.247 104.258L195.174 104.473C196.902 103.5 198.603 102.477 200.395 101.447L200.467 101.231Z" fill="#D3D2DC"/>
<path d="M195.184 104.316C193.456 105.289 191.728 106.261 190 107.234L189.927 107.45C191.655 106.477 193.384 105.504 195.112 104.531L195.184 104.316Z" fill="#D3D2DC"/>
<path d="M184.778 110.259C186.507 109.287 188.235 108.314 189.99 107.392L190.062 107.176C188.334 108.149 186.606 109.122 184.878 110.094L184.778 110.259Z" fill="#D3D2DC"/>
<path d="M262.773 371.452C260.909 372.698 259.045 373.943 257.119 375.246L257.046 375.462C258.91 374.216 260.837 372.913 262.674 371.617L262.746 371.401L262.773 371.452Z" fill="#D3D2DC"/>
<path d="M184.878 110.094C182.915 111.505 181.015 112.859 179.052 114.27C179.052 114.27 178.952 114.435 178.889 114.493C180.852 113.082 182.753 111.728 184.716 110.317L184.788 110.102L184.878 110.094Z" fill="#D3D2DC"/>
<path d="M348.846 264.913C350.32 264.695 351.731 264.534 353.205 264.316L353.278 264.1C351.804 264.318 350.393 264.479 348.892 264.647L348.819 264.862L348.846 264.913Z" fill="#D3D2DC"/>
<path d="M217.691 396.282C217.07 396.697 216.475 397.162 217.07 396.696C216.458 396.953 217.07 396.697 217.618 396.497L217.691 396.282Z" fill="#D3D2DC"/>
<path d="M144.358 132.948C143.899 133.141 143.35 133.34 143.134 133.462C143.377 133.391 143.8 133.306 144.285 133.164L144.358 132.948Z" fill="#D3D2DC"/>
<path d="M62.0059 181.115C61.5834 181.2 61.1247 181.393 60.8819 181.464C61.1247 181.393 61.4841 181.365 61.9066 181.28L62.0059 181.115Z" fill="#D3D2DC"/>
<path d="M470.579 468.079C470.579 468.079 470.606 468.13 470.633 468.18L470.579 468.079Z" fill="#D3D2DC"/>
<path d="M61.9062 181.281C62.3477 180.88 62.7263 180.536 63.1678 180.134C62.9786 180.306 62.8523 180.421 62.663 180.593C62.4738 180.765 62.2215 180.995 62.0322 181.167L61.933 181.332L61.9062 181.281Z" fill="#D3D2DC"/>
<path d="M79.6521 169.786C79.2106 170.187 78.742 170.538 78.2106 170.947C78.6158 170.653 79.1109 170.352 79.5162 170.059L79.5889 169.843L79.6521 169.786Z" fill="#D3D2DC"/>
<path d="M103.05 33.5947C102.006 34.0949 100.963 34.5949 99.9188 35.095L99.8461 35.3108C100.89 34.8106 101.934 34.3104 102.977 33.8103L103.05 33.5947Z" fill="#D3D2DC"/>
<path d="M29.0979 60.0573L25.9779 60.8741L25.825 60.9383C26.9129 60.6974 27.9376 60.5138 28.9986 60.2224L29.1247 60.1078L29.0979 60.0573Z" fill="#D3D2DC"/>
<path d="M584.074 661.004C583.03 661.504 582.023 661.897 580.979 662.397L580.906 662.613C581.95 662.112 582.958 661.72 584.001 661.22L584.074 661.004Z" fill="#D3D2DC"/>
<path d="M105.673 33.6037C106.716 33.1036 107.76 32.6033 108.804 32.1032L108.877 31.8876C107.833 32.3877 106.789 32.8879 105.745 33.3881L105.673 33.6037Z" fill="#D3D2DC"/>
<path d="M461.724 692.125C462.768 691.624 463.848 691.016 464.892 690.516L464.964 690.301C463.92 690.801 462.84 691.409 461.797 691.909L461.724 692.125Z" fill="#D3D2DC"/>
<path d="M28.9725 60.1737C30.196 59.6598 31.4194 59.146 32.6428 58.6321L32.7691 58.5173C31.5456 59.0312 30.3222 59.545 29.0624 60.1668L28.9362 60.2816L28.9725 60.1737Z" fill="#D3D2DC"/>
<path d="M111.5 31.8969C112.544 31.3968 113.587 30.8966 114.631 30.3964L114.704 30.1808L111.572 31.6813L111.5 31.8969Z" fill="#D3D2DC"/>
<path d="M223.27 5.68747C224.313 5.18733 225.42 4.6299 226.437 4.0793L226.51 3.86354C225.466 4.36367 224.386 4.97175 223.342 5.47189L223.27 5.68747Z" fill="#D3D2DC"/>
<path d="M359.901 719.987C360.945 719.487 361.989 718.987 363.096 718.43L363.168 718.214C362.124 718.714 361.081 719.214 360.001 719.822L359.928 720.038L359.901 719.987Z" fill="#D3D2DC"/>
<path d="M238.733 1.87431C237.689 2.37445 236.646 2.87446 235.575 3.32414L235.502 3.53989C236.546 3.03976 237.59 2.53955 238.634 2.03942L238.733 1.87431Z" fill="#D3D2DC"/>
<path d="M355.185 720.086L351.981 721.802L351.908 722.018C352.989 721.41 354.032 720.91 355.112 720.302L355.185 720.086Z" fill="#D3D2DC"/>
<path d="M467.586 690.308C468.63 689.808 469.637 689.416 470.681 688.916L470.753 688.7C469.71 689.2 468.702 689.592 467.658 690.093L467.586 690.308Z" fill="#D3D2DC"/>
<path d="M382.742 712.984C381.635 713.541 380.618 714.092 379.512 714.649L379.439 714.865C380.483 714.365 381.563 713.757 382.607 713.257L382.679 713.041L382.742 712.984Z" fill="#D3D2DC"/>
<path d="M94.0186 37.0183C95.0623 36.5182 96.1061 36.0181 97.1861 35.4102L97.2589 35.1944C96.2151 35.6946 95.1714 36.1946 94.0913 36.8026L94.0186 37.0183Z" fill="#D3D2DC"/>
<path d="M0.483822 71.3361C0.483822 71.3361 0.843228 71.3086 1.04973 71.3453C0.933096 71.3017 0.789686 71.2076 0.673047 71.164L0.546761 71.2788L0.483822 71.3361Z" fill="#D3D2DC"/>
<path d="M120.53 28.473C119.486 28.9731 118.379 29.5306 117.362 30.0812L117.29 30.2969C118.333 29.7968 119.44 29.2392 120.457 28.6886L120.53 28.473Z" fill="#D3D2DC"/>
<path d="M126.393 26.6591C125.349 27.1592 124.269 27.7673 123.225 28.2675L123.153 28.483C124.197 27.9829 125.277 27.375 126.321 26.8749L126.393 26.6591Z" fill="#D3D2DC"/>
<path d="M144.285 133.164L144.979 132.533L144.358 132.948L144.285 133.164Z" fill="#D3D2DC"/>
<path d="M0.58273 71.1712L-3.277 72.8849L-3.45663 72.8987C-2.1433 72.3779 -0.893045 71.9144 0.420291 71.3936L0.546761 71.2788L0.58273 71.1712Z" fill="#D3D2DC"/>
<path d="M437.409 601.183C437.409 601.183 437.149 601.046 437.005 600.952C437.059 601.053 437.112 601.153 437.229 601.197L437.409 601.183Z" fill="#D3D2DC"/>
<path d="M132.221 24.9517C131.114 25.5092 130.097 26.0598 128.99 26.6173L128.918 26.833C130.024 26.2755 131.041 25.7249 132.148 25.1674L132.221 24.9517Z" fill="#D3D2DC"/>
<path d="M91.3957 37.0093C90.3252 37.459 89.2815 37.959 88.211 38.4087L88.0847 38.5235C89.182 38.1243 90.2526 37.6746 91.35 37.2754L91.4225 37.0598L91.3957 37.0093Z" fill="#D3D2DC"/>
<path d="M481.37 686.679C482.441 686.229 483.421 685.787 484.492 685.337L484.565 685.121C483.521 685.621 482.45 686.071 481.47 686.514L481.343 686.629L481.37 686.679Z" fill="#D3D2DC"/>
<path d="M435.982 698.77C437.079 698.371 438.266 697.965 439.363 697.566L439.436 697.35C438.365 697.8 437.232 698.307 436.161 698.757L435.982 698.77Z" fill="#D3D2DC"/>
<path d="M437.255 601.25C437.255 601.25 437.319 601.192 437.436 601.235L437.255 601.25Z" fill="#D3D2DC"/>
<path d="M562.783 666.524C563.827 666.024 564.834 665.632 565.878 665.131L565.951 664.916C564.907 665.416 563.926 665.859 562.856 666.308L562.783 666.524Z" fill="#D3D2DC"/>
<path d="M210.935 7.99487C212.042 7.43739 213.059 6.88678 214.166 6.3293L214.239 6.11354C213.132 6.67102 212.115 7.22163 211.008 7.77911L210.935 7.99487Z" fill="#D3D2DC"/>
<path d="M372.579 465.608L372.22 465.636L372.48 465.773L372.579 465.608Z" fill="#D3D2DC"/>
<path d="M133.927 138.842L134.431 138.383C134.431 138.383 134.152 138.562 133.999 138.626L133.927 138.842Z" fill="#D3D2DC"/>
<path d="M138.011 23.3526C136.968 23.8527 135.861 24.4102 134.817 24.9103L134.744 25.1261C135.788 24.6259 136.895 24.0685 137.939 23.5683L138.011 23.3526Z" fill="#D3D2DC"/>
<path d="M-3.277 72.8849C-3.277 72.8849 -3.36707 72.892 -3.45733 72.8993L-3.277 72.8849Z" fill="#D3D2DC"/>
<path d="M490.392 683.416C489.348 683.916 488.341 684.308 487.297 684.808L487.225 685.024C488.268 684.524 489.276 684.131 490.32 683.631L490.392 683.416Z" fill="#D3D2DC"/>
<path d="M540.117 476.826L539.767 476.695L540.054 476.883L540.117 476.826Z" fill="#D3D2DC"/>
<path d="M142.755 23.3046C143.835 22.6966 144.878 22.1966 145.958 21.5887L146.031 21.3729C144.951 21.9809 143.907 22.481 142.827 23.089L142.755 23.3046Z" fill="#D3D2DC"/>
<path d="M36.4118 56.9238C35.1884 57.4377 34.0014 57.8436 32.7779 58.3575C32.7779 58.3575 32.6515 58.4724 32.6152 58.5802C33.8387 58.0663 34.9991 57.6097 36.2494 57.1463L36.3757 57.0315L36.4118 56.9238Z" fill="#D3D2DC"/>
<path d="M341.374 723.666C340.268 724.224 339.251 724.775 338.144 725.332L338.071 725.548C339.178 724.99 340.195 724.44 341.302 723.882L341.374 723.666Z" fill="#D3D2DC"/>
<path d="M81.9688 40.5666C80.8715 40.9658 79.8009 41.4156 78.7035 41.8148L78.631 42.0303C79.7015 41.5807 80.7453 41.0805 81.7528 40.6882L81.8789 40.5736L81.9688 40.5666Z" fill="#D3D2DC"/>
<path d="M501.034 681.442L501.52 681.3L501.107 681.226L501.034 681.442Z" fill="#D3D2DC"/>
<path d="M456.695 590.829C456.695 590.829 456.345 590.698 456.228 590.655C456.282 590.755 456.398 590.799 456.542 590.893L456.722 590.879L456.695 590.829Z" fill="#D3D2DC"/>
<path d="M388.569 711.278C387.526 711.778 386.482 712.279 385.438 712.779L385.365 712.994C386.409 712.494 387.453 711.994 388.497 711.494L388.569 711.278Z" fill="#D3D2DC"/>
<path d="M324.784 340.284C323.398 341.02 322.075 341.699 320.662 342.385L320.59 342.601C321.913 341.922 323.298 341.185 324.648 340.556L324.721 340.341L324.784 340.284Z" fill="#D3D2DC"/>
<path d="M200.833 9.92575C201.877 9.42562 202.921 8.92542 203.964 8.42529L204.037 8.20971C202.993 8.70983 201.95 9.20987 200.906 9.71001L200.833 9.92575Z" fill="#D3D2DC"/>
<path d="M333.39 725.537C332.256 726.044 331.149 726.602 330.016 727.109L329.826 727.281C330.925 726.356 331.935 725.439 332.98 724.413L332.774 724.377C332.862 724.895 333.013 725.356 333.29 725.702L333.363 725.487L333.39 725.537Z" fill="#D3D2DC"/>
<path d="M76.0697 41.9623C74.9991 42.412 73.9553 42.9122 72.8847 43.3619L72.7319 43.426C73.8292 43.0269 74.8996 42.5773 75.9969 42.1781L76.0697 41.9623Z" fill="#D3D2DC"/>
<path d="M456.515 590.844C456.515 590.844 456.605 590.836 456.695 590.829L456.515 590.844Z" fill="#D3D2DC"/>
<path d="M40.461 55.0376C39.1114 55.6662 37.8249 56.2374 36.4752 56.866C36.4752 56.866 36.349 56.9807 36.286 57.0381C37.6088 56.359 38.9317 55.6799 40.2546 55.0008L40.4075 54.9366L40.461 55.0376Z" fill="#D3D2DC"/>
<path d="M159.805 17.8996C158.761 18.3997 157.681 19.0076 156.637 19.5078L156.565 19.7233C157.608 19.2232 158.688 18.6153 159.732 18.1152L159.805 17.8996Z" fill="#D3D2DC"/>
<path d="M66.7695 45.4057C65.6817 45.6466 64.6837 45.8806 63.5959 46.1215L63.4964 46.2868C64.5575 45.9954 65.5554 45.7614 66.5897 45.4195L66.7427 45.3552L66.7695 45.4057Z" fill="#D3D2DC"/>
<path d="M602.152 657.361C601.055 657.76 599.894 658.217 598.797 658.616L598.617 658.63C599.741 658.281 600.865 657.932 601.989 657.584L602.116 657.469L602.152 657.361Z" fill="#D3D2DC"/>
<path d="M204.821 99.7438L205.425 99.1198L205.011 99.5718L204.821 99.7438Z" fill="#D3D2DC"/>
<path d="M514.845 677.864C515.825 677.421 516.896 676.972 517.877 676.529L518.003 676.414C516.968 676.756 515.898 677.206 514.917 677.648L514.845 677.864Z" fill="#D3D2DC"/>
<path d="M164.549 17.8527L167.779 16.1872L167.852 15.9716C166.745 16.5291 165.728 17.0797 164.621 17.6372L164.549 17.8527Z" fill="#D3D2DC"/>
<path d="M190.656 12.0705C191.762 11.513 192.779 10.9624 193.886 10.4049L193.959 10.1893C192.852 10.7468 191.835 11.2972 190.728 11.8547L190.656 12.0705Z" fill="#D3D2DC"/>
<path d="M250.02 1.11537C251.063 0.615251 252.044 0.172443 253.115 -0.277222L253.214 -0.442316C252.17 0.0578207 251.1 0.507308 250.119 0.95009L250.046 1.16585L250.02 1.11537Z" fill="#D3D2DC"/>
<path d="M526.032 674.276C524.989 674.777 523.981 675.169 522.937 675.669L522.838 675.834C523.882 675.334 524.889 674.942 525.96 674.492L526.032 674.276Z" fill="#D3D2DC"/>
<path d="M172.532 15.9819C173.576 15.4818 174.656 14.8737 175.7 14.3736L175.773 14.158C174.729 14.6581 173.649 15.266 172.605 15.7662L172.532 15.9819Z" fill="#D3D2DC"/>
<path d="M63.6235 46.1735C62.3006 46.8525 60.951 47.4812 59.6281 48.1603L59.4752 48.2245C60.8249 47.5958 62.2012 47.0178 63.5508 46.3892L63.7134 46.1665L63.6235 46.1735Z" fill="#D3D2DC"/>
<path d="M50.0406 51.4144C51.1647 51.0657 52.262 50.6666 53.3861 50.3178L53.5391 50.2535C52.415 50.6022 51.3176 51.0015 50.1935 51.3502L50.0406 51.4144Z" fill="#D3D2DC"/>
<path d="M399.14 709.524C400.247 708.966 401.317 708.517 402.424 707.959L402.55 707.844C401.443 708.402 400.283 708.858 399.213 709.308L399.14 709.524Z" fill="#D3D2DC"/>
<path d="M220.373 90.9883L220.977 90.3643L220.499 90.8737L220.373 90.9883Z" fill="#D3D2DC"/>
<path d="M530.812 674.123C530.812 674.123 530.983 674.267 531.127 674.36C531.046 674.209 530.966 674.057 530.912 673.957L530.839 674.173L530.812 674.123Z" fill="#D3D2DC"/>
<path d="M422.14 465.435L422.292 465.896L422.32 465.421L422.14 465.435Z" fill="#D3D2DC"/>
<path d="M422.32 465.421L421.825 465.722L422.14 465.435L422.32 465.421Z" fill="#D3D2DC"/>
<path d="M180.589 13.8933C179.906 13.8405 179.187 13.8956 178.505 13.8429L178.432 14.0585C179.115 14.1112 179.833 14.0561 180.516 14.1088L180.589 13.8933Z" fill="#D3D2DC"/>
<path d="M188.095 12.0035C187.413 11.9508 186.694 12.0059 186.011 11.9531L185.939 12.1687C186.621 12.2214 187.34 12.1665 188.023 12.2193L188.095 12.0035Z" fill="#D3D2DC"/>
<path d="M188.023 12.2207C188.921 12.1519 189.82 12.0829 190.719 12.0141L190.791 11.7985C189.893 11.8673 188.994 11.9361 188.159 11.9476L188.086 12.1633L188.023 12.2207Z" fill="#D3D2DC"/>
<path d="M528.719 674.229C529.438 674.174 530.157 674.119 530.812 674.121L530.885 673.905C530.166 673.96 529.447 674.015 528.791 674.013L528.719 674.229Z" fill="#D3D2DC"/>
<path d="M175.763 14.3157C176.662 14.2469 177.533 14.1273 178.432 14.0585L178.505 13.8429C177.606 13.9117 176.708 13.9806 175.836 14.1L175.763 14.3157Z" fill="#D3D2DC"/>
<path d="M309.13 264.962C309.849 264.907 310.568 264.851 311.287 264.796L311.359 264.581C310.641 264.636 309.922 264.691 309.14 264.803L309.067 265.019L309.13 264.962Z" fill="#D3D2DC"/>
<path d="M541.999 670.531L541.712 670.343L541.963 670.639L541.999 670.531Z" fill="#D3D2DC"/>
<path d="M528.791 674.013C527.893 674.082 527.022 674.201 526.06 674.328L525.988 674.543C526.886 674.474 527.82 674.297 528.719 674.229L528.791 674.013Z" fill="#D3D2DC"/>
<path d="M433.387 465.834L432.982 466.128L433.351 465.942L433.387 465.834Z" fill="#D3D2DC"/>
<path d="M544.38 670.612C543.607 670.566 542.835 670.52 542.063 670.474L541.99 670.69C542.736 670.685 543.544 670.623 544.29 670.619L544.344 670.719L544.38 670.612Z" fill="#D3D2DC"/>
<path d="M309.23 264.797C308.511 264.852 307.792 264.907 307.01 265.019L306.938 265.235C307.657 265.18 308.375 265.125 309.157 265.012L309.23 264.797Z" fill="#D3D2DC"/>
<path d="M435.543 465.669C434.825 465.724 434.169 465.722 433.423 465.727L433.351 465.942C434.07 465.887 434.752 465.94 435.471 465.885L435.543 465.669Z" fill="#D3D2DC"/>
<path d="M304.754 265.35C305.473 265.295 306.255 265.182 306.974 265.127L307.047 264.911C306.328 264.966 305.546 265.079 304.827 265.134L304.754 265.35Z" fill="#D3D2DC"/>
<path d="M544.264 670.569L544.623 670.541L544.38 670.612L544.264 670.569Z" fill="#D3D2DC"/>
<path d="M435.471 465.885C436.253 465.773 437.062 465.711 437.843 465.598C437.098 465.603 436.352 465.607 435.543 465.669L435.471 465.885Z" fill="#D3D2DC"/>
<path d="M172.605 15.7662C171.949 15.7639 171.204 15.7681 170.549 15.7659L170.476 15.9816C171.221 15.977 171.877 15.9792 172.623 15.9746L172.695 15.759L172.605 15.7662Z" fill="#D3D2DC"/>
<path d="M302.624 265.565C303.343 265.51 304.036 265.405 304.754 265.35L304.827 265.134C304.108 265.189 303.416 265.295 302.697 265.35L302.624 265.565Z" fill="#D3D2DC"/>
<path d="M520.672 676.156C521.391 676.101 522.083 675.995 522.865 675.883L522.964 675.718C522.245 675.773 521.553 675.878 520.771 675.991L520.699 676.206L520.672 676.156Z" fill="#D3D2DC"/>
<path d="M167.717 16.2447C168.615 16.1759 169.514 16.1069 170.386 15.9876L170.458 15.772C169.56 15.8409 168.661 15.9096 167.763 15.9785L167.69 16.1942L167.717 16.2447Z" fill="#D3D2DC"/>
<path d="M302.724 265.4C302.005 265.455 301.286 265.51 300.567 265.565L300.495 265.781C301.214 265.726 301.932 265.671 302.651 265.616L302.724 265.4Z" fill="#D3D2DC"/>
<path d="M517.941 676.472C518.813 676.353 519.774 676.227 520.673 676.158L520.745 675.942C519.873 676.062 518.912 676.188 518.04 676.307L517.941 676.472Z" fill="#D3D2DC"/>
<path d="M328.777 264.98C329.496 264.925 330.251 264.762 330.97 264.707L331.042 264.491C330.323 264.546 329.568 264.709 328.849 264.764L328.777 264.98Z" fill="#D3D2DC"/>
<path d="M300.567 265.565C299.848 265.62 299.157 265.726 298.375 265.839L298.365 265.997C299.084 265.942 299.776 265.836 300.558 265.724L300.631 265.508L300.567 265.565Z" fill="#D3D2DC"/>
<path d="M193.886 10.4049C194.605 10.3498 195.323 10.2946 196.042 10.2395L196.115 10.0237C195.396 10.0788 194.678 10.1342 193.959 10.1893L193.886 10.4049Z" fill="#D3D2DC"/>
<path d="M295.876 266.24C296.685 266.178 297.493 266.116 298.275 266.004C298.275 266.004 298.285 265.845 298.348 265.788C297.539 265.85 296.73 265.912 295.948 266.024L295.876 266.24Z" fill="#D3D2DC"/>
<path d="M333.288 264.318C332.569 264.373 331.85 264.428 331.068 264.541L330.996 264.756C331.715 264.701 332.434 264.646 333.216 264.534L333.288 264.318Z" fill="#D3D2DC"/>
<path d="M162.402 17.8603C163.085 17.9131 163.804 17.858 164.486 17.9107L164.559 17.695C163.876 17.6423 163.157 17.6973 162.475 17.6446L162.402 17.8603Z" fill="#D3D2DC"/>
<path d="M196.044 10.2401C196.699 10.2424 197.445 10.2378 198.101 10.24L198.173 10.0243C197.518 10.022 196.772 10.0266 196.116 10.0244L196.044 10.2401Z" fill="#D3D2DC"/>
<path d="M514.917 677.648L512.429 677.891L512.455 677.942C513.264 677.88 514.01 677.875 514.819 677.813L514.891 677.597L514.917 677.648Z" fill="#D3D2DC"/>
<path d="M159.796 18.0605C160.695 17.9917 161.566 17.8724 162.465 17.8035L162.538 17.588C161.639 17.6568 160.74 17.7256 159.869 17.8449L159.796 18.0605Z" fill="#D3D2DC"/>
<path d="M550.019 668.551L549.722 668.521L549.946 668.766L550.019 668.551Z" fill="#D3D2DC"/>
<path d="M512.429 677.891L512.268 677.589L512.519 677.884L512.429 677.891Z" fill="#D3D2DC"/>
<path d="M335.509 264.097C334.79 264.152 334.071 264.207 333.289 264.319L333.216 264.535C333.935 264.48 334.717 264.367 335.436 264.312L335.509 264.097Z" fill="#D3D2DC"/>
<path d="M200.905 9.70991C200.006 9.77877 199.135 9.89809 198.173 10.0243L198.101 10.24C198.999 10.1712 199.87 10.0518 200.832 9.92565L200.905 9.70991Z" fill="#D3D2DC"/>
<path d="M393.008 465.515C393.727 465.46 394.446 465.405 395.201 465.242L395.273 465.026C394.554 465.081 393.773 465.194 393.081 465.299L393.008 465.515Z" fill="#D3D2DC"/>
<path d="M552.274 668.746C551.502 668.7 550.792 668.597 550.047 668.602L549.974 668.817C550.72 668.813 551.465 668.808 552.211 668.804L552.274 668.746Z" fill="#D3D2DC"/>
<path d="M337.638 263.88C336.919 263.935 336.2 263.99 335.445 264.153L335.372 264.369C336.091 264.314 336.81 264.259 337.565 264.096L337.638 263.88Z" fill="#D3D2DC"/>
<path d="M153.969 19.7673C154.804 19.7558 155.73 19.7375 156.565 19.726L156.638 19.5104C155.802 19.5219 154.904 19.5907 154.042 19.5518L153.969 19.7673Z" fill="#D3D2DC"/>
<path d="M552.183 668.753L552.543 668.726L552.274 668.746L552.183 668.753Z" fill="#D3D2DC"/>
<path d="M390.374 465.662C391.273 465.594 392.109 465.582 393.007 465.513L393.08 465.298C392.181 465.366 391.346 465.378 390.447 465.447L390.374 465.662Z" fill="#D3D2DC"/>
<path d="M340.1 263.586C339.291 263.648 338.446 263.818 337.638 263.88L337.565 264.096C338.374 264.034 339.156 263.921 339.964 263.859L340.037 263.643L340.1 263.586Z" fill="#D3D2DC"/>
<path d="M206.229 7.93487C205.51 7.98995 204.791 8.045 204.036 8.20791L203.963 8.42348C204.682 8.3684 205.464 8.25596 206.156 8.15042L206.229 7.93487Z" fill="#D3D2DC"/>
<path d="M557.966 666.786L557.732 666.699L557.893 667.002L557.966 666.786Z" fill="#D3D2DC"/>
<path d="M383.874 464.69C384.593 464.635 385.312 464.58 386.031 464.525L386.104 464.309C385.385 464.364 384.666 464.42 383.947 464.475L383.874 464.69Z" fill="#D3D2DC"/>
<path d="M208.314 7.98784C207.631 7.93509 206.912 7.99019 206.23 7.93745L206.157 8.15301C206.84 8.20575 207.559 8.15067 208.241 8.20342L208.314 7.98784Z" fill="#D3D2DC"/>
<path d="M501.107 681.228C500.299 681.29 499.454 681.46 498.645 681.522C499.391 681.517 500.226 681.506 500.972 681.501L501.044 681.286L501.107 681.228Z" fill="#D3D2DC"/>
<path d="M145.959 21.589C146.794 21.5776 147.693 21.5087 148.555 21.5477L148.628 21.3319C147.793 21.3434 146.894 21.4123 146.032 21.3733L145.959 21.589Z" fill="#D3D2DC"/>
<path d="M383.974 464.526L381.539 464.87C382.348 464.808 383.066 464.753 383.875 464.691L383.948 464.476L383.974 464.526Z" fill="#D3D2DC"/>
<path d="M498.644 681.521L498.42 681.276L498.681 681.413L498.644 681.521Z" fill="#D3D2DC"/>
<path d="M560.123 666.621C559.404 666.676 558.685 666.731 557.966 666.786L557.894 667.002C558.613 666.946 559.331 666.891 560.05 666.836L560.123 666.621Z" fill="#D3D2DC"/>
<path d="M381.511 464.819L381.215 464.789L381.538 464.869L381.511 464.819Z" fill="#D3D2DC"/>
<path d="M493.087 683.209L493.42 683.131L493.124 683.101L493.087 683.209Z" fill="#D3D2DC"/>
<path d="M142.827 23.087C142.171 23.0847 141.425 23.0893 140.743 23.0366L140.67 23.2521C141.353 23.3049 142.071 23.2499 142.817 23.2453L142.89 23.0296L142.827 23.087Z" fill="#D3D2DC"/>
<path d="M375.175 465.568L375.445 465.547L375.248 465.352L375.175 465.568Z" fill="#D3D2DC"/>
<path d="M208.241 8.20229C209.139 8.13344 210.038 8.06465 210.936 7.99581L211.009 7.78005C210.111 7.8489 209.212 7.91787 208.313 7.98672L208.241 8.20229Z" fill="#D3D2DC"/>
<path d="M493.124 683.1C492.225 683.169 491.29 683.346 490.392 683.415L490.319 683.63C491.218 683.561 492.153 683.385 493.051 683.316L493.124 683.1Z" fill="#D3D2DC"/>
<path d="M137.938 23.5685C138.837 23.4996 139.735 23.4307 140.607 23.3114L140.68 23.0958C139.781 23.1646 138.882 23.2334 137.984 23.3023L137.911 23.518L137.938 23.5685Z" fill="#D3D2DC"/>
<path d="M562.856 666.308C561.957 666.377 561.022 666.554 560.123 666.623L560.051 666.838C560.949 666.769 561.885 666.593 562.783 666.524L562.856 666.308Z" fill="#D3D2DC"/>
<path d="M372.481 465.774C373.379 465.706 374.251 465.586 375.15 465.517L375.222 465.302C374.324 465.371 373.452 465.49 372.553 465.559L372.481 465.774Z" fill="#D3D2DC"/>
<path d="M454.126 467.029L454.459 466.951L454.162 466.921L454.126 467.029Z" fill="#D3D2DC"/>
<path d="M484.464 685.286C485.363 685.217 486.298 685.04 487.196 684.971L487.269 684.756C486.37 684.824 485.436 685.001 484.537 685.07L484.464 685.286Z" fill="#D3D2DC"/>
<path d="M132.148 25.1676C132.983 25.1561 133.882 25.0871 134.744 25.1261L134.817 24.9103C133.982 24.9218 133.082 24.9908 132.157 25.0092L132.085 25.2248L132.148 25.1676Z" fill="#D3D2DC"/>
<path d="M216.334 6.00832C215.615 6.0634 214.896 6.11843 214.177 6.17351L214.105 6.38909C214.823 6.33401 215.542 6.279 216.288 6.27438L216.36 6.05881L216.334 6.00832Z" fill="#D3D2DC"/>
<path d="M568.106 664.748C567.387 664.803 566.668 664.859 565.976 664.964L565.904 665.18C566.623 665.125 567.341 665.07 568.06 665.015L568.133 664.799L568.106 664.748Z" fill="#D3D2DC"/>
<path d="M355.371 263.992C354.652 264.047 353.933 264.103 353.278 264.1L353.205 264.316C353.924 264.261 354.642 264.205 355.298 264.208L355.371 263.992Z" fill="#D3D2DC"/>
<path d="M216.323 6.16475C217.042 6.10967 217.761 6.05465 218.48 5.99957L218.552 5.78399C217.833 5.83908 217.115 5.89408 216.396 5.94916L216.323 6.16475Z" fill="#D3D2DC"/>
<path d="M568.07 664.858C568.816 664.853 569.625 664.791 570.37 664.786C569.598 664.74 568.852 664.745 568.143 664.642L568.07 664.858Z" fill="#D3D2DC"/>
<path d="M481.442 686.463C480.634 686.525 479.852 686.638 479.043 686.7L479.016 686.649C479.762 686.644 480.598 686.633 481.343 686.629L481.442 686.463Z" fill="#D3D2DC"/>
<path d="M128.99 26.6173C128.155 26.6288 127.229 26.6476 126.393 26.6591L126.321 26.8749C127.156 26.8634 128.082 26.8445 128.918 26.833L128.99 26.6173Z" fill="#D3D2DC"/>
<path d="M355.298 264.208C356.017 264.153 356.772 263.99 357.491 263.934L357.564 263.719C356.871 263.824 356.089 263.937 355.397 264.042L355.325 264.258L355.298 264.208Z" fill="#D3D2DC"/>
<path d="M479.07 686.751L478.809 686.614L479.043 686.701L479.07 686.751Z" fill="#D3D2DC"/>
<path d="M220.609 5.78432C219.954 5.78204 219.208 5.78665 218.525 5.73391L218.453 5.94949C219.109 5.95177 219.854 5.94714 220.51 5.94942L220.583 5.73384L220.609 5.78432Z" fill="#D3D2DC"/>
<path d="M570.37 664.787L570.658 664.975L570.397 664.838L570.37 664.787Z" fill="#D3D2DC"/>
<path d="M123.189 28.3736C122.291 28.4424 121.455 28.4546 120.53 28.473L120.457 28.6886C121.356 28.6197 122.191 28.6077 123.117 28.5894L123.189 28.3736Z" fill="#D3D2DC"/>
<path d="M250.512 267.982C249.794 268.037 249.111 267.984 248.392 268.039L248.32 268.254C249.039 268.199 249.694 268.202 250.44 268.197L250.512 267.982Z" fill="#D3D2DC"/>
<path d="M470.681 688.916C471.579 688.847 472.515 688.67 473.413 688.601L473.486 688.385C472.587 688.454 471.715 688.574 470.753 688.7L470.681 688.916Z" fill="#D3D2DC"/>
<path d="M360.179 263.361C359.307 263.48 358.409 263.549 357.537 263.668L357.465 263.884C358.336 263.765 359.235 263.696 360.107 263.576L360.179 263.361Z" fill="#D3D2DC"/>
<path d="M220.538 6.0007C221.436 5.93184 222.371 5.75518 223.27 5.68633L223.342 5.47076C222.444 5.5396 221.572 5.65891 220.61 5.78512L220.538 6.0007Z" fill="#D3D2DC"/>
<path d="M248.393 268.039C247.494 268.108 246.596 268.177 245.697 268.246L245.625 268.461C246.523 268.393 247.395 268.273 248.23 268.262L248.303 268.046L248.393 268.039Z" fill="#D3D2DC"/>
<path d="M576.054 662.987L575.82 662.9L575.954 663.153L576.054 662.987Z" fill="#D3D2DC"/>
<path d="M470.632 468.181L470.866 468.267L470.578 468.08L470.632 468.181Z" fill="#D3D2DC"/>
<path d="M117.399 29.9722C116.5 30.041 115.602 30.1098 114.766 30.1213L114.693 30.337C115.592 30.2682 116.491 30.1993 117.326 30.1878L117.399 29.9722Z" fill="#D3D2DC"/>
<path d="M467.66 690.093C466.761 690.162 465.862 690.231 464.964 690.3L464.891 690.515C465.79 690.447 466.689 690.378 467.587 690.309L467.66 690.093Z" fill="#D3D2DC"/>
<path d="M575.955 663.15C576.674 663.095 577.392 663.04 578.111 662.985L578.184 662.769C577.465 662.824 576.746 662.879 576.027 662.934L575.955 663.15Z" fill="#D3D2DC"/>
<path d="M228.629 3.80398C227.91 3.85907 227.191 3.91409 226.472 3.96917L226.4 4.18474C227.119 4.12967 227.837 4.07465 228.556 4.01956L228.629 3.80398Z" fill="#D3D2DC"/>
<path d="M578.175 662.929C579.074 662.86 580.008 662.684 580.907 662.615L580.98 662.399C580.081 662.468 579.146 662.645 578.248 662.713L578.175 662.929Z" fill="#D3D2DC"/>
<path d="M230.787 3.63976C230.068 3.69483 229.349 3.75002 228.63 3.8051L228.558 4.02069C229.277 3.96561 229.996 3.91058 230.714 3.8555L230.787 3.63976Z" fill="#D3D2DC"/>
<path d="M111.571 31.6801C110.673 31.7489 109.774 31.8177 108.875 31.8865L108.803 32.1021C109.702 32.0333 110.6 31.9645 111.499 31.8956L111.571 31.6801Z" fill="#D3D2DC"/>
<path d="M459.469 691.927C460.242 691.973 460.951 692.077 461.723 692.122L461.796 691.907C461.05 691.911 460.304 691.916 459.559 691.92L459.469 691.927Z" fill="#D3D2DC"/>
<path d="M232.906 3.58066C232.187 3.63573 231.505 3.58289 230.786 3.63797L230.713 3.8537C231.369 3.85597 232.115 3.85129 232.834 3.79621L232.906 3.58066Z" fill="#D3D2DC"/>
<path d="M232.833 3.79739C233.732 3.72853 234.63 3.65921 235.502 3.53989L235.575 3.32414C234.676 3.39298 233.777 3.4625 232.906 3.58181L232.833 3.79739Z" fill="#D3D2DC"/>
<path d="M459.558 691.921L459.235 691.84L459.468 691.928L459.558 691.921Z" fill="#D3D2DC"/>
<path d="M102.976 33.8094C103.875 33.7405 104.773 33.6717 105.672 33.6029L105.744 33.3873C104.846 33.4561 103.947 33.5249 103.049 33.5938L102.976 33.8094Z" fill="#D3D2DC"/>
<path d="M332.988 466.068C333.707 466.013 334.389 466.066 335.108 466.011L335.181 465.795C334.462 465.85 333.779 465.797 333.061 465.853L332.988 466.068Z" fill="#D3D2DC"/>
<path d="M453.641 693.636L453.875 693.722L453.795 693.571L453.641 693.636Z" fill="#D3D2DC"/>
<path d="M584.002 661.222C584.721 661.167 585.439 661.112 586.158 661.057L586.231 660.841C585.512 660.896 584.793 660.951 584.074 661.006L584.002 661.222Z" fill="#D3D2DC"/>
<path d="M586.095 661.114C586.967 660.994 587.839 660.875 588.621 660.763L588.567 660.662C587.695 660.781 586.887 660.843 586.141 660.847L586.068 661.063L586.095 661.114Z" fill="#D3D2DC"/>
<path d="M333.061 465.854C332.279 465.966 331.56 466.021 330.778 466.134L330.706 466.349C331.425 466.294 332.207 466.182 332.926 466.127L332.998 465.911L333.061 465.854Z" fill="#D3D2DC"/>
<path d="M453.795 693.572L453.436 693.6L453.643 693.637L453.795 693.572Z" fill="#D3D2DC"/>
<path d="M328.469 466.362C329.214 466.358 329.96 466.353 330.706 466.348L330.778 466.133C330.032 466.137 329.314 466.192 328.568 466.197L328.469 466.362Z" fill="#D3D2DC"/>
<path d="M99.8552 35.1524C98.9567 35.2213 98.1211 35.2328 97.1958 35.2512L97.1232 35.4668C98.0218 35.3979 98.8572 35.3866 99.7825 35.3682L99.8552 35.1524Z" fill="#D3D2DC"/>
<path d="M447.726 695.351L447.913 695.705L447.816 695.344L447.726 695.351Z" fill="#D3D2DC"/>
<path d="M588.711 660.756C588.711 660.756 588.692 661.073 588.683 661.231C588.629 661.13 588.611 660.921 588.621 660.763L588.738 660.807L588.711 660.756Z" fill="#D3D2DC"/>
<path d="M489.144 469.231L488.91 469.144L489.081 469.288L489.144 469.231Z" fill="#D3D2DC"/>
<path d="M447.815 695.342L447.446 695.528L447.725 695.349L447.815 695.342Z" fill="#D3D2DC"/>
<path d="M238.66 2.08969C239.379 2.03461 240.134 1.87171 240.853 1.81662L240.926 1.60104C240.207 1.65611 239.452 1.81924 238.733 1.87431L238.634 2.03942L238.66 2.08969Z" fill="#D3D2DC"/>
<path d="M91.323 37.224C92.2215 37.1552 93.1201 37.0863 93.9556 37.0748L94.0282 36.8592C93.1296 36.928 92.231 36.9969 91.3687 36.9579L91.2962 37.1736L91.323 37.224Z" fill="#D3D2DC"/>
<path d="M489.08 469.286L489.503 469.201L489.143 469.228L489.08 469.286Z" fill="#D3D2DC"/>
<path d="M216.325 272.281C217.044 272.226 217.762 272.171 218.481 272.116L218.554 271.9C217.835 271.955 217.116 272.01 216.397 272.065L216.325 272.281Z" fill="#D3D2DC"/>
<path d="M442.121 697.301L442.454 697.223L442.193 697.085L442.121 697.301Z" fill="#D3D2DC"/>
<path d="M216.425 272.117L214.242 272.232L214.169 272.448C214.888 272.392 215.634 272.388 216.289 272.39L216.362 272.175L216.425 272.117Z" fill="#D3D2DC"/>
<path d="M442.194 697.087C441.296 697.156 440.397 697.225 439.462 697.402L439.39 697.617C440.288 697.548 441.187 697.48 442.122 697.303L442.194 697.087Z" fill="#D3D2DC"/>
<path d="M214.305 272.175C213.586 272.23 212.867 272.285 212.175 272.39L212.103 272.606C212.822 272.551 213.54 272.496 214.232 272.39L214.305 272.175Z" fill="#D3D2DC"/>
<path d="M240.853 1.81662C241.572 1.76155 242.291 1.7063 243.01 1.65123L243.082 1.43564C242.364 1.49072 241.645 1.54596 240.926 1.60104L240.853 1.81662Z" fill="#D3D2DC"/>
<path d="M88.2735 38.351L87.8415 38.5942L88.1207 38.4152L88.2735 38.351Z" fill="#D3D2DC"/>
<path d="M209.981 272.664C210.7 272.609 211.419 272.553 212.075 272.556L212.148 272.34C211.429 272.395 210.773 272.393 210.054 272.448L209.981 272.664Z" fill="#D3D2DC"/>
<path d="M313.426 467.62C314.145 467.565 314.864 467.51 315.583 467.455L315.655 467.24C314.936 467.295 314.217 467.35 313.499 467.405L313.426 467.62Z" fill="#D3D2DC"/>
<path d="M207.798 272.778C208.517 272.723 209.236 272.668 209.892 272.67L209.964 272.455C209.245 272.51 208.526 272.565 207.871 272.563L207.798 272.778Z" fill="#D3D2DC"/>
<path d="M243.074 1.59548C243.793 1.5404 244.448 1.54277 245.194 1.53815L245.267 1.32242C244.548 1.37749 243.892 1.37528 243.146 1.37989L243.074 1.59548Z" fill="#D3D2DC"/>
<path d="M311.27 467.787C311.989 467.732 312.708 467.677 313.427 467.622L313.499 467.406C312.781 467.461 312.062 467.516 311.343 467.571L311.27 467.787Z" fill="#D3D2DC"/>
<path d="M436.161 698.757L435.756 699.051L435.982 698.77L436.161 698.757Z" fill="#D3D2DC"/>
<path d="M81.8159 40.6318L82.248 40.3886L81.9688 40.5676L81.8159 40.6318Z" fill="#D3D2DC"/>
<path d="M207.897 272.612L205.768 272.828L205.695 273.044C206.414 272.988 207.106 272.883 207.825 272.828L207.897 272.612Z" fill="#D3D2DC"/>
<path d="M311.37 467.622C310.651 467.677 309.932 467.732 309.213 467.787L309.141 468.003C309.86 467.948 310.578 467.893 311.297 467.838L311.37 467.622Z" fill="#D3D2DC"/>
<path d="M205.768 272.828C205.085 272.775 204.403 272.722 203.72 272.67L203.647 272.885C204.33 272.938 205.013 272.991 205.695 273.044L205.768 272.828Z" fill="#D3D2DC"/>
<path d="M309.212 467.785L307.056 467.951L306.983 468.166C307.702 468.111 308.421 468.056 309.113 467.951L309.186 467.735L309.212 467.785Z" fill="#D3D2DC"/>
<path d="M245.194 1.53815C245.913 1.48308 246.568 1.48526 247.314 1.48065L247.387 1.26508C246.668 1.32016 246.012 1.31781 245.267 1.32242L245.194 1.53815Z" fill="#D3D2DC"/>
<path d="M201.41 273.426C202.165 273.263 202.893 273.049 203.648 272.886L203.721 272.671C202.966 272.834 202.174 273.104 201.419 273.267L201.41 273.426Z" fill="#D3D2DC"/>
<path d="M307.056 467.952C306.337 468.007 305.619 468.062 304.9 468.117L304.827 468.333C305.546 468.278 306.265 468.223 306.984 468.168L307.056 467.952Z" fill="#D3D2DC"/>
<path d="M78.7668 41.7578C77.8682 41.8266 76.9697 41.8954 76.0711 41.9643L75.9984 42.18C76.897 42.1112 77.7957 42.0422 78.6943 41.9734L78.7668 41.7578Z" fill="#D3D2DC"/>
<path d="M201.419 273.267C200.71 273.164 200.09 273.054 199.38 272.951L199.201 272.964C199.937 273.118 200.673 273.272 201.346 273.483L201.356 273.324L201.419 273.267Z" fill="#D3D2DC"/>
<path d="M302.671 468.497C303.389 468.442 304.108 468.387 304.827 468.332L304.9 468.116C304.181 468.171 303.462 468.226 302.743 468.281L302.671 468.497Z" fill="#D3D2DC"/>
<path d="M598.797 658.616C598.797 658.616 598.733 658.674 598.616 658.631L598.797 658.616Z" fill="#D3D2DC"/>
<path d="M199.38 272.951L199.075 273.079L199.228 273.014L199.38 272.951Z" fill="#D3D2DC"/>
<path d="M300.513 468.661C301.232 468.606 301.951 468.551 302.67 468.496L302.743 468.28C302.024 468.336 301.305 468.391 300.649 468.388L300.576 468.604L300.513 468.661Z" fill="#D3D2DC"/>
<path d="M300.587 468.447C299.868 468.502 299.149 468.557 298.43 468.612L298.358 468.828C299.077 468.773 299.795 468.718 300.514 468.663L300.587 468.447Z" fill="#D3D2DC"/>
<path d="M422.35 702.336L422.584 702.422L422.376 702.386L422.35 702.336Z" fill="#D3D2DC"/>
<path d="M72.8866 43.3639L72.491 43.4992L72.7337 43.4281L72.8866 43.3639Z" fill="#D3D2DC"/>
<path d="M296.2 468.991C296.919 468.936 297.638 468.881 298.357 468.826L298.429 468.61C297.711 468.665 296.992 468.72 296.273 468.776L296.2 468.991Z" fill="#D3D2DC"/>
<path d="M422.377 702.385L422.054 702.305L422.35 702.335L422.377 702.385Z" fill="#D3D2DC"/>
<path d="M247.287 1.42877C248.185 1.35993 249.057 1.24062 250.019 1.11441L250.091 0.898654C249.193 0.967509 248.321 1.08698 247.359 1.21319L247.287 1.42877Z" fill="#D3D2DC"/>
<path d="M296.274 468.777C295.555 468.832 294.836 468.887 294.117 468.942L294.044 469.158C294.763 469.103 295.482 469.047 296.201 468.992L296.274 468.777Z" fill="#D3D2DC"/>
<path d="M66.5546 45.5286L66.9598 45.235L66.7706 45.407L66.5546 45.5286Z" fill="#D3D2DC"/>
<path d="M294.116 468.941C293.398 468.996 292.679 469.052 291.96 469.107L291.887 469.322C292.606 469.267 293.325 469.212 294.044 469.157L294.116 468.941Z" fill="#D3D2DC"/>
<path d="M416.433 704.05L416.658 704.294L416.551 704.093L416.433 704.05Z" fill="#D3D2DC"/>
<path d="M291.898 469.165C291.179 469.22 290.46 469.275 289.741 469.33L289.668 469.546C290.387 469.491 291.106 469.436 291.852 469.431L291.924 469.215L291.898 469.165Z" fill="#D3D2DC"/>
<path d="M416.551 704.093L416.191 704.12L416.433 704.05L416.551 704.093Z" fill="#D3D2DC"/>
<path d="M289.74 469.329C289.022 469.384 288.303 469.439 287.584 469.494L287.511 469.71C288.23 469.654 288.949 469.599 289.668 469.544L289.74 469.329Z" fill="#D3D2DC"/>
<path d="M604.392 656.824C603.636 656.987 602.908 657.2 602.216 657.306L602.09 657.42C602.845 657.257 603.6 657.095 604.355 656.932L604.428 656.716L604.392 656.824Z" fill="#D3D2DC"/>
<path d="M287.585 469.496C286.866 469.551 286.147 469.606 285.428 469.661L285.356 469.877C286.074 469.822 286.793 469.766 287.512 469.711L287.585 469.496Z" fill="#D3D2DC"/>
<path d="M410.831 706.002L411.137 705.874L410.903 705.787L410.831 706.002Z" fill="#D3D2DC"/>
<path d="M180.423 276.347C181.179 276.184 181.897 276.129 182.653 275.966L182.725 275.751C181.943 275.863 181.251 275.969 180.469 276.081L180.397 276.297L180.423 276.347Z" fill="#D3D2DC"/>
<path d="M285.428 469.66L283.271 469.825L283.198 470.04C283.917 469.985 284.636 469.93 285.355 469.875L285.428 469.66Z" fill="#D3D2DC"/>
<path d="M410.903 705.787C410.095 705.849 409.223 705.968 408.414 706.03L408.467 706.131C409.276 706.069 410.085 706.007 410.831 706.002L410.903 705.787Z" fill="#D3D2DC"/>
<path d="M59.6273 48.1592L59.1857 48.5607L59.3845 48.2304L59.6273 48.1592Z" fill="#D3D2DC"/>
<path d="M180.496 276.13C179.813 276.078 179.131 276.025 178.448 275.972L178.322 276.087C179.031 276.19 179.74 276.293 180.423 276.346L180.496 276.13Z" fill="#D3D2DC"/>
<path d="M506.024 471.612L505.655 471.798L505.952 471.827L506.024 471.612Z" fill="#D3D2DC"/>
<path d="M283.243 469.775C282.525 469.83 281.806 469.885 281.087 469.94L281.015 470.155C281.733 470.1 282.452 470.045 283.171 469.99L283.243 469.775Z" fill="#D3D2DC"/>
<path d="M408.413 706.028C408.413 706.028 408.432 705.712 408.468 705.604C408.522 705.705 408.539 705.913 408.53 706.072L408.413 706.028Z" fill="#D3D2DC"/>
<path d="M281.114 469.991C280.458 469.988 279.802 469.986 279.083 470.041L279.011 470.257C279.667 470.259 280.385 470.204 281.041 470.206L281.114 469.991Z" fill="#D3D2DC"/>
<path d="M53.3862 50.3193L53.845 50.1266L53.5661 50.3054L53.3862 50.3193Z" fill="#D3D2DC"/>
<path d="M279.147 469.985C278.429 470.04 277.647 470.153 276.865 470.265L276.792 470.48C277.511 470.425 278.293 470.313 279.012 470.258L279.084 470.042L279.147 469.985Z" fill="#D3D2DC"/>
<path d="M402.424 707.959L402.829 707.665L402.577 707.894L402.424 707.959Z" fill="#D3D2DC"/>
<path d="M255.38 -0.766348C254.688 -0.660801 253.906 -0.547863 253.214 -0.442316L253.115 -0.277222C253.834 -0.332305 254.589 -0.495679 255.307 -0.550768L255.38 -0.766348Z" fill="#D3D2DC"/>
<path d="M604.318 657.037C605.063 657.033 605.746 657.085 606.491 657.081C605.845 656.92 605.073 656.874 604.39 656.822L604.318 657.037Z" fill="#D3D2DC"/>
<path d="M274.609 470.595C275.327 470.54 276.046 470.485 276.765 470.43L276.838 470.214C276.119 470.269 275.4 470.324 274.681 470.379L274.609 470.595Z" fill="#D3D2DC"/>
<path d="M508.235 471.548C507.489 471.553 506.77 471.607 506.024 471.612L505.952 471.827C506.671 471.772 507.479 471.711 508.198 471.656L508.171 471.605L508.235 471.548Z" fill="#D3D2DC"/>
<path d="M257.536 -0.932738C256.817 -0.877648 256.098 -0.822471 255.379 -0.767388L255.307 -0.551808C256.025 -0.606876 256.744 -0.661908 257.463 -0.716982L257.536 -0.932738Z" fill="#D3D2DC"/>
<path d="M272.451 470.759C273.17 470.704 273.889 470.649 274.608 470.594L274.681 470.378C273.962 470.434 273.243 470.489 272.524 470.544L272.451 470.759Z" fill="#D3D2DC"/>
<path d="M606.491 657.081L606.824 657.003L606.582 657.074L606.491 657.081Z" fill="#D3D2DC"/>
<path d="M50.2201 51.4009L49.7881 51.6441L50.0406 51.4144L50.2201 51.4009Z" fill="#D3D2DC"/>
<path d="M272.552 470.595C271.833 470.65 271.114 470.705 270.368 470.71L270.296 470.926C271.015 470.871 271.733 470.816 272.479 470.811L272.552 470.595Z" fill="#D3D2DC"/>
<path d="M399.149 709.365C398.467 709.312 397.721 709.317 397.039 709.264C397.685 709.425 398.394 709.528 399.104 709.631L399.176 709.415L399.149 709.365Z" fill="#D3D2DC"/>
<path d="M257.464 -0.715565C258.183 -0.770633 258.902 -0.825845 259.62 -0.880928L259.693 -1.09651C258.974 -1.04142 258.255 -0.98638 257.537 -0.931297L257.464 -0.715565Z" fill="#D3D2DC"/>
<path d="M270.431 470.652C269.712 470.707 268.993 470.762 268.211 470.874L268.139 471.09C268.858 471.035 269.576 470.98 270.295 470.925L270.368 470.709L270.431 470.652Z" fill="#D3D2DC"/>
<path d="M397.039 709.264L396.679 709.291L396.949 709.27L397.039 709.264Z" fill="#D3D2DC"/>
<path d="M268.211 470.874C267.556 470.872 266.9 470.869 266.154 470.874L266.082 471.09C266.737 471.092 267.456 471.037 268.112 471.039L268.185 470.823L268.211 470.874Z" fill="#D3D2DC"/>
<path d="M261.849 -1.26292C261.13 -1.20784 260.411 -1.15287 259.755 -1.15514L259.683 -0.939381C260.402 -0.994456 261.121 -1.0496 261.776 -1.04732L261.849 -1.26292Z" fill="#D3D2DC"/>
<path d="M263.852 471.473C264.634 471.36 265.327 471.255 266.108 471.142L266.181 470.927C265.399 471.039 264.644 471.202 263.862 471.314L263.789 471.53L263.852 471.473Z" fill="#D3D2DC"/>
<path d="M40.3073 55.102L40.6495 54.8658L40.4602 55.0378L40.3073 55.102Z" fill="#D3D2DC"/>
<path d="M161.702 278.777C160.983 278.832 160.328 278.83 159.582 278.834L159.509 279.05C160.228 278.995 160.947 278.94 161.63 278.993L161.702 278.777Z" fill="#D3D2DC"/>
<path d="M263.924 471.256C263.242 471.203 262.596 471.042 261.913 470.99L261.724 471.162C262.433 471.265 263.142 471.368 263.852 471.471L263.924 471.256Z" fill="#D3D2DC"/>
<path d="M391.265 711.073C390.366 711.142 389.468 711.21 388.533 711.387L388.46 711.603C389.359 711.534 390.258 711.465 391.192 711.288L391.265 711.073Z" fill="#D3D2DC"/>
<path d="M513.028 472.652C513.873 472.482 514.655 472.37 515.5 472.2L515.51 472.042C514.728 472.154 513.883 472.324 513.101 472.436L513.028 472.652Z" fill="#D3D2DC"/>
<path d="M159.582 278.836C158.926 278.834 158.207 278.889 157.552 278.887L157.479 279.102C158.198 279.047 158.854 279.05 159.572 278.994L159.645 278.779L159.582 278.836Z" fill="#D3D2DC"/>
<path d="M261.777 -1.04625C262.495 -1.10132 263.214 -1.15635 263.933 -1.21143L264.006 -1.4272C263.287 -1.37213 262.568 -1.31692 261.849 -1.26183L261.777 -1.04625Z" fill="#D3D2DC"/>
<path d="M154.847 279.251C155.745 279.182 156.554 279.12 157.453 279.052L157.525 278.836C156.626 278.905 155.791 278.916 154.892 278.985L154.82 279.201L154.847 279.251Z" fill="#D3D2DC"/>
<path d="M614.432 654.951L614.198 654.865L614.422 655.11L614.432 654.951Z" fill="#D3D2DC"/>
<path d="M263.87 -1.15584C264.768 -1.22468 265.667 -1.29345 266.565 -1.36229L266.638 -1.57788C265.739 -1.50903 264.841 -1.44027 263.942 -1.37142L263.87 -1.15584Z" fill="#D3D2DC"/>
<path d="M616.651 654.728C615.932 654.783 615.213 654.838 614.495 654.894L614.422 655.11C615.141 655.055 615.86 654.999 616.578 654.944L616.651 654.728Z" fill="#D3D2DC"/>
<path d="M382.733 713.144C383.631 713.075 384.467 713.063 385.365 712.994L385.438 712.779C384.539 712.848 383.704 712.86 382.779 712.878L382.706 713.094L382.733 713.144Z" fill="#D3D2DC"/>
<path d="M618.951 654.656C618.205 654.661 617.397 654.723 616.588 654.785L616.515 655C617.387 654.881 618.196 654.819 619.067 654.7L619.014 654.599L618.951 654.656Z" fill="#D3D2DC"/>
<path d="M619.13 654.642C619.13 654.642 619.111 654.959 619.075 655.067C619.021 654.966 619.004 654.757 619.014 654.599L619.13 654.642Z" fill="#D3D2DC"/>
<path d="M379.576 714.595C378.83 714.6 378.085 714.604 377.339 714.609C378.048 714.712 378.758 714.815 379.53 714.861L379.603 714.646L379.576 714.595Z" fill="#D3D2DC"/>
<path d="M271.917 -3.08322C272.636 -3.1383 273.291 -3.13608 274.037 -3.14071L274.109 -3.35645C273.39 -3.30138 272.735 -3.30341 271.99 -3.2988L271.917 -3.08322Z" fill="#D3D2DC"/>
<path d="M377.339 714.609L377.042 714.579L377.249 714.615L377.339 714.609Z" fill="#D3D2DC"/>
<path d="M145.119 281.361C144.464 281.359 143.718 281.364 143.062 281.361L142.99 281.577C143.672 281.63 144.391 281.575 145.073 281.627L145.146 281.412L145.119 281.361Z" fill="#D3D2DC"/>
<path d="M25.9519 60.8248L25.5467 61.1184L25.7991 60.8889L25.9519 60.8248Z" fill="#D3D2DC"/>
<path d="M143.036 281.311C142.317 281.366 141.598 281.421 140.879 281.476L140.806 281.692C141.525 281.637 142.244 281.581 142.963 281.526L143.036 281.311Z" fill="#D3D2DC"/>
<path d="M140.879 281.476C140.16 281.531 139.414 281.536 138.696 281.591L138.623 281.807C139.342 281.751 140.087 281.747 140.806 281.692L140.879 281.476Z" fill="#D3D2DC"/>
<path d="M624.707 652.641L624.347 652.668L624.697 652.799L624.707 652.641Z" fill="#D3D2DC"/>
<path d="M371.638 716.201L371.269 716.387L371.512 716.316L371.638 716.201Z" fill="#D3D2DC"/>
<path d="M276.402 -3.79366C275.647 -3.63077 274.892 -3.4678 274.2 -3.36226L274.127 -3.1467C274.882 -3.3096 275.664 -3.42196 276.419 -3.58485L276.492 -3.80062L276.402 -3.79366Z" fill="#D3D2DC"/>
<path d="M136.556 281.964C137.275 281.909 137.994 281.854 138.65 281.857L138.722 281.641C138.004 281.696 137.285 281.751 136.629 281.749L136.556 281.964Z" fill="#D3D2DC"/>
<path d="M134.284 282.087C135.03 282.083 135.812 281.97 136.557 281.966L136.63 281.75C135.848 281.862 134.976 281.982 134.167 282.044L134.194 282.094L134.284 282.087Z" fill="#D3D2DC"/>
<path d="M365.727 718.28L366.024 718.31L365.8 718.064L365.727 718.28Z" fill="#D3D2DC"/>
<path d="M134.167 282.044L134.006 281.741L134.284 282.087L134.167 282.044Z" fill="#D3D2DC"/>
<path d="M363.033 718.487C363.931 718.418 364.767 718.407 365.665 718.338L365.738 718.122C364.839 718.191 364.004 718.203 363.105 718.271L363.033 718.487Z" fill="#D3D2DC"/>
<path d="M624.697 652.797C625.28 653.015 625.927 653.176 626.51 653.394L626.699 653.221C626.053 653.061 625.38 652.85 624.797 652.632L624.787 652.79L624.697 652.797Z" fill="#D3D2DC"/>
<path d="M278.459 -3.79391C277.803 -3.79618 277.058 -3.79138 276.402 -3.79366L276.329 -3.57824C276.985 -3.57597 277.731 -3.58059 278.387 -3.57832L278.459 -3.79391Z" fill="#D3D2DC"/>
<path d="M357.744 720.153C358.463 720.098 359.182 720.043 359.928 720.038L360.001 719.822C359.282 719.877 358.562 719.933 357.817 719.938L357.744 720.153Z" fill="#D3D2DC"/>
<path d="M124.116 284.074L124.386 284.053L124.179 284.017L124.116 284.074Z" fill="#D3D2DC"/>
<path d="M355.111 720.301C356.01 720.232 356.845 720.221 357.744 720.152L357.816 719.936C356.918 720.005 356.083 720.017 355.184 720.086L355.111 720.301Z" fill="#D3D2DC"/>
<path d="M629.256 651.872C628.365 652.308 627.564 652.737 626.673 653.173L626.484 653.345C627.375 652.909 628.266 652.473 629.183 652.088L629.256 651.872Z" fill="#D3D2DC"/>
<path d="M124.179 284.017L123.883 283.986L124.116 284.074L124.179 284.017Z" fill="#D3D2DC"/>
<path d="M280.615 -3.95901C279.897 -3.90394 279.178 -3.84898 278.459 -3.79391L278.387 -3.57832C279.106 -3.6334 279.824 -3.68835 280.543 -3.74343L280.615 -3.95901Z" fill="#D3D2DC"/>
<path d="M351.917 721.86C351.235 721.807 350.552 721.754 349.843 721.651L349.717 721.766C350.426 721.869 351.136 721.972 351.845 722.075L351.917 721.86Z" fill="#D3D2DC"/>
<path d="M629.272 652.081C630.008 652.234 630.745 652.388 631.454 652.491L631.4 652.39C630.833 652.906 630.202 653.48 629.634 653.996L629.841 654.033C629.646 653.312 629.414 652.7 629.219 651.98L629.209 652.138L629.272 652.081Z" fill="#D3D2DC"/>
<path d="M217.613 477.379L217.81 477.573L217.766 477.314L217.613 477.379Z" fill="#D3D2DC"/>
<path d="M349.843 721.651L349.448 721.786L349.717 721.766L349.843 721.651Z" fill="#D3D2DC"/>
<path d="M217.766 477.313L217.334 477.556L217.613 477.377L217.766 477.313Z" fill="#D3D2DC"/>
<path d="M282.772 -4.1265C282.053 -4.07141 281.334 -4.01624 280.615 -3.96115L280.543 -3.74557C281.262 -3.80064 281.98 -3.85567 282.699 -3.91075L282.772 -4.1265Z" fill="#D3D2DC"/>
<path d="M344.006 723.517C343.108 723.586 342.272 723.597 341.374 723.666L341.301 723.882C342.2 723.813 343.035 723.802 343.934 723.733L344.006 723.517Z" fill="#D3D2DC"/>
<path d="M282.7 -3.90932C283.419 -3.96439 284.138 -4.0196 284.857 -4.07469L284.929 -4.29027C284.21 -4.2352 283.492 -4.18017 282.773 -4.12508L282.7 -3.90932Z" fill="#D3D2DC"/>
<path d="M540.054 476.885L540.413 476.857L540.117 476.827L540.054 476.885Z" fill="#D3D2DC"/>
<path d="M335.951 725.605C336.669 725.55 337.415 725.545 338.071 725.548L338.144 725.332C337.425 725.387 336.679 725.392 336.023 725.39L335.951 725.605Z" fill="#D3D2DC"/>
<path d="M284.856 -4.0758C285.575 -4.13089 286.294 -4.1859 287.013 -4.24097L287.085 -4.45655C286.367 -4.40147 285.648 -4.34645 284.929 -4.29138L284.856 -4.0758Z" fill="#D3D2DC"/>
<path d="M287.013 -4.23943C287.911 -4.30827 288.81 -4.37705 289.708 -4.44589L289.781 -4.66166C288.882 -4.59282 287.984 -4.52386 287.085 -4.45501L287.013 -4.23943Z" fill="#D3D2DC"/>
<path d="M335.959 725.445C335.124 725.457 334.225 725.526 333.39 725.537L333.317 725.753C334.153 725.741 335.051 725.672 335.887 725.661L335.959 725.445Z" fill="#D3D2DC"/>
<path d="M330.016 727.109C329.207 727.171 328.488 727.226 327.68 727.288L327.67 727.447C328.389 727.392 329.108 727.336 329.853 727.331L330.043 727.159L330.016 727.109Z" fill="#D3D2DC"/>
<path d="M89.5095 290.402L89.0143 290.703L89.3564 290.467L89.5095 290.402Z" fill="#D3D2DC"/>
<path d="M190.473 480.507L190.14 480.585L190.347 480.622L190.473 480.507Z" fill="#D3D2DC"/>
<path d="M322.033 728.982C321.251 729.095 320.533 729.15 319.751 729.262L319.688 729.319C320.406 729.264 321.125 729.209 321.934 729.147L322.033 728.982Z" fill="#D3D2DC"/>
<path d="M319.751 729.262C319.536 728.858 319.295 728.404 319.081 728L319.018 728.058C319.259 728.512 319.473 728.916 319.714 729.37L319.751 729.262Z" fill="#D3D2DC"/>
<path d="M313.758 731.714L314.091 731.637L313.831 731.499L313.758 731.714Z" fill="#D3D2DC"/>
<path d="M180.079 482.774L180.213 483.027L180.232 482.709L180.079 482.774Z" fill="#D3D2DC"/>
<path d="M313.831 731.499C313.185 731.339 312.539 731.178 311.829 731.075L311.703 731.19C312.298 730.724 312.839 730.157 313.406 729.641L313.227 729.655C313.395 730.325 313.564 730.995 313.732 731.665L313.805 731.449L313.831 731.499Z" fill="#D3D2DC"/>
<path d="M180.233 482.71L179.738 483.011L180.08 482.775L180.233 482.71Z" fill="#D3D2DC"/>
<path d="M311.831 731.077C311.022 731.139 310.303 731.194 309.494 731.256L309.485 731.414C310.053 730.898 310.62 730.382 311.251 729.808L311.071 729.822C311.312 730.276 311.553 730.731 311.794 731.185L311.92 731.07L311.831 731.077Z" fill="#D3D2DC"/>
<path d="M35.9993 299.7C35.2804 299.755 34.6246 299.753 33.879 299.758L33.8064 299.974C34.5253 299.919 35.2077 299.971 35.9266 299.916L35.9993 299.7Z" fill="#D3D2DC"/>
<path d="M33.8797 299.759C33.0079 299.878 32.1094 299.947 31.2376 300.066L31.1649 300.282C32.0367 300.162 32.9353 300.094 33.744 300.032L33.8166 299.816L33.8797 299.759Z" fill="#D3D2DC"/>
<path d="M49.8621 265.027C49.6116 264.731 49.1451 264.557 49.2005 264.132C49.2558 263.708 49.7967 263.141 50.158 262.589C50.5251 262.928 50.8291 263.325 51.1963 263.664C50.7547 264.066 50.34 264.518 49.9253 264.97L49.8621 265.027Z" fill="#D3D2DC"/>
<path d="M159.218 79.7096L159.109 80.033L159.281 79.6523L159.218 79.7096Z" fill="#D3D2DC"/>
<path d="M534.089 511.109C532.298 512.14 530.48 513.119 528.625 514.207C530.417 513.177 532.235 512.197 534.089 511.109Z" fill="#D3D2DC"/>
<path d="M239.256 344.578C238.689 345.094 238.121 345.61 237.49 346.184C238.058 345.668 238.626 345.151 239.256 344.578Z" fill="#D3D2DC"/>
<path d="M203.271 391.662C203.839 391.145 204.406 390.629 205.037 390.055C204.469 390.572 203.902 391.088 203.271 391.662Z" fill="#D3D2DC"/>
</g>
</svg>
